<svg width="512" height="512" viewBox="0 0 100 100" fill="#fff" xmlns="http://www.w3.org/2000/svg"><g clip-path="url(#clip0_1_10)"><path fill-rule="evenodd" clip-rule="evenodd" d="M47.764 14.995h-1.1v.555h1.1v1.316h.55V15.55h1.1v-.555h-1.1v-1.11h-.55v1.11zm-2.432 6.57v.755a13.898 13.898 0 0 1 5.408 0v-.755c0-.817 3.394-4.52 0-4.52a3.226 3.226 0 0 0-1.491.554c-1.001-.76-1.42-.76-2.426 0a4.61 4.61 0 0 0-1.304-.555c-3.708 0-.187 3.543-.187 4.52zm2.712-.117c.055 0 .154.045.154.128s-.099.139-.154.139c-.055 0-.154-.05-.154-.14 0-.088.055-.127.154-.127zm.055-3.982c.1 0 .21.083.21.172a.223.223 0 0 1-.21.178.208.208 0 0 1-.209-.178.206.206 0 0 1 .21-.172zm0 .383a.197.197 0 0 1 .213.113.202.202 0 0 1-.052.237.198.198 0 0 1-.16.045.195.195 0 0 1-.162-.045.198.198 0 0 1-.07-.152.2.2 0 0 1 .146-.193.196.196 0 0 1 .085-.005zm0 .44c.1 0 .21.038.21.166a.212.212 0 0 1-.21.178.202.202 0 0 1-.209-.178c0-.128.1-.167.21-.167zm0 .343a.202.202 0 0 0-.209.173.206.206 0 0 0 .21.172c.098 0 .208-.084.208-.172 0-.09-.11-.172-.209-.172zm0 .345c.037 0 .073.014.1.039a.16.16 0 0 1 .054.094.163.163 0 0 1-.092.157.159.159 0 0 1-.062.015.152.152 0 0 1-.168-.086.156.156 0 0 1 .1-.217.152.152 0 0 1 .068-.002zm0 .35c.055 0 .154.044.154.127 0 .084-.099.134-.154.134a.148.148 0 0 1-.154-.134c0-.083.044-.127.154-.127zm-2.013 2.388c-.11 0-.154.033-.154.128 0 .094.044.127.154.127s.154-.044.154-.127c0-.084-.055-.128-.154-.128zm2.272-.222c-.105 0-.16.044-.16.127 0 .084.055.095.16.095.104 0 .16-.05.16-.095 0-.044-.056-.127-.16-.127zm.67.044c.056 0 .1.039.1.128s-.044.128-.1.128c-.054 0-.153-.045-.153-.128 0-.084.05-.128.154-.128zm-.362-.044a.153.153 0 0 1 .16.127c0 .095-.056.128-.16.128-.105 0-.149-.033-.149-.128 0-.094.1-.127.149-.127zm.985.172c.098 0 .153.05.153.128a.15.15 0 0 1-.154.133c-.049 0-.159-.083-.159-.133s.11-.128.16-.128zm-.314-.09a.154.154 0 0 0-.154.14c0 .078.055.128.154.128s.154-.05.154-.128a.148.148 0 0 0-.154-.139zm.985.218a.219.219 0 0 1 .154.133c0 .089-.1.128-.154.128-.055 0-.154-.04-.154-.128a.162.162 0 0 1 .154-.133zm-.308-.078c.044 0 .099.033.099.128a.117.117 0 0 1-.1.127c-.11 0-.159-.044-.159-.127 0-.084.05-.128.16-.128zm-2.482-.178a.202.202 0 0 1 .155-.044c.104 0 .148.044.148.127 0 .084-.044.095-.148.095-.105 0-.105 0-.127-.056a.167.167 0 0 1 0-.122s-.055.211-.154.211a.153.153 0 0 1-.154-.128c0 .106-.055.172-.165.172-.11 0-.154-.044-.154-.077 0 .078-.044.128-.154.128s-.154-.05-.154-.128a.153.153 0 0 1 .154-.139.153.153 0 0 1 .154.139v-.056c0-.089.055-.127.154-.127s.11.038.165.038c.055 0 .044-.083.154-.083s.099.045.154.045m-1.166.127c.099 0 .148.05.148.128a.145.145 0 0 1-.148.133c-.055 0-.154-.083-.154-.133s.099-.128.154-.128zm-.627.128a.164.164 0 0 1 .164.133c0 .09-.054.128-.164.128-.11 0-.155-.039-.155-.128a.16.16 0 0 1 .154-.133zm1.155-.633c.362.076.73.114 1.1.11.37-.003.738-.04 1.1-.11a1.112 1.112 0 0 1-.368-.65c-.325 0-.55-.044-.748-.044-.199 0-.842.05-.738.05 0 .2-.247.488-.368.644m.622 22.542c0 .711-.303.622-.754 1.016h2.75c-.45-.394-.753-.305-.753-1.016v-4.954c0-.71.302-.622.754-1.016h-2.751c.45.394.754.305.754 1.016v4.954zm11.855-17.038c.858 2.221-.743 5.325-3.576 4.609-1.331-.333-2.327-1.772-1.452-3.215.605-.995 2.795-1.533 3.015.072-.149-.472-1.733-1.244-2.68.094-1.188 1.666 1.607 3.471 3.147 2.527 2.322-1.427 1.018-4.998-1.216-6.592a6.873 6.873 0 0 0-8.362.966 3.065 3.065 0 0 1 .55 3.038 1.202 1.202 0 0 1-.764.805 1.187 1.187 0 0 1-.765-.805 3.083 3.083 0 0 1 .55-3.032 6.292 6.292 0 0 0-3.911-1.905 6.344 6.344 0 0 0-4.451.933c-2.2 1.6-3.538 5.165-1.216 6.592 1.546.944 4.34-.844 3.147-2.527-.94-1.338-2.525-.555-2.674-.094.215-1.605 2.41-1.067 3.015-.072.875 1.443-.127 2.882-1.452 3.215-2.828.716-4.43-2.388-3.57-4.61 2.304-5.914 8.862-4.665 11.332-1.793 2.47-2.872 9.028-4.121 11.333 1.793zM48.044 25.39a2.716 2.716 0 0 0 0 3.233 2.7 2.7 0 0 0 0-3.233zm6.42.956c-.137.333-.825.188-2.41 1.538-1.138.977-2.244 2.899-3.416 4.998 2.366 4.188 4.495 8.775 7.312 8.436 1.237-.144 2.75-1.027 2.063-2.993-.589-1.71-3.17-2.122-3.301-.056-.039.672.814 1.489.759 1.522-.886.155-2.063-2.827.292-3.399a3.227 3.227 0 0 1 1.914.689c1.997 1.666.847 4.665-1.705 4.748-3.334.1-5.771-3.999-7.933-7.886-2.157 3.887-4.594 7.986-7.934 7.886-2.552-.083-3.702-3.104-1.705-4.748a3.238 3.238 0 0 1 1.92-.689c2.355.555 1.172 3.554.292 3.399-.06-.033.792-.85.753-1.522-.12-2.066-2.7-1.666-3.3.056-.655 1.982.841 2.865 2.096 3.01 2.822.339 4.95-4.249 7.31-8.436-1.17-2.116-2.271-4.038-3.415-4.998-1.58-1.35-2.267-1.206-2.41-1.539 2.591-.166 4.594 2.444 6.415 5.554 1.826-3.088 3.85-5.698 6.414-5.554m-3.196-6.475-.055-.178.055-.05.055.133c.066-.083.143-.216.209-.31-.15.046-.289.123-.407.227 0 .083.038.216.066.31a.244.244 0 0 0 .077-.132zm-.55.133.099-.05.055.183.203-.133v.083l-.253.134-.104-.217zm.418.133c-.127.178-.198.311-.325.494a4.33 4.33 0 0 0-.165-.677c.124-.088.257-.162.396-.222 0 .139.083.272.094.405zm-.55-.627.132.222.247-.133-.038-.04-.149.084-.093-.178-.1.045zm.33-.311c-.094.044-.259.177-.413.266.08.121.13.26.143.406.149-.095.253-.178.413-.273-.066-.133-.083-.266-.143-.4zm.787-.095c0 .045-.066.095-.078.14a3.37 3.37 0 0 0-.093-.406l.303-.134c0 .09-.088.178-.105.267l-.027-.106-.105.09.105.15zm-.237-.76.127.227.203-.133v-.095l-.17.134-.121-.167-.039.033zm.341-.362-.462.278c.055.178.077.311.132.444.143-.044.253-.133.396-.177a2.628 2.628 0 0 0-.066-.556m-.902.722.17.222.16-.133v-.089l-.149.09-.143-.184-.038.094zm.346-.405c.062.159.103.325.121.494-.138.066-.272.14-.401.222a2.84 2.84 0 0 1-.182-.444c.16-.095.314-.178.462-.272zm-.863.716.132.228.209-.139v-.089l-.198.09-.094-.179-.05.09zm.302-.355a2.9 2.9 0 0 1 .165.444 2.102 2.102 0 0 0-.401.272 4.015 4.015 0 0 0-.176-.45c.143-.078.281-.167.412-.266zm.55-.761.138.178.198-.095v-.083l-.193.083-.093-.177-.05.094zm.177-.405c.167.1.29.26.346.45-.155.055-.303.13-.44.222a1.9 1.9 0 0 1-.21-.495c.111-.041.213-.101.303-.177zm-1.013.177.149.134.198-.084-.028-.089-.154.09-.093-.184c.22-.328.335-.494.5.133a4.21 4.21 0 0 0-.462.311.697.697 0 0 1-.12-.26l.01-.05zm.55-.4c.066.134.088.223.149.361.083-.064.169-.123.259-.177a1.217 1.217 0 0 0-.408-.184zm-.902 1.217v-.04c.119-.115.246-.223.38-.321.097.137.17.292.214.455-.13.1-.268.19-.412.267a1.698 1.698 0 0 0-.182-.361zm.094 0 .126.227.242-.094v-.133l-.209.133-.05-.172-.11.039zm.852-.722c.091.137.164.287.215.444l-.451.267a2.095 2.095 0 0 0-.226-.4c.146-.117.3-.22.462-.311zm-.346.4.165.227.209-.133v-.094l-.165.133-.088-.222-.121.089zm.776.71c0 .184.066.317.082.45a2.47 2.47 0 0 0-.402.228c-.055-.144-.077-.278-.137-.411.154-.083.308-.178.456-.267zm-.386.361.187.173.198-.134v-.039l-.154.09-.12-.167-.11.077zm-.841-.227a2.858 2.858 0 0 0-.419.316c.077.112.14.234.188.361.154-.094.264-.183.418-.277a1.632 1.632 0 0 1-.187-.4zm-.297.36.132.223.209-.134v-.088l-.16.133-.093-.178-.088.045zm.27-1.754c.09.138.161.287.214.444l-.451.267a1.904 1.904 0 0 0-.226-.395c.145-.118.3-.224.462-.316zm-.347.4.165.227.209-.133v-.094l-.17.133-.083-.217-.121.084zm.099.422c.09.14.163.29.214.45l-.451.266a1.837 1.837 0 0 0-.226-.4c.146-.118.3-.224.463-.316zm-.347.4.17.227.204-.133v-.095l-.17.134-.083-.217-.121.083zm0-.878c.091.14.163.29.214.45l-.45.26a2.23 2.23 0 0 0-.226-.393c.145-.118.3-.224.462-.317zm-.347.4.165.228.21-.134v-.094l-.171.133-.083-.172-.12.039zm.82 1.488.132.217.248-.133-.039-.04-.176.095-.093-.178-.072.04zm.33-.316c-.093.05-.264.183-.412.266a.932.932 0 0 1 .137.406c.154-.095.259-.178.418-.272-.066-.134-.088-.267-.143-.4zm-.225.86.115-.055.066.217.242-.161.033.105-.297.156-.16-.261zm.445.15c-.143.212-.23.373-.38.556a5.482 5.482 0 0 0-.17-.761c.148-.103.304-.192.468-.267 0 .167.099.323.11.484m-1.1-.411.132.216.242-.133-.039-.039-.148.089-.094-.183-.093.05zm.33-.317c-.1.05-.265.183-.413.267a.934.934 0 0 1 .138.405c.154-.089.253-.178.412-.272-.06-.133-.082-.267-.137-.4zm-.242-.516c-.146.094-.284.2-.413.316.077.112.14.233.187.361.154-.094.264-.183.413-.277a2.177 2.177 0 0 1-.188-.4zm-.292.36.132.223.209-.134-.033-.088-.16.133-.093-.178-.055.045zm0-.95c.09.14.164.289.22.445-.154.084-.303.178-.451.267a2.449 2.449 0 0 0-.226-.4c.142-.118.295-.222.457-.311zm-.347.395.17.228.204-.133v-.095l-.165.134-.088-.217-.12.083zm0-.894c.091.138.164.287.215.444l-.451.267a2.1 2.1 0 0 0-.226-.4 3.96 3.96 0 0 1 .462-.31zm-.346.4.165.228.209-.134v-.094l-.165.133-.083-.222-.126.089zm1.1 2.105.083-.04.05.156.175-.116v.072l-.214.117-.094-.19zm.358.116c-.105.156-.17.267-.28.428a3.604 3.604 0 0 0-.144-.583c.108-.077.222-.144.341-.2 0 .122.072.239.083.355zm-1.046-.338.132.222.248-.133-.044-.05-.154.083-.094-.178-.088.056zm.33-.311c-.093.044-.264.177-.412.266a.933.933 0 0 1 .137.406c.154-.095.253-.178.413-.272-.06-.134-.083-.267-.138-.4zm-.55-.223.132.223.248-.134-.039-.039-.154.084-.093-.178-.094.045zm.33-.31c-.093.044-.264.177-.412.266a.935.935 0 0 1 .137.405c.154-.094.259-.183.413-.272-.06-.133-.083-.266-.138-.4zm-.753-.195.132.217.242-.134-.033-.038-.154.088-.072-.166-.115.033zm.33-.31c-.094.043-.264.177-.413.266.078.121.126.26.138.405.154-.094.253-.183.412-.278-.06-.127-.082-.26-.137-.394zm-3.945.727.055-.178-.055-.05-.055.133c-.066-.083-.143-.216-.209-.31.15.046.289.123.407.227 0 .083-.038.216-.066.31a.211.211 0 0 1-.077-.132zm.55.133-.06-.028-.055.183-.204-.133v.083l.248.134.071-.24zm-.412.133c.126.178.198.311.324.494a4.33 4.33 0 0 1 .165-.677 2.194 2.194 0 0 0-.396-.222c0 .139-.082.272-.093.405zm.55-.627-.132.222-.242-.133.038-.04.149.084.093-.178.094.045zm-.325-.311c.094.044.259.177.413.266-.08.121-.13.26-.143.406-.149-.095-.253-.178-.413-.273.066-.133.083-.266.143-.4zm-.82-.095c0 .045.067.095.078.14 0-.14.071-.273.088-.406l-.297-.134c0 .09.082.178.104.267v-.089l.105.089-.077.133zm.237-.76-.126.227-.204-.133v-.095l.17.134.144-.167.016.033zm-.34-.362.461.278c-.055.178-.077.311-.132.444-.143-.044-.253-.133-.396-.177.002-.187.024-.373.066-.556m.902.722-.17.222-.16-.133v-.089l.149.09.137-.184.044.094zm-.291-.383a1.966 1.966 0 0 0-.121.494c.099.045.253.134.401.223.071-.143.13-.292.176-.445-.16-.094-.308-.177-.456-.272zm.864.716-.133.228-.209-.139v-.088l.198.088.094-.177.05.089zm-.303-.355a3.573 3.573 0 0 0-.17.444c.146.073.283.165.407.272.05-.153.108-.303.175-.45a3.349 3.349 0 0 1-.412-.266zm-.55-.76-.138.177-.198-.095v-.083l.198.084.094-.178.044.094zm-.176-.406a.76.76 0 0 0-.347.45c.155.056.303.13.44.222.09-.155.16-.321.21-.494a.971.971 0 0 1-.303-.178zm1.012.178-.149.133-.198-.083v-.09l.149.09.093-.184c-.214-.328-.33-.494-.495.134.16.094.315.198.462.31a.697.697 0 0 0 .121-.26l.017-.05zm-.55-.4c-.06.133-.083.222-.149.36a2.2 2.2 0 0 0-.253-.177 1.19 1.19 0 0 1 .402-.183zm.875 1.205v-.04a3.562 3.562 0 0 0-.38-.321c-.098.138-.17.292-.215.455.13.1.269.19.413.267.05-.127.113-.248.187-.361m-.093 0-.122.228-.242-.095v-.133l.21.133.044-.172.11.039zm-.82-.733a1.826 1.826 0 0 0-.215.444l.451.267a2.1 2.1 0 0 1 .226-.4c-.145-.117-.3-.22-.462-.311zm.346.4-.17.227-.204-.133v-.094l.17.133.083-.222.121.089zm-.797.71c0 .184-.066.317-.083.45.14.065.274.14.402.228.055-.144.071-.278.137-.411-.154-.083-.308-.178-.456-.267zm.385.361-.187.173-.198-.134v-.039l.148.09.105-.184.132.094zm.842-.227c.147.094.287.2.418.316-.08.111-.142.233-.187.361-.154-.094-.264-.183-.419-.277.078-.126.141-.26.188-.4zm.291.36-.132.223-.203-.134v-.088l.16.133.093-.178.082.045zm-.264-1.754c-.09.138-.162.287-.215.444.149.089.298.183.452.267.057-.142.133-.274.225-.395a3.438 3.438 0 0 0-.462-.316zm.347.4-.17.227-.204-.133v-.094l.17.133.083-.217.12.084zm-.1.422a2.12 2.12 0 0 0-.22.45c.155.083.303.177.452.266.062-.14.138-.274.225-.4a3.393 3.393 0 0 0-.456-.316zm.347.4-.17.227-.204-.133v-.095l.165.134.088-.217.121.083zm0-.878a1.86 1.86 0 0 0-.214.45l.45.26c.062-.138.138-.27.226-.393a3.427 3.427 0 0 0-.462-.317zm.347.4-.17.228-.204-.134v-.094l.17.133.11-.172.094.039zm-.776 1.472-.132.216-.286-.116.038-.04.149.084.094-.178.137.034zm-.33-.317c.093.05.264.183.413.267a.865.865 0 0 0-.138.405c-.154-.094-.258-.178-.418-.272.066-.133.083-.267.143-.4zm.226.86-.116-.055-.066.217-.242-.161-.033.105.297.156.16-.261zm-.496.162c.149.211.237.372.386.555a5.48 5.48 0 0 1 .198-.8 2.742 2.742 0 0 0-.474-.266c0 .167-.093.322-.11.483m1.1-.41-.131.216-.248-.134.039-.038.154.088.093-.183.094.05zm-.33-.317c.094.05.265.183.413.266a.935.935 0 0 0-.137.406c-.154-.09-.259-.178-.418-.273.066-.133.088-.266.143-.4zm.237-.517c.149.093.289.198.418.317-.076.112-.14.233-.187.36-.154-.094-.264-.183-.418-.277.08-.124.143-.259.187-.4zm.297.361-.132.222-.209-.133v-.089l.16.133.093-.177.088.044zm0-.95c-.087.14-.158.29-.214.445l.45.266a2.1 2.1 0 0 1 .226-.4 2.69 2.69 0 0 0-.462-.31zm.352.395-.17.227-.204-.088v-.095l.165.134.088-.217.121.039zm0-.894a1.83 1.83 0 0 0-.214.444l.45.267a2.1 2.1 0 0 1 .227-.4 3.973 3.973 0 0 0-.463-.311zm.347.4-.17.227-.204-.133v-.095l.17.134.083-.222.12.088zm-1.1 2.104-.083-.039-.05.156-.175-.117v.072l.22.117.088-.189zm-.358.117c.105.155.17.267.275.428.033-.199.083-.394.149-.584a2.043 2.043 0 0 0-.347-.2c0 .123-.066.24-.077.356zm1.045-.339-.132.222-.247-.133.016-.005.154.083.094-.178.115.011zm-.33-.31c.094.044.264.177.413.266a.933.933 0 0 0-.138.405c-.154-.094-.258-.178-.418-.272.066-.133.088-.266.143-.4zm.55-.223-.132.222-.247-.133.038-.039.149.083.093-.177.1.044zm-.33-.311c.094.045.264.178.413.267a.932.932 0 0 0-.138.405c-.154-.094-.258-.183-.418-.272.066-.133.088-.267.143-.4zm.704-.194-.132.216-.22-.089.039-.038.154.088.093-.177h.066zm-.352-.267c.094.044.265.178.413.267a.882.882 0 0 0-.138.405c-.154-.094-.258-.183-.418-.278.066-.127.088-.26.143-.394zm1.65-1.466c-.06-.083-.252-.05-.423.078-.17.127-.264.294-.203.377.06.084.247.05.418-.077.17-.128.264-.295.209-.378zm-1.793 0c.055-.083.248-.05.419.078.17.127.264.294.203.377-.06.084-.247.05-.418-.077-.17-.128-.264-.295-.204-.378z"/><path fill-rule="evenodd" clip-rule="evenodd" d="M48.044 0a47.723 47.723 0 0 1 26.692 8.174A48.404 48.404 0 0 1 92.43 29.94a48.927 48.927 0 0 1 2.734 28.022 48.644 48.644 0 0 1-13.149 24.833 47.907 47.907 0 0 1-24.6 13.273 47.625 47.625 0 0 1-27.758-2.76A48.146 48.146 0 0 1 8.097 75.445 48.828 48.828 0 0 1 0 48.5c.001-12.862 5.064-25.198 14.073-34.293C23.083 5.112 35.303 0 48.044 0zm0 1.45a46.302 46.302 0 0 1 25.9 7.928 46.963 46.963 0 0 1 17.17 21.117 47.472 47.472 0 0 1 2.654 27.19A47.196 47.196 0 0 1 81.01 81.778a46.48 46.48 0 0 1-23.868 12.879 46.206 46.206 0 0 1-26.933-2.68 46.71 46.71 0 0 1-20.92-17.333A47.374 47.374 0 0 1 1.436 48.5c.001-12.478 4.912-24.445 13.653-33.268C23.829 6.409 35.683 1.45 48.044 1.45z"/><path d="M39.264 72.314a7.548 7.548 0 0 1-2.025 2.183v.677c.469-.33.907-.702 1.31-1.11h.088v5.598a.695.695 0 0 1-.342.727.675.675 0 0 1-.269.083v.44h3.026v-.44a.671.671 0 0 1-.474-.273.687.687 0 0 1-.12-.537V72.33l-1.194-.017zm4.868 8.72a7.252 7.252 0 0 0 1.931-1.267 5.68 5.68 0 0 0 1.345-1.926c.31-.73.465-1.517.454-2.311 0-1.433-.55-3.333-2.904-3.333-1.733 0-2.866.983-2.866 2.733 0 1.938 1.325 2.649 2.442 2.649.438.003.866-.14 1.216-.405h.05a4.474 4.474 0 0 1-.606 1.908 4.427 4.427 0 0 1-1.375 1.446l.313.505zm.793-4.305c-1.007 0-1.007-.86-1.007-1.988 0-1.127 0-1.983 1.007-1.983s1.007.822 1.007 1.983c0 1.16 0 1.988-1.007 1.988zm5.985-4.415a7.562 7.562 0 0 1-2.03 2.183v.677c.47-.33.91-.702 1.315-1.11h.083v5.598a.693.693 0 0 1-.338.726.677.677 0 0 1-.267.084v.44h3.02v-.44a.671.671 0 0 1-.474-.273.687.687 0 0 1-.12-.537V72.33l-1.189-.017zm7.796 6.487h-.435a.792.792 0 0 1-.825.5h-2.2v-.062c1.391-1.371 3.63-3.332 3.63-5.026 0-1.11-.924-2.032-2.31-2.032a3.162 3.162 0 0 0-1.584.422 3.2 3.2 0 0 0-1.167 1.16l.457.367c.478-.466.803-.81 1.408-.81a1.059 1.059 0 0 1 .856.318 1.08 1.08 0 0 1 .3.87c0 1.055-.864 2.588-3.301 5.92v.466h4.797l.374-2.093z"/><path fill-rule="evenodd" clip-rule="evenodd" d="M48.044 89.791a1.263 1.263 0 0 1 1.16.773 1.277 1.277 0 0 1-.258 1.38 1.251 1.251 0 0 1-1.36.29 1.257 1.257 0 0 1-.568-.456 1.274 1.274 0 0 1-.223-.698c0-.335.132-.656.366-.894.234-.237.551-.37.883-.372M48.044 12.307a35.614 35.614 0 0 1 19.919 6.1A36.123 36.123 0 0 1 81.168 34.65a36.512 36.512 0 0 1 2.04 20.91 36.3 36.3 0 0 1-9.812 18.532 35.75 35.75 0 0 1-18.357 9.906 35.54 35.54 0 0 1-20.715-2.06 35.93 35.93 0 0 1-16.09-13.33A36.438 36.438 0 0 1 12.19 48.5c0-9.599 3.778-18.805 10.501-25.592 6.724-6.788 15.843-10.601 25.352-10.601zm0-.722a36.33 36.33 0 0 1 20.321 6.22 36.848 36.848 0 0 1 13.473 16.57 37.246 37.246 0 0 1 2.083 21.332 37.03 37.03 0 0 1-10.01 18.905 36.469 36.469 0 0 1-18.728 10.105 36.254 36.254 0 0 1-21.132-2.102 36.65 36.65 0 0 1-16.414-13.6 37.17 37.17 0 0 1-6.16-20.515c0-9.79 3.854-19.179 10.711-26.101 6.858-6.923 16.158-10.813 25.856-10.814z"/><path d="m38.197 90.947-1.178-.345a1.574 1.574 0 0 1-.676-.339.797.797 0 0 1-.232-.555.83.83 0 0 1 0-.167 1.301 1.301 0 0 1 0-.155.916.916 0 0 1 .342-.511.923.923 0 0 1 .55-.161v-.056a.933.933 0 0 1-.512-.483.969.969 0 0 1-.05-.705.912.912 0 0 1 .48-.622c.278-.1.584-.1.863 0l1.392.405-.055.19a.245.245 0 0 0-.187.044.35.35 0 0 0-.11.188l-.765 2.7a.364.364 0 0 0 0 .216.245.245 0 0 0 .127.145l.01.21zm-.787-.556.38-1.338-.237-.072a.513.513 0 0 0-.451.072.795.795 0 0 0-.286.439.79.79 0 0 0 0 .555.653.653 0 0 0 .434.316l.16.028zm.456-1.616.43-1.5-.254-.072a.61.61 0 0 0-.55.045.806.806 0 0 0-.313.489.774.774 0 0 0 .044.644c.105.17.27.293.462.344l.181.05zm-4.274.833a1.4 1.4 0 0 1-.897-.916 2.353 2.353 0 0 1 .024-1.454 2.33 2.33 0 0 1 .873-1.156 1.445 1.445 0 0 1 2.2.755c.146.48.138.993-.024 1.467-.163.475-.47.884-.878 1.17a1.418 1.418 0 0 1-1.27.167m.093-.272a.671.671 0 0 0 .754-.166c.276-.337.479-.728.594-1.15.161-.402.24-.833.23-1.266a.681.681 0 0 0-.494-.594.681.681 0 0 0-.754.155 4.442 4.442 0 0 0-.825 2.421.686.686 0 0 0 .495.6zm-.704-4.087-.083.178a.245.245 0 0 0-.176 0 .355.355 0 0 0-.154.177l-.897 1.933a1.222 1.222 0 0 1-.66.683 1.227 1.227 0 0 1-.957-.083 1.04 1.04 0 0 1-.6-.7 1.39 1.39 0 0 1 .1-.939c.102-.238.256-.45.45-.622.169-.139.377-.22.595-.233.07-.006.143-.006.214 0a.92.92 0 0 1 .187.061c.114.053.22.122.314.206a.95.95 0 0 1 .214.305l.418-.91c.038-.07.05-.15.033-.228a.26.26 0 0 0-.099-.14l.083-.177 1.018.489zm-2.085 2.366.385-.844a.397.397 0 0 0 0-.362.498.498 0 0 0-.248-.26.337.337 0 0 0-.385.038 1.83 1.83 0 0 0-.424.65 1.98 1.98 0 0 0-.23.739.402.402 0 0 0 .404.382.41.41 0 0 0 .184-.043.551.551 0 0 0 .303-.311m-3.95-1.111a1.418 1.418 0 0 1-.705-1.072c-.058-.5.044-1.006.293-1.442.249-.436.63-.78 1.088-.98a1.43 1.43 0 0 1 1.757.539c.123.187.201.4.23.622a2.358 2.358 0 0 1-.282 1.453c-.247.44-.629.788-1.089.99a1.423 1.423 0 0 1-1.281-.077m.143-.25a.683.683 0 0 0 .775 0c.333-.279.605-.625.798-1.016.238-.362.397-.771.468-1.2a.695.695 0 0 0-.374-.677.683.683 0 0 0-.77 0c-.33.275-.6.615-.793 1-.238.366-.4.778-.473 1.21a.695.695 0 0 0 .369.683zm-3.136-1.627.115-.161a.224.224 0 0 0 .187 0 .297.297 0 0 0 .176-.139l.7-.966-1.277-.939-.699.966a.368.368 0 0 0-.077.206.252.252 0 0 0 .077.183l-.115.156-.92-.683.116-.156a.267.267 0 0 0 .204 0 .348.348 0 0 0 .165-.139l1.65-2.271a.446.446 0 0 0 .083-.189.39.39 0 0 0-.083-.194l.116-.161.908.716-.116.161a.36.36 0 0 0-.209 0 .326.326 0 0 0-.148.133l-.77 1.067 1.243.916.764-1.06a.34.34 0 0 0 .083-.195.396.396 0 0 0-.088-.194l.115-.156.92.672-.116.156a.397.397 0 0 0-.21 0 .298.298 0 0 0-.153.133l-1.65 2.266a.358.358 0 0 0-.073.205c.005.066.03.128.072.178l-.116.161-.874-.672zm-2.437-1.733-1.695-1.488a.58.58 0 0 0-.12-.083.142.142 0 0 0-.1 0l-.088-.078.638-.739.121.111a.912.912 0 0 0-.126.489c.043.177.149.333.297.439l.55.505.919-1.022-.38-.333a.428.428 0 0 0-.28-.139.343.343 0 0 0-.242.145l-.127-.112.638-.738.127.105a.458.458 0 0 0-.1.256.297.297 0 0 0 .1.205l.45.395 1.024-1.189-.825-.722a.613.613 0 0 0-.457-.15.805.805 0 0 0-.495.211l-.126-.105.627-.733 2.15 1.888-.126.15a.224.224 0 0 0-.192-.039.445.445 0 0 0-.22.156l-1.755 2.043a.452.452 0 0 0-.121.234.27.27 0 0 0 .066.194l-.132.144zm-3.851-3.448-.776-.84.143-.132c.066.037.14.056.215.055a.384.384 0 0 0 .165-.1l.49-.46a.38.38 0 0 0-.243-.162.759.759 0 0 0-.374.061 1.599 1.599 0 0 1-.94.189.595.595 0 0 1-.32-.383l.638-.6.138.15a.2.2 0 0 0-.055.194c0 .067.077.095.17.095a4.83 4.83 0 0 1 .694 0l.066.033h.027a1.407 1.407 0 0 1-.137-.422c-.03-.158-.03-.32 0-.478.036-.171.1-.336.187-.488.127-.21.273-.41.434-.594.112-.118.21-.248.292-.39a.28.28 0 0 0 0-.144l.143-.133.726.789-.143.133a.23.23 0 0 0-.209 0 1.19 1.19 0 0 0-.33.244 2.717 2.717 0 0 0-.43.483 1.902 1.902 0 0 0-.23.461 1.07 1.07 0 0 0-.05.45.507.507 0 0 0 .182.345l1.32-1.244a.372.372 0 0 0 .116-.162.432.432 0 0 0-.044-.222l.143-.133.775.839-.143.133a.405.405 0 0 0-.209-.056.4.4 0 0 0-.17.1l-1.32 1.194a.55.55 0 0 0 .335.206c.147.033.299.033.446 0 .165-.046.324-.113.473-.2.179-.117.346-.251.5-.4.107-.09.199-.196.27-.316a.234.234 0 0 0 0-.212l.143-.133.726.789-.143.133a.214.214 0 0 0-.132-.033c-.16.079-.31.178-.445.294-.187.144-.385.27-.595.378-.15.073-.312.122-.478.144-.157.03-.317.03-.473 0a1.534 1.534 0 0 1-.413-.172c.011.023.02.047.027.072 0 .233-.019.465-.055.694 0 .1 0 .162.078.184a.184.184 0 0 0 .192-.045l.143.15-.638.6a.598.598 0 0 1-.358-.35c-.009-.33.08-.654.253-.933a.688.688 0 0 0 .088-.372.38.38 0 0 0-.143-.255l-.49.46a.355.355 0 0 0-.11.156.41.41 0 0 0 .04.222l-.182.133zm-1.65-6.47.076-.245c.273.024.54.091.793.2a1.422 1.422 0 0 1 .754 1.66 2.222 2.222 0 0 1-.837 1.222c-.378.33-.86.515-1.359.522a1.309 1.309 0 0 1-1.1-.522 2.053 2.053 0 0 1-.143-.21 1.919 1.919 0 0 1-.105-.24 1.59 1.59 0 0 0-.06-.177.55.55 0 0 0-.08-.123.055.055 0 0 0-.02-.01h-.098l-.105-.128.704-.556.1.128a1.017 1.017 0 0 0-.166.555c-.005.201.059.398.182.556l.06.061.072.061a.799.799 0 0 0 .693.1c.376-.147.725-.36 1.029-.628.332-.226.596-.538.765-.905a.835.835 0 0 0-.171-.816 1.053 1.053 0 0 0-.38-.306 1.908 1.908 0 0 0-.588-.172m-2.8 1.194-.644-.944.16-.117a.253.253 0 0 0 .18.084.323.323 0 0 0 .199-.078l.792-.555a.587.587 0 0 0-.368-.272 1.122 1.122 0 0 0-.578.038c-.255.1-.53.144-.803.128a.581.581 0 0 1-.374-.266.496.496 0 0 1-.077-.14 1.383 1.383 0 0 1-.055-.132l.715-.506.093.139a.269.269 0 0 0-.066.144.202.202 0 0 0 0 .128c.033.04.077.07.127.083a.63.63 0 0 0 .22 0c.23-.023.463-.023.693 0a.832.832 0 0 1 .248.117h.033a2.275 2.275 0 0 1-.088-.233.913.913 0 0 1 0-.7c.097-.205.227-.393.385-.555l.286-.3a.447.447 0 0 0 .05-.078.619.619 0 0 0 .11-.283.397.397 0 0 0-.05-.256l.17-.122c.054.03.104.068.149.111a.981.981 0 0 1 .12.139c.094.127.15.277.166.433.01.15-.022.3-.093.433a.734.734 0 0 1-.089.14 5.404 5.404 0 0 1-.335.355c-.135.13-.257.273-.363.427a.943.943 0 0 0-.132.311.754.754 0 0 0 0 .272.609.609 0 0 0 .104.245l1.26-.833a.387.387 0 0 0 .143-.167.24.24 0 0 0 0-.194l.16-.117.643.933-.16.111a.263.263 0 0 0-.17-.083.389.389 0 0 0-.209.078l-2.272 1.61a.349.349 0 0 0-.137.167.268.268 0 0 0 0 .194l-.143.111zm-2.091-3.076-.55-.995.17-.1a.38.38 0 0 0 .198.106.296.296 0 0 0 .182-.055l1.766-.99-2.24-.399-.241.122a.386.386 0 0 0-.149.15.29.29 0 0 0 0 .206l-.17.094-.55-1 .165-.094c.039.047.093.079.154.089a.35.35 0 0 0 .209-.056l2.431-1.36a.387.387 0 0 0 .16-.15.24.24 0 0 0 0-.195l.17-.094.55.994-.17.1a.249.249 0 0 0-.165-.106.312.312 0 0 0-.215.056l-1.804 1.005 2.25.389.248-.133a.315.315 0 0 0 .154-.15.29.29 0 0 0 0-.206l.17-.094.55 1-.137.11a.264.264 0 0 0-.16-.1.366.366 0 0 0-.214.056l-2.432 1.36a.403.403 0 0 0-.154.15.263.263 0 0 0 0 .195l-.176.094zm-1.915-3.522-.45-1.044.18-.077a.45.45 0 0 0 .188.122c.06.011.123.007.182-.011l1.842-.833-2.2-.595-.231.1a.364.364 0 0 0-.16.14.269.269 0 0 0 0 .2l-.176.077-.462-1.044.176-.078a.27.27 0 0 0 .16.117.344.344 0 0 0 .214-.04l2.487-1.182a.387.387 0 0 0 .176-.139.236.236 0 0 0 0-.194l.176-.078.462 1.044-.181.078a.253.253 0 0 0-.149-.117.343.343 0 0 0-.226.034l-1.848.844 2.2.588.26-.116a.33.33 0 0 0 .17-.134.245.245 0 0 0 0-.2l.181-.083.484 1.055-.176.084a.243.243 0 0 0-.154-.117.403.403 0 0 0-.22.033l-2.536 1.144a.38.38 0 0 0-.165.14.257.257 0 0 0-.027.194l-.177.088zM7.84 66.472a1.11 1.11 0 0 0-.325-.44c-.132-.094-.237-.127-.319-.088a.132.132 0 0 0-.05.044.073.073 0 0 0 0 .067.101.101 0 0 0 0 .039l.072.061a.205.205 0 0 1 .093.189.195.195 0 0 1-.11.15.245.245 0 0 1-.187 0 .282.282 0 0 1-.137-.15.426.426 0 0 1 .236-.561.71.71 0 0 1 .617 0 .923.923 0 0 1 .484.494c.102.22.117.47.044.7a.713.713 0 0 1-.402.472.392.392 0 0 1-.324 0 .412.412 0 0 1-.232-.233.286.286 0 0 1 0-.2.211.211 0 0 1 .127-.139.192.192 0 0 1 .187 0 .206.206 0 0 1 .072.194v.09a.095.095 0 0 0 0 .044.072.072 0 0 0 .05.05.082.082 0 0 0 .07 0c.089-.034.138-.14.144-.311a1.193 1.193 0 0 0-.11-.556m-.628-3.832-.61-1.793a.29.29 0 0 0-.165-.194l-.033-.1.935-.312.055.161a.907.907 0 0 0-.358.372.644.644 0 0 0 0 .433l.182.556 2.844-.933a.272.272 0 0 0 .182-.117.252.252 0 0 0 .044-.194l.187-.061.346 1.11-.187.061a.221.221 0 0 0-.137-.127.337.337 0 0 0-.22 0l-2.64.866a.38.38 0 0 0-.182.122.24.24 0 0 0-.044.19l-.199-.04zM5.98 58.33a1.452 1.452 0 0 1 .325-1.25c.32-.392.769-.656 1.265-.744.482-.12.992-.063 1.436.161a1.45 1.45 0 0 1 .792 1.014 1.474 1.474 0 0 1-.313 1.252c-.301.413-.738.705-1.233.822a2.106 2.106 0 0 1-1.452-.161 1.438 1.438 0 0 1-.803-1.01m.28-.062a.702.702 0 0 0 .55.556c.429.06.865.031 1.282-.084.427-.065.836-.22 1.2-.455a.761.761 0 0 0 .24-.731.763.763 0 0 0-.516-.569 3.027 3.027 0 0 0-1.276.078c-.429.064-.84.22-1.205.455a.688.688 0 0 0-.258.734m1.87-5.315.193-.167c.21.156.395.343.55.555.116.18.191.383.22.595a1.406 1.406 0 0 1-.418 1.221 2.219 2.219 0 0 1-1.348.617 2.183 2.183 0 0 1-1.43-.261 1.342 1.342 0 0 1-.666-1.01 1.424 1.424 0 0 1 0-.262c.002-.086.01-.171.027-.255.018-.062.03-.125.039-.19a.455.455 0 0 0 0-.121.061.061 0 0 0 0-.04.171.171 0 0 0-.055-.055v-.166l.776-.1v.16a.966.966 0 0 0-.435.395.896.896 0 0 0-.121.555v.084a.81.81 0 0 0 .583.539c.397.07.803.07 1.2 0 .394-.021.775-.152 1.1-.378a.822.822 0 0 0 .275-.783 1.151 1.151 0 0 0-.17-.461 1.844 1.844 0 0 0-.419-.456m-2.949-.377-.093-1.333h.187a.195.195 0 0 0 .121.2.348.348 0 0 0 .297-.072l1.293-.79-1.293-.366h-.236a.252.252 0 0 0-.15.084.514.514 0 0 0-.07.244h-.199l-.055-.85h.193c.034.063.08.118.137.161.093.055.193.094.298.117l2.283.644c.29.069.563.202.797.389a.836.836 0 0 1 .27.555c.02.16-.02.323-.11.456a.474.474 0 0 1-.363.194.6.6 0 0 1-.325-.066.293.293 0 0 1-.148-.256.335.335 0 0 1 .071-.239.467.467 0 0 1 .253-.144.252.252 0 0 0 .154-.072.133.133 0 0 0 .033-.117.336.336 0 0 0-.176-.244 1.418 1.418 0 0 0-.401-.172l-2.3 1.393a.714.714 0 0 0-.176.162.485.485 0 0 0-.094.183l-.198-.061zm-.165-5.932h.193c.014.07.049.134.099.184a.317.317 0 0 0 .198.066l2.674.095a.327.327 0 0 0 .264-.067.437.437 0 0 0 .066-.278c0-.077 0-.127.044-.15a.203.203 0 0 1 .126 0c.238.037.46.144.638.306.254.2.375.366.375.505a.106.106 0 0 1-.044.084.132.132 0 0 1-.088 0h-.028a1.56 1.56 0 0 1-.242-.1l-.143-.045h-.094a.29.29 0 0 0-.203.05.171.171 0 0 0-.077.156l-.05 1.421a.297.297 0 0 0 .039.206.176.176 0 0 0 .154.061.544.544 0 0 0 .154 0l.203-.05a.545.545 0 0 1 .276-.033c.055 0 .077.05.077.11a.262.262 0 0 1-.055.134c-.049.057-.1.11-.154.161-.133.112-.281.204-.44.272-.13.06-.27.094-.413.1a.234.234 0 0 1-.094 0s-.055-.105-.093-.289a.394.394 0 0 0-.149-.227 2.269 2.269 0 0 0-.506-.245l-1.65-.627a5.893 5.893 0 0 0-.38-.128.942.942 0 0 0-.176-.083.311.311 0 0 0-.27.094.599.599 0 0 0-.088.344h-.192l.05-2.027zm.253.933a.336.336 0 0 0 .066.261c.11.09.234.156.37.195l2.2.8.297.105h.066a.197.197 0 0 0 .137-.039.213.213 0 0 0 .039-.15l.055-1.072-3.23-.1zm3.301-.994a.44.44 0 0 0-.126-.194 1.167 1.167 0 0 0-.259-.172l-2.2-1.111a.672.672 0 0 0-.149-.05.77.77 0 0 0-.176-.033.093.093 0 0 0-.099.05.274.274 0 0 0-.028.155h-.192a.93.93 0 0 0-.06-.339.878.878 0 0 0-.182-.266v-.161l3.053-.939c.163-.042.321-.1.473-.172a.619.619 0 0 0 .242-.228H9l-.115 1.306h-.193a.213.213 0 0 0-.071-.19.345.345 0 0 0-.215-.088H8.236l-.363.11-.127 1.456.308.144a.416.416 0 0 0 .352.056.365.365 0 0 0 .176-.256h.193l-.077.895-.193.027zm-2.453-1.716 1.425.711.099-1.188-1.524.46v.017zm2.965-1.938-.215-.039a.251.251 0 0 0-.06-.172.373.373 0 0 0-.21-.106l-2.073-.405a1.214 1.214 0 0 1-.814-.489 1.195 1.195 0 0 1-.143-.955 1.02 1.02 0 0 1 .55-.755c.283-.141.606-.179.913-.106.253.045.494.145.704.295a.994.994 0 0 1 .363.522c.025.07.04.142.044.216a.813.813 0 0 1 0 .2 1.42 1.42 0 0 1-.12.356 1.068 1.068 0 0 1-.243.283l.98.189c.07.028.149.028.22 0a.231.231 0 0 0 .131-.156l.193.039-.22 1.083zm-2.75-1.472.896.178a.425.425 0 0 0 .358-.078.511.511 0 0 0 .187-.31.347.347 0 0 0-.132-.367 1.729 1.729 0 0 0-.727-.256 1.821 1.821 0 0 0-.797-.044.373.373 0 0 0-.27.294.415.415 0 0 0 .077.361.552.552 0 0 0 .374.222m3.175-4.276.236-.094c.153.227.268.479.341.744.052.21.052.429 0 .638a1.4 1.4 0 0 1-.809 1c-.461.208-.98.25-1.468.117a2.196 2.196 0 0 1-1.255-.745 1.326 1.326 0 0 1-.28-1.16c.019-.085.045-.169.077-.25.03-.08.07-.156.115-.228.044-.072.077-.122.1-.166a.336.336 0 0 0 .038-.111.062.062 0 0 0 0-.045.273.273 0 0 0-.033-.072l.038-.161.87.2-.039.16a.985.985 0 0 0-.55.223.867.867 0 0 0-.303.489v.177a.816.816 0 0 0 .358.606c.34.202.712.343 1.1.416.385.108.792.108 1.177 0a.809.809 0 0 0 .55-.644c.04-.16.04-.328 0-.489a2.009 2.009 0 0 0-.236-.555m-2.75-1.5.054-.172a.287.287 0 0 0 .1-.1.556.556 0 0 0 .07-.155l.672-1.977a.38.38 0 0 0 .039-.15.516.516 0 0 0 0-.156l.055-.166.918.316-.05.156a1.153 1.153 0 0 0-.55.133.587.587 0 0 0-.28.339l-.099.289 2.839.938a.257.257 0 0 0 .385-.122l.181.067-.368 1.077-.198-.033a.403.403 0 0 0-.044-.211.424.424 0 0 0-.176-.106l-2.85-.988-.083.244a.728.728 0 0 0 0 .494c.07.174.19.321.347.422l-.055.156-.908-.294zm1.27-3.46.55-1.11c.07-.265.21-.507.402-.7a.792.792 0 0 1 .55-.15l.165.028c.051.014.1.033.149.055.192.082.35.23.445.417a.964.964 0 0 1 .072.6h.05a.942.942 0 0 1 .55-.439.95.95 0 0 1 .693.067.868.868 0 0 1 .55.555c.056.294.01.598-.132.86l-.617 1.323-.175-.084a.247.247 0 0 0 0-.188.374.374 0 0 0-.171-.145l-2.52-1.183a.441.441 0 0 0-.214-.039.258.258 0 0 0-.16.111l-.187.023zm.644-.705 1.249.561.104-.222a.52.52 0 0 0 0-.46.773.773 0 0 0-.38-.356.785.785 0 0 0-.55-.078.649.649 0 0 0-.374.383l-.05.172zm1.513.711 1.397.655.11-.238a.638.638 0 0 0 .044-.556.828.828 0 0 0-.434-.389.788.788 0 0 0-.633-.055.78.78 0 0 0-.413.405l-.071.178zM9.231 29.401l1.051-2.005a.468.468 0 0 0 .055-.139.128.128 0 0 0-.038-.089l.05-.105.857.46-.077.145a.856.856 0 0 0-.5 0 .73.73 0 0 0-.358.389l-.368.66 1.204.65.237-.45a.42.42 0 0 0 .072-.3.34.34 0 0 0-.193-.21l.077-.145.858.462-.055.155a.441.441 0 0 0-.27-.039.268.268 0 0 0-.17.145l-.28.555 1.375.733.512-.972a.63.63 0 0 0 .043-.483.838.838 0 0 0-.313-.439l.077-.144.842.45-1.337 2.543-.187-.128a.202.202 0 0 0 0-.194.52.52 0 0 0-.204-.183l-2.365-1.289a.459.459 0 0 0-.253-.06.27.27 0 0 0-.171.105l-.17-.078zm2.284-4.07.165.105a.263.263 0 0 0 0 .194c.03.07.08.127.143.167l1 .655.86-1.338-1.03-.678a.4.4 0 0 0-.209-.067.257.257 0 0 0-.17.09l-.165-.112.616-.955.165.105a.275.275 0 0 0 0 .206c.033.066.085.12.148.155l2.366 1.55c.055.041.12.066.187.072a.356.356 0 0 0 .193-.094l.165.11-.617.956-.165-.106a.414.414 0 0 0 0-.216.348.348 0 0 0-.143-.145l-1.1-.716-.864 1.339 1.1.716a.279.279 0 0 0 .193.072.35.35 0 0 0 .187-.094l.165.105-.616.961-.165-.111a.376.376 0 0 0 0-.206.36.36 0 0 0-.143-.15l-2.338-1.527a.349.349 0 0 0-.209-.06.263.263 0 0 0-.17.082l-.166-.11.617-.956zm2.376-3.46.149.121a.257.257 0 0 0-.028.19c.018.074.063.14.127.183l.924.755.996-1.239-.925-.777a.384.384 0 0 0-.198-.089.284.284 0 0 0-.181.067l-.154-.123.71-.888.154.128a.268.268 0 0 0-.033.2c.023.069.067.129.126.172l2.162 1.76a.406.406 0 0 0 .182.095.36.36 0 0 0 .198-.073l.154.123-.715.888-.149-.128a.388.388 0 0 0 .028-.21.371.371 0 0 0-.127-.156l-1.012-.828-.996 1.283 1.012.828c.05.05.116.084.187.094a.378.378 0 0 0 .198-.078l.149.123-.71.866-.165-.122a.431.431 0 0 0 .028-.206.361.361 0 0 0-.127-.166l-2.156-1.76a.367.367 0 0 0-.204-.09.268.268 0 0 0-.176.067l-.116-.111.688-.9zm2.652-3.122.137.139a.24.24 0 0 0-.044.194.405.405 0 0 0 .149.217l.715.694.28-.289c.22-.268.533-.44.875-.477a1.09 1.09 0 0 1 .81.344c.21.202.332.48.34.772a1.063 1.063 0 0 1-.335.822l-.99 1.05-.144-.14a.205.205 0 0 0 .05-.188.556.556 0 0 0-.149-.228l-1.925-1.877a.457.457 0 0 0-.22-.139.256.256 0 0 0-.193.05l-.137-.133.78-.81zm1.16 1.45 1.2 1.166.193-.206a.556.556 0 0 0 .198-.505 1.328 1.328 0 0 0-.892-.86.544.544 0 0 0-.506.2l-.192.205zm.089-2.472-.138-.139.787-.822.137.14a.257.257 0 0 0-.044.194c.018.07.056.134.11.183l1.997 1.95a.384.384 0 0 0 .193.11.25.25 0 0 0 .187-.06l.137.138-.803.822-.137-.139a.251.251 0 0 0 .05-.177.378.378 0 0 0-.116-.2l-1.997-1.955a.352.352 0 0 0-.198-.106.245.245 0 0 0-.182.056m1.244-1.466.88-.706.126.15a.426.426 0 0 0-.066.217.395.395 0 0 0 .088.172l1.304 1.56-.044-2.299-.16-.194a.363.363 0 0 0-.175-.122.29.29 0 0 0-.199.033l-.126-.15.87-.733.126.15a.243.243 0 0 0-.066.183c.01.073.043.141.093.195l1.783 2.149c.044.063.108.11.181.133a.24.24 0 0 0 .187-.039l.127.15-.842.694-.121-.15a.262.262 0 0 0 .066-.177.328.328 0 0 0-.093-.206l-1.32-1.594.043 2.305.182.217a.352.352 0 0 0 .143.133.283.283 0 0 0 .198-.039l.126.15-.874.744-.127-.15a.234.234 0 0 0 .066-.177.363.363 0 0 0-.093-.206l-1.788-2.15a.39.39 0 0 0-.176-.121.229.229 0 0 0-.188.033l-.131-.155zm.731-1.7c.147-.113.261-.265.33-.439.055-.155.055-.266 0-.333a.132.132 0 0 0-.06-.033.06.06 0 0 0-.06 0l-.034.039-.033.083a.206.206 0 0 1-.154.144.18.18 0 0 1-.176-.066.236.236 0 0 1-.055-.178.284.284 0 0 1 .105-.178.4.4 0 0 1 .143-.082c.053-.018.11-.024.165-.018a.393.393 0 0 1 .286.156.729.729 0 0 1 .148.61.918.918 0 0 1-.335.606.962.962 0 0 1-.655.233.71.71 0 0 1-.55-.255.406.406 0 0 1 .044-.6.306.306 0 0 1 .192-.072.202.202 0 0 1 .166.083.195.195 0 0 1-.133.311l-.093.028h-.038a.077.077 0 0 0-.027.095c.005.01.012.02.021.027.06.078.176.1.341.056.176-.043.338-.129.473-.25m5.31 1.355a.403.403 0 0 0 .076-.217 1.61 1.61 0 0 0 0-.316l-.445-2.466a.76.76 0 0 0-.056-.106c0-.05-.05-.1-.082-.16a.094.094 0 0 0-.105-.045.285.285 0 0 0-.137.066l-.1-.166a.907.907 0 0 0 .232-.255.715.715 0 0 0 .099-.3l.137-.09 2.58 1.9c.133.102.273.195.419.278a.628.628 0 0 0 .302.078l.105.166-1.1.694-.105-.166a.199.199 0 0 0 .11-.167.386.386 0 0 0-.06-.228l-.055-.06-.066-.062-.309-.228-1.204.772.066.34c.033.166.088.271.17.31a.354.354 0 0 0 .308 0l.105.167-.776.489-.11-.228zm-.139-3.027.303 1.588 1.001-.633-1.287-.955h-.017zm1.508-2.088 1.705-.955a.36.36 0 0 0 .1-.084.256.256 0 0 0 .06-.122l.093-.05.479.867-.143.083a.857.857 0 0 0-.435-.278.606.606 0 0 0-.423.061l-.506.29 1.452 2.637c.03.068.08.124.143.161a.256.256 0 0 0 .204 0l.093.172-.99.556-.094-.173a.22.22 0 0 0 .1-.166.353.353 0 0 0-.056-.217l-1.342-2.449a.375.375 0 0 0-.154-.155.23.23 0 0 0-.193 0l-.093-.178zm4.043 2.1-.077-.184a.217.217 0 0 0 .105-.144.365.365 0 0 0-.033-.234l-.858-1.949a1.239 1.239 0 0 1-.066-.91 1.206 1.206 0 0 1 .704-.678 1.01 1.01 0 0 1 .919 0c.277.146.495.386.616.677.114.233.17.49.165.75a.978.978 0 0 1-.215.605.796.796 0 0 1-.148.156.757.757 0 0 1-.165.105 1.095 1.095 0 0 1-.363.1.835.835 0 0 1-.364-.039l.408.922a.3.3 0 0 0 .143.173.261.261 0 0 0 .203 0l.077.177-1.05.472zm-.396-3.144.375.844a.41.41 0 0 0 .264.25.468.468 0 0 0 .357 0 .341.341 0 0 0 .226-.317 1.802 1.802 0 0 0-.21-.75 2.002 2.002 0 0 0-.401-.66.389.389 0 0 0-.396-.05.402.402 0 0 0-.253.272.56.56 0 0 0 .038.433m2.817 1.722a.383.383 0 0 0 .127-.195c.033-.1.053-.205.06-.31l.16-2.5a.495.495 0 0 0 0-.155 1.314 1.314 0 0 0-.039-.178.095.095 0 0 0-.088-.072.262.262 0 0 0-.148.033l-.06-.189a.809.809 0 0 0 .456-.455l.154-.05 2.046 2.471c.106.131.22.255.341.372a.62.62 0 0 0 .275.15l.061.19-1.232.405-.06-.19a.197.197 0 0 0 .142-.138.343.343 0 0 0 0-.233l-.038-.073-.055-.077-.248-.272-1.375.45v.344a.45.45 0 0 0 .088.344.367.367 0 0 0 .302.067l.06.183-.846.278-.083-.2zm.594-2.971-.088 1.599 1.1-.372-1.012-1.244v.017zm2.91 2.06-.049-.189a.238.238 0 0 0 .127-.128.364.364 0 0 0 0-.233l-.55-2.06a1.226 1.226 0 0 1 .07-.956 1.212 1.212 0 0 1 .788-.555.987.987 0 0 1 .902.15c.26.188.446.464.523.778.075.25.091.514.049.772a.991.991 0 0 1-.308.555.915.915 0 0 1-.17.128.64.64 0 0 1-.182.077 1.09 1.09 0 0 1-.374.045.836.836 0 0 1-.352-.095l.258.978a.306.306 0 0 0 .116.189.258.258 0 0 0 .198.05l.05.194-1.096.3zm.094-3.166.237.9a.413.413 0 0 0 .225.283c.11.057.238.07.358.04a.35.35 0 0 0 .27-.284 1.815 1.815 0 0 0-.089-.772c-.05-.257-.151-.5-.297-.716a.38.38 0 0 0-.38-.112.406.406 0 0 0-.291.228.56.56 0 0 0-.033.433zm3.24-1.594.033.195a.252.252 0 0 0-.165.122.365.365 0 0 0 0 .222l.21 1.183 1.55-.294-.208-1.183a.34.34 0 0 0-.094-.195.241.241 0 0 0-.176-.072l-.038-.216 1.1-.195.033.19a.252.252 0 0 0-.154.132.342.342 0 0 0 0 .217l.49 2.777c.005.068.03.134.071.189a.372.372 0 0 0 .198.077l.033.195-1.1.194-.033-.189a.392.392 0 0 0 .154-.144.343.343 0 0 0 0-.206l-.226-1.294-1.557.278.226 1.294a.29.29 0 0 0 .083.194.345.345 0 0 0 .192.073l.033.194-1.1.2-.033-.194a.43.43 0 0 0 .154-.14.348.348 0 0 0 0-.205l-.484-2.777a.312.312 0 0 0-.094-.2.257.257 0 0 0-.176-.066l-.033-.194 1.111-.162zm4.12-.622v.2a.241.241 0 0 0-.164.111.515.515 0 0 0 0 .261l.066 1 .401-.028a1.292 1.292 0 0 1 .969.245 1.11 1.11 0 0 1 .374.794c.027.295-.06.59-.242.822a1.041 1.041 0 0 1-.798.383l-1.452.106v-.2a.219.219 0 0 0 .165-.106.595.595 0 0 0 .038-.266l-.187-2.7a.485.485 0 0 0-.12-.283.258.258 0 0 0-.177-.089v-.194l1.128-.056zm-.093 1.86.116 1.667h.28a.546.546 0 0 0 .48-.244c.098-.19.137-.405.11-.617a1.118 1.118 0 0 0-.193-.66.588.588 0 0 0-.512-.19l-.28.045zm1.7-1.776v-.195l1.128-.077v.194a.264.264 0 0 0-.16.111.375.375 0 0 0-.038.217l.193 2.776c0 .076.023.15.066.212a.252.252 0 0 0 .176.083v.2l-1.1.078v-.195a.219.219 0 0 0 .154-.105.38.38 0 0 0 .055-.223l-.199-2.776a.318.318 0 0 0-.082-.245.242.242 0 0 0-.17-.083m1.82-.267h1.1v.2a.483.483 0 0 0-.192.117.414.414 0 0 0-.044.189l-.033 2.038 1.463-1.76v-.234a.336.336 0 0 0-.055-.205.291.291 0 0 0-.17-.111v-.195h1.1v.2a.246.246 0 0 0-.17.095.397.397 0 0 0-.06.21l.043 2.827a.336.336 0 0 0 .05.217.227.227 0 0 0 .165.094v.2h-1.1v-.194a.269.269 0 0 0 .164-.089.318.318 0 0 0 .066-.216l.033-2.083-1.457 1.772v.283a.319.319 0 0 0 .05.21.27.27 0 0 0 .17.106v.195h-1.128V8.63a.229.229 0 0 0 .17-.094.341.341 0 0 0 .06-.211l.05-2.805a.453.453 0 0 0-.055-.21.264.264 0 0 0-.165-.106l-.055-.245zm1.65-.794a.988.988 0 0 0 .55-.116c.144-.078.215-.161.215-.25a.085.085 0 0 0 0-.061.082.082 0 0 0-.06-.034h-.044l-.11.05a.202.202 0 0 1-.21 0 .177.177 0 0 1-.087-.166.235.235 0 0 1 .071-.167.284.284 0 0 1 .198-.067.382.382 0 0 1 .292.128.384.384 0 0 1 .115.311.715.715 0 0 1-.28.555.93.93 0 0 1-.65.24.909.909 0 0 1-.643-.256.715.715 0 0 1-.259-.556.398.398 0 0 1 .122-.305.38.38 0 0 1 .297-.139c.07.002.138.027.192.072a.228.228 0 0 1 .066.173.179.179 0 0 1-.099.16.186.186 0 0 1-.203 0l-.083-.038h-.044a.071.071 0 0 0-.06 0 .09.09 0 0 0 0 .066c0 .095.071.184.22.267.171.084.36.125.55.122m3.63 1.072 1.31.161-.044.167a.186.186 0 0 0-.215.083.347.347 0 0 0 0 .305l.518 1.433h.033l.6-1.21c.019-.04.035-.08.049-.123.013-.034.024-.07.033-.105a.2.2 0 0 0-.05-.161.548.548 0 0 0-.225-.122v-.195l.836.1v.2a.428.428 0 0 0-.182.106c-.07.08-.128.172-.17.272l-1.062 2.138a1.964 1.964 0 0 1-.55.716.803.803 0 0 1-.594.161.663.663 0 0 1-.424-.194.473.473 0 0 1-.115-.4.558.558 0 0 1 .126-.31.286.286 0 0 1 .275-.095.311.311 0 0 1 .215.11.47.47 0 0 1 .093.284.263.263 0 0 0 .044.167.159.159 0 0 0 .105.055.322.322 0 0 0 .27-.128c.102-.107.185-.23.247-.366l-.919-2.55a.71.71 0 0 0-.12-.2.49.49 0 0 0-.16-.127l.077-.172zm4.534.744-.039.189a.257.257 0 0 0-.181.061.307.307 0 0 0-.105.194l-.247 1.178 1.546.333.247-1.177a.353.353 0 0 0 0-.217.234.234 0 0 0-.137-.133l.038-.195 1.1.24-.038.194a.24.24 0 0 0-.193.06.324.324 0 0 0-.093.195l-.55 2.744a.374.374 0 0 0 0 .205.38.38 0 0 0 .16.144l-.045.195-1.1-.239.038-.194a.334.334 0 0 0 .204-.073.408.408 0 0 0 .083-.183l.27-1.288-1.547-.328-.27 1.283a.341.341 0 0 0 0 .211c.038.061.091.111.155.144l-.039.19-1.1-.24.038-.188a.448.448 0 0 0 .198-.073.351.351 0 0 0 .088-.183l.55-2.743a.296.296 0 0 0 0-.223.27.27 0 0 0-.131-.127l.038-.195 1.062.24zm2.938.694 1.1.356-.06.183a.415.415 0 0 0-.215.061.34.34 0 0 0-.094.167l-.627 1.938 1.91-1.255.076-.239a.37.37 0 0 0 0-.217.288.288 0 0 0-.132-.15l.06-.188 1.101.35-.055.188a.246.246 0 0 0-.193.045.373.373 0 0 0-.115.183l-.858 2.666a.398.398 0 0 0 0 .222.239.239 0 0 0 .132.144l-.06.184-1.101-.35.06-.189c.065.012.131 0 .188-.033a.345.345 0 0 0 .126-.19l.638-1.976-1.909 1.26-.088.273a.303.303 0 0 0 0 .216c.025.066.075.12.138.15l-.06.189-1.101-.355.06-.184a.239.239 0 0 0 .187-.044.328.328 0 0 0 .121-.184l.859-2.665a.387.387 0 0 0 0-.222.223.223 0 0 0-.121-.145l.033-.189zm3.801 1.311 1.1.5c.24.09.453.24.622.433.124.157.18.356.16.555a.857.857 0 0 1-.028.173.798.798 0 0 1-.05.15.89.89 0 0 1-.406.455.916.916 0 0 1-.59.078v.05c.214.12.372.32.441.555a.986.986 0 0 1-.05.705.924.924 0 0 1-.55.556 1.298 1.298 0 0 1-.858-.123l-1.32-.594.077-.183a.229.229 0 0 0 .192 0 .371.371 0 0 0 .138-.172l1.1-2.566a.376.376 0 0 0 .033-.211.247.247 0 0 0-.11-.161l.1-.2zm.71.633-.55 1.277.225.1a.508.508 0 0 0 .457 0 .847.847 0 0 0 .346-.394.784.784 0 0 0 .061-.555.645.645 0 0 0-.385-.372l-.154-.056zm-.677 1.538-.627 1.422.242.106a.623.623 0 0 0 .55.039.83.83 0 0 0 .38-.45.772.772 0 0 0 .038-.639.752.752 0 0 0-.407-.405l-.176-.072zm2.822-.877 1.992 1.033a.373.373 0 0 0 .137.05.125.125 0 0 0 .094-.039l.105.05-.44.872-.15-.078a.857.857 0 0 0 0-.5.767.767 0 0 0-.39-.36l-.676-.345-.622 1.228.451.233c.089.06.197.084.303.066a.351.351 0 0 0 .203-.2l.143.078-.423.861-.144-.072a.442.442 0 0 0-.05-.376.25.25 0 0 0-.093-.069l-.55-.272-.649 1.411.974.5c.15.072.32.084.479.033a.854.854 0 0 0 .434-.327l.143.077-.434.861-2.542-1.31.088-.173a.224.224 0 0 0 .198 0 .477.477 0 0 0 .176-.205L66.75 9.88a.47.47 0 0 0 .06-.256.284.284 0 0 0-.11-.172l.077-.183zm1.128 4.943.105-.167a.23.23 0 0 0 .181 0 .342.342 0 0 0 .17-.155l1.101-1.81a1.107 1.107 0 0 1 .733-.59 1.09 1.09 0 0 1 .918.195 1.02 1.02 0 0 1 .511.772 1.4 1.4 0 0 1-.209.916 1.658 1.658 0 0 1-.55.556.95.95 0 0 1-.61.16.866.866 0 0 1-.215-.038.667.667 0 0 1-.182-.078 1.389 1.389 0 0 1-.286-.244.952.952 0 0 1-.17-.334l-.55.861a.336.336 0 0 0-.056.217c.007.07.041.133.094.177l-.1.167-.885-.605zm2.36-2.088-.49.783a.423.423 0 0 0-.054.36c.035.121.113.224.22.29a.339.339 0 0 0 .385 0c.207-.16.378-.362.5-.595.15-.211.257-.451.314-.705a.397.397 0 0 0-.176-.361.42.42 0 0 0-.363-.061.579.579 0 0 0-.336.277m2.839 4.593v.256c-.267.06-.542.074-.814.044-.21-.03-.41-.11-.583-.233a1.395 1.395 0 0 1-.622-1.11c-.015-.511.144-1.011.451-1.417a2.139 2.139 0 0 1 1.144-.916 1.299 1.299 0 0 1 1.189.178c.071.046.138.1.198.16.06.062.118.127.17.195l.11.155c.027.031.059.057.094.078a.049.049 0 0 0 .038 0 .179.179 0 0 0 .077 0h.055l.133.095-.512.738-.132-.094a.976.976 0 0 0 0-.589.85.85 0 0 0-.33-.466l-.077-.04a.324.324 0 0 0-.088-.038.77.77 0 0 0-.688.11c-.32.249-.592.554-.803.9-.255.32-.416.705-.468 1.111a.834.834 0 0 0 .396.733c.137.091.29.154.451.184.204.033.412.033.617 0m2.3-1.81.868.732-.126.15a.415.415 0 0 0-.22 0 .303.303 0 0 0-.154.117l-1.299 1.56 2.24-.444.159-.189a.346.346 0 0 0 .083-.194.29.29 0 0 0-.061-.194l.127-.15.863.733-.12.15a.236.236 0 0 0-.199-.028.341.341 0 0 0-.17.122l-1.777 2.144a.334.334 0 0 0-.094.2.252.252 0 0 0 .066.183l-.126.15-.864-.733.126-.15a.267.267 0 0 0 .182.033.325.325 0 0 0 .187-.127l1.326-1.589-2.24.444-.18.217a.335.335 0 0 0-.094.2c-.003.07.02.137.066.189l-.121.15-.87-.733.127-.15a.23.23 0 0 0 .187.033.406.406 0 0 0 .182-.128l1.782-2.149a.413.413 0 0 0 .094-.2.253.253 0 0 0-.066-.183l.115-.167zm2.97 2.52.126.134c.004.046.02.09.044.128a.828.828 0 0 0 .1.133l1.44 1.505c.034.04.073.073.116.1a.55.55 0 0 0 .143.061l.121.128-.698.666-.11-.116a1.16 1.16 0 0 0 .12-.556.63.63 0 0 0-.17-.41l-.209-.217-2.173 2.116a.305.305 0 0 0-.11.177.319.319 0 0 0 .05.206l-.149.155-.781-.822.137-.133a.366.366 0 0 0 .204.05.324.324 0 0 0 .17-.106l2.201-2.116-.176-.183a.763.763 0 0 0-.435-.239.94.94 0 0 0-.55.123l-.115-.117.704-.666zm2.382 2.66 1.414 1.767c.028.04.064.073.104.1a.115.115 0 0 0 .105 0l.072.089-.754.616-.105-.128a.876.876 0 0 0 .21-.455.731.731 0 0 0-.215-.489l-.479-.594-1.062.866.32.395a.436.436 0 0 0 .247.189.365.365 0 0 0 .27-.1l.099.127-.754.617-.105-.128a.406.406 0 0 0 .138-.233.27.27 0 0 0-.06-.217l-.375-.466-1.21.988.682.828a.624.624 0 0 0 .424.227.813.813 0 0 0 .55-.116l.104.127-.742.606-1.794-2.222.149-.122a.22.22 0 0 0 .181.072.427.427 0 0 0 .248-.116l2.08-1.7a.448.448 0 0 0 .159-.21.285.285 0 0 0 0-.2l.099-.117zm2.102 2.561.104.15a.39.39 0 0 0 0 .139c.023.05.05.099.083.144l1.22 1.666a.437.437 0 0 0 .1.122c.041.03.085.057.132.078l.105.145-.787.555-.094-.133c.106-.152.172-.327.193-.511a.598.598 0 0 0-.116-.428l-.176-.244-2.437 1.788a.26.26 0 0 0-.148.264c.004.036.015.071.033.103l-.16.116-.666-.922.16-.116a.362.362 0 0 0 .192.083.41.41 0 0 0 .188-.083l2.437-1.789-.149-.21a.7.7 0 0 0-.396-.295.932.932 0 0 0-.55.044l-.094-.133.826-.533zm2.75 4.398.55 1.011-.176.09a.395.395 0 0 0-.192-.106.322.322 0 0 0-.182.05l-1.788.96 2.24.44.22-.123a.315.315 0 0 0 .148-.145.302.302 0 0 0 0-.2l.17-.094.55 1.01-.17.09a.242.242 0 0 0-.165-.1.306.306 0 0 0-.209.05l-2.454 1.316a.37.37 0 0 0-.165.15.24.24 0 0 0 0 .194l-.176.09-.55-1.006.17-.094a.238.238 0 0 0 .16.105.343.343 0 0 0 .22-.05l1.816-.972-2.24-.433-.247.133a.342.342 0 0 0-.16.145.263.263 0 0 0 0 .205l-.17.095-.55-1.011.17-.095a.247.247 0 0 0 .165.106c.076.008.151-.01.215-.05l2.46-1.338a.403.403 0 0 0 .153-.15.263.263 0 0 0 0-.195l.187-.078zM87.407 30.695l.412 1.027-2.2 1.794 2.811-.25.385.972-.181.072a.25.25 0 0 0-.154-.116.306.306 0 0 0-.215 0l-2.58 1.05a.358.358 0 0 0-.17.133.246.246 0 0 0-.028.189l-.176.077-.424-1.06.176-.073a.265.265 0 0 0 .149.123.354.354 0 0 0 .22 0l2.59-1.028-3.399.295-.121-.295 2.723-2.221-2.596 1.055a.44.44 0 0 0-.226.166.223.223 0 0 0 0 .206l-.182.078-.28-.711.181-.072a.205.205 0 0 0 .16.139c.092.012.185-.001.27-.04l2.37-1.027a.726.726 0 0 0 .281-.189.2.2 0 0 0 .033-.216l.17-.078zm1.65 4.26.616 2.182a.373.373 0 0 0 .06.133.115.115 0 0 0 .094.04v.11l-.93.273-.043-.161a.86.86 0 0 0 .368-.34.762.762 0 0 0 0-.555l-.209-.738-1.315.383.138.489a.417.417 0 0 0 .16.266.338.338 0 0 0 .28 0l.044.161-.935.267-.044-.156a.435.435 0 0 0 .22-.16.268.268 0 0 0 0-.228l-.16-.556-1.496.433.297 1.061a.638.638 0 0 0 .302.378.814.814 0 0 0 .55.094l.045.161-.92.267-.786-2.777.187-.05a.229.229 0 0 0 .138.139.506.506 0 0 0 .27 0l2.585-.733a.489.489 0 0 0 .231-.133.285.285 0 0 0 .05-.195l.203-.055zm1.221 4.554-.192.038a.234.234 0 0 0-.127-.144.317.317 0 0 0-.22 0l-1.166.233.303 1.566 1.166-.233a.335.335 0 0 0 .192-.094.268.268 0 0 0 .067-.183l.192-.04.215 1.111-.193.04a.24.24 0 0 0-.132-.156.294.294 0 0 0-.209 0l-2.75.555a.394.394 0 0 0-.188.078.38.38 0 0 0-.071.205l-.193.034-.214-1.111.192-.033a.36.36 0 0 0 .143.155c.065.02.134.02.198 0l1.282-.25-.302-1.566-1.277.25a.285.285 0 0 0-.192.083.33.33 0 0 0-.066.2l-.193.04-.215-1.112.188-.038a.416.416 0 0 0 .143.15.3.3 0 0 0 .203 0l2.75-.556a.34.34 0 0 0 .193-.1.296.296 0 0 0 .066-.183l.193-.033.215 1.094zm.55 3.043.1 1.11h-.198a.41.41 0 0 0-.138-.177.31.31 0 0 0-.187 0l-2.014.178 1.871 1.322h.248a.322.322 0 0 0 .198-.078.262.262 0 0 0 .088-.178h.198l.093 1.11h-.192a.256.256 0 0 0-.116-.16.344.344 0 0 0-.209-.04l-2.75.245a.377.377 0 0 0-.21.078.217.217 0 0 0-.077.178h-.198l-.093-1.111h.192a.24.24 0 0 0 .105.155c.066.04.144.056.22.045l2.052-.183-1.898-1.283h-.28a.323.323 0 0 0-.204.072.24.24 0 0 0-.083.183h-.192l-.1-1.11h.193a.245.245 0 0 0 .11.16.328.328 0 0 0 .215.034l2.75-.244a.36.36 0 0 0 .204-.078.248.248 0 0 0 .088-.172l.215-.056zm.391 5.42v1.139h-.198a.378.378 0 0 0-.115-.189.29.29 0 0 0-.187-.044l-2.02-.04 1.745 1.478h.253a.338.338 0 0 0 .203-.056.29.29 0 0 0 .105-.172h.198v1.144h-.193a.284.284 0 0 0-.099-.172.378.378 0 0 0-.209-.06l-2.75-.045a.311.311 0 0 0-.215.05.215.215 0 0 0-.1.166h-.192v-1.144h.198a.25.25 0 0 0 .088.167.312.312 0 0 0 .215.066l2.057.034-1.749-1.472h-.286a.316.316 0 0 0-.21.05.267.267 0 0 0-.098.172h-.198v-1.11h.192a.254.254 0 0 0 .094.172.34.34 0 0 0 .214.06l2.751.05c.073 0 .145-.019.21-.055.054-.04.091-.1.104-.166l.192-.023zm-.143 4.049-.132 1.11-2.778.495 2.58 1.155-.126 1.039h-.199a.278.278 0 0 0-.077-.184.307.307 0 0 0-.197-.077l-2.751-.345a.365.365 0 0 0-.215.034.26.26 0 0 0-.115.155h-.193l.138-1.11h.192c.002.066.027.129.072.177a.35.35 0 0 0 .203.089l2.751.339v-.034l-3.12-1.405.04-.316 3.449-.617-2.779-.344a.42.42 0 0 0-.275.033.199.199 0 0 0-.11.178h-.192l.088-.76h.192a.235.235 0 0 0 .077.205.503.503 0 0 0 .253.094l2.57.317c.11.03.225.03.335 0a.208.208 0 0 0 .138-.172l.181-.056zm-1.243 7.592-.187-.039a.263.263 0 0 0-.066-.189.334.334 0 0 0-.187-.1l-2.718-.555a.403.403 0 0 0-.22 0 .21.21 0 0 0-.126.144l-.193-.039.237-1.11.186.038a.274.274 0 0 0 .067.19.4.4 0 0 0 .187.1l2.932.627.28-1.328-2.932-.627a.355.355 0 0 0-.22 0 .245.245 0 0 0-.126.139l-.188-.04.232-1.11.192.04a.25.25 0 0 0 .055.182c.051.059.122.096.198.106l2.718.555a.354.354 0 0 0 .22 0 .247.247 0 0 0 .126-.144l.193.044-.66 3.116zm-.21.755-.698 2.16a.448.448 0 0 0 0 .145.144.144 0 0 0 .055.083l-.033.111-.919-.305.05-.156c.168.025.34 0 .495-.072a.755.755 0 0 0 .286-.444l.237-.733-1.304-.422-.154.483a.443.443 0 0 0 0 .31.343.343 0 0 0 .225.173l-.05.155-.929-.305.055-.155a.399.399 0 0 0 .27 0 .25.25 0 0 0 .143-.173l.187-.555-1.48-.489-.341 1.05a.65.65 0 0 0 .044.483c.081.167.217.3.385.378l-.05.155-.913-.294.886-2.744.181.062a.247.247 0 0 0 .039.2.489.489 0 0 0 .231.138l2.547.839a.447.447 0 0 0 .264 0 .287.287 0 0 0 .149-.133l.143.055zm-4.615 1.872.182.072a.224.224 0 0 0 .027.178.385.385 0 0 0 .182.144l1.975.76a1.23 1.23 0 0 1 .72.623 1.232 1.232 0 0 1 0 .966 1.018 1.018 0 0 1-.649.656c-.306.1-.637.088-.935-.034a1.77 1.77 0 0 1-.644-.41 1.02 1.02 0 0 1-.27-.556.957.957 0 0 1 .045-.411c.046-.118.109-.229.187-.328a.854.854 0 0 1 .286-.233l-.935-.367a.305.305 0 0 0-.22 0 .235.235 0 0 0-.16.128l-.181-.072.39-1.116zm2.481 1.938-.858-.333a.416.416 0 0 0-.363 0 .487.487 0 0 0-.237.266.353.353 0 0 0 .066.39c.193.174.423.303.672.377.234.113.488.175.748.183a.388.388 0 0 0 .313-.244.431.431 0 0 0 0-.378.618.618 0 0 0-.33-.278m-3.367.761a.409.409 0 0 0 .05.228c.046.093.103.181.17.26l1.65 1.883c.035.04.074.075.116.106l.154.094a.093.093 0 0 0 .11 0 .306.306 0 0 0 .083-.133l.176.095a.846.846 0 0 0-.072.333.677.677 0 0 0 .072.31l-.077.15-3.174-.288a2.76 2.76 0 0 0-.506 0 .547.547 0 0 0-.303.089l-.17-.089.588-1.172.17.089a.201.201 0 0 0 0 .2.343.343 0 0 0 .166.167.268.268 0 0 0 .077 0h.088l.38.038.654-1.305-.231-.255a.425.425 0 0 0-.303-.178.372.372 0 0 0-.258.167l-.176-.09.407-.799.16.1zm1.65 2.527-1.06-1.183-.551 1.06 1.59.156.022-.033zm.122 2.105-.088.16a.441.441 0 0 0-.116.084.844.844 0 0 0-.093.14l-1.002 1.826a.427.427 0 0 0-.066.145.638.638 0 0 0 0 .15l-.088.16-.847-.477.077-.144c.184.034.373.02.55-.04a.584.584 0 0 0 .336-.283l.143-.266-2.635-1.477a.338.338 0 0 0-.198-.056.39.39 0 0 0-.182.106l-.17-.095.55-1 .17.1a.36.36 0 0 0 0 .212.36.36 0 0 0 .149.133l2.64 1.477.122-.228a.716.716 0 0 0 .099-.483.924.924 0 0 0-.27-.477l.077-.145.842.478zm-2.723 4.31a1.409 1.409 0 0 1-1.1.616c-.503.027-1-.124-1.403-.428a2.12 2.12 0 0 1-.864-1.172 1.452 1.452 0 0 1 .198-1.277 1.414 1.414 0 0 1 1.1-.622 2.11 2.11 0 0 1 1.386.422c.422.278.734.697.88 1.183a1.445 1.445 0 0 1-.192 1.278m-.23-.167a.693.693 0 0 0 .049-.778 4.313 4.313 0 0 0-2.08-1.466.661.661 0 0 0-.699.317.687.687 0 0 0-.055.772c.24.36.556.663.925.888.34.265.732.455 1.15.556a.677.677 0 0 0 .71-.311m-4.1-.472.15.127a.252.252 0 0 0-.034.178c.024.078.07.148.132.2l1.617 1.372a1.105 1.105 0 0 1 .492.829 1.12 1.12 0 0 1-.337.903 1.032 1.032 0 0 1-.826.4 1.362 1.362 0 0 1-.874-.333 1.702 1.702 0 0 1-.474-.605 1.03 1.03 0 0 1-.071-.639.912.912 0 0 1 .176-.372c.076-.1.17-.184.275-.25a.94.94 0 0 1 .347-.133l-.76-.622a.306.306 0 0 0-.307-.074.249.249 0 0 0-.089.057l-.148-.128.731-.91zm1.722 2.649-.704-.595a.411.411 0 0 0-.346-.105.5.5 0 0 0-.314.178.34.34 0 0 0-.06.383c.13.22.304.409.511.555.187.181.408.323.65.417a.382.382 0 0 0 .373-.128.417.417 0 0 0 .11-.355.6.6 0 0 0-.22-.378m-3.36-.3a.381.381 0 0 0-.034.228c.014.105.042.208.083.305l.94 2.322a1.108 1.108 0 0 0 .192.278.093.093 0 0 0 .105 0 .27.27 0 0 0 .121-.095l.138.139a.84.84 0 0 0-.176.3.762.762 0 0 0-.033.316l-.121.111-2.91-1.316a5.429 5.429 0 0 0-.468-.183.577.577 0 0 0-.319 0l-.132-.145.935-.91.132.144a.194.194 0 0 0-.066.189c.01.078.044.15.1.205l.065.05.083.045.346.155 1.04-1.016-.137-.311c-.066-.161-.143-.25-.226-.272a.365.365 0 0 0-.303.072l-.132-.139.639-.622.137.15zm.753 2.932-.616-1.477-.886.86 1.452.673.05-.056zm-4.616 5.404-.12-.155a.241.241 0 0 0 .065-.184.39.39 0 0 0-.088-.2l-1.75-2.177a.348.348 0 0 0-.175-.133.246.246 0 0 0-.193.033l-.121-.15.88-.722.121.156a.238.238 0 0 0-.066.183.39.39 0 0 0 .083.2l1.887 2.35 1.045-.856-1.887-2.35a.358.358 0 0 0-.181-.127.252.252 0 0 0-.188.028l-.12-.15.88-.716.12.15a.257.257 0 0 0-.07.172.352.352 0 0 0 .087.21l1.75 2.183a.369.369 0 0 0 .187.128c.062.012.127 0 .181-.033l.127.155-2.454 2.005zm-.627.394-1.887 1.239a.408.408 0 0 0-.11.094.125.125 0 0 0 0 .1l-.094.067-.55-.822.138-.089a.89.89 0 0 0 .429.255.737.737 0 0 0 .5-.166l.639-.417-.748-1.155-.419.278a.421.421 0 0 0-.209.228.348.348 0 0 0 .066.277l-.137.09-.55-.823.137-.089a.402.402 0 0 0 .215.161.246.246 0 0 0 .22-.038l.5-.328-.847-1.316-.913.6a.602.602 0 0 0-.27.4.824.824 0 0 0 .061.555l-.138.088-.517-.81 2.393-1.566.105.16a.221.221 0 0 0-.094.178.47.47 0 0 0 .088.256l1.458 2.271a.47.47 0 0 0 .198.178.273.273 0 0 0 .198 0l.138.144zm-2.817 1.977-.16.09a.379.379 0 0 0-.137 0 .972.972 0 0 0-.154.06l-1.826.983a.501.501 0 0 0-.226.212l-.16.083-.456-.867.148-.077c.135.124.297.216.474.266.146.035.3.015.434-.055l.264-.145-1.42-2.688a.294.294 0 0 0-.131-.155.328.328 0 0 0-.21 0l-.093-.172 1.001-.556.088.172a.27.27 0 0 0-.103.182.273.273 0 0 0 .054.202l1.414 2.688.226-.123a.746.746 0 0 0 .346-.355.931.931 0 0 0 0-.555l.143-.078.484.888zm-4.698-1.982.082.178a.229.229 0 0 0-.104.15c-.01.08.003.16.039.233l.89 1.932a1.116 1.116 0 0 1-.588 1.666.999.999 0 0 1-.913 0 1.36 1.36 0 0 1-.65-.677 1.725 1.725 0 0 1-.175-.75.96.96 0 0 1 .198-.605c.045-.058.095-.112.148-.161a.912.912 0 0 1 .165-.106c.113-.056.234-.093.358-.11a.846.846 0 0 1 .368.032l-.423-.916a.293.293 0 0 0-.149-.166.25.25 0 0 0-.198 0l-.082-.178 1.034-.522zm.451 3.132-.385-.838a.421.421 0 0 0-.27-.245.545.545 0 0 0-.357 0 .348.348 0 0 0-.22.322c.02.263.094.519.22.75.092.243.232.464.412.65a.377.377 0 0 0 .397.044.39.39 0 0 0 .247-.277.559.559 0 0 0-.044-.434m-2.949-1.755a.4.4 0 0 0-.12.2 1.2 1.2 0 0 0-.061.311l-.116 2.5a.71.71 0 0 0 .044.333.087.087 0 0 0 .088.072.328.328 0 0 0 .149-.039l.06.189a.748.748 0 0 0-.28.194.657.657 0 0 0-.165.272l-.154.05-2.09-2.432a2.855 2.855 0 0 0-.347-.367.637.637 0 0 0-.281-.15l-.06-.183 1.226-.428.06.184a.209.209 0 0 0-.137.144.341.341 0 0 0 .039.306l.055.072.247.289 1.37-.473v-.344a.432.432 0 0 0-.093-.344.367.367 0 0 0-.303-.061l-.066-.184.842-.294.093.183zm-.55 2.983.06-1.6-1.1.389 1.04 1.222v-.011zm-3.394 2.121-1.1.261-.044-.194a.26.26 0 0 0 .143-.134.404.404 0 0 0 0-.266l-.59-2.621a.457.457 0 0 0-.115-.245.231.231 0 0 0-.181-.055l-.044-.19 1.1-.26.044.194a.23.23 0 0 0-.143.128.448.448 0 0 0 0 .272l.605 2.638c.016.09.058.173.121.239a.235.235 0 0 0 .182.061l.022.172z"/><path fill-rule="evenodd" clip-rule="evenodd" d="m51.257 49.133-.094-.122-.088-.139-.11-.15-.12-.155-.061-.078-.072-.078-.071-.094-.072-.084-.077-.077-.077-.078-.088-.078-.088-.083-.088-.072-.088-.084-.099-.072-.105-.066-.11-.062-.11-.06-.126-.045-.116-.05-.126-.05-.127-.044-.132-.04-.137-.033H48.292v.556h.599l.116.027.104.04.105.038.099.045.093.05.094.05.088.055.088.056.088.066.077.061.082.061.072.073.072.066.071.073.072.066.06.072.066.073.06.072.056.072.11.144.104.14.094.133.088.122.407-.317zm-6.052.339.088-.122.094-.134.104-.138.11-.145.06-.06.067-.073.06-.072.061-.072.072-.067.071-.072.072-.067.077-.072.071-.061.083-.061.082-.067.088-.056.088-.055.094-.05.093-.05.105-.044.099-.04.11-.038.11-.028h.611v-.622h-.589l-.138.033-.132.04-.126.044-.127.05-.115.05-.116.06-.11.062-.104.06-.105.068-.099.072-.099.077-.088.073-.088.083-.083.078-.082.078-.077.077-.072.084-.071.083-.066.078-.066.077-.116.156-.11.15-.099.139-.082.122.39.372zM60.323 50.672h-.396l-.055.033h-.044l-.044.039-.044.039-.039.038-.038.045-.033.044v.139l.214.117V51.06h.028v-.028H60.708l.028.034v.133l.033.072h.071v-.177l.11.072v-.139l-.033-.05-.033-.039-.044-.044-.038-.04-.05-.038-.05-.033-.054-.034H60.3l.022-.078zM62.326 51.188l.088-.056-.17-.005h-.523l-.182-.006h-.17l-.177-.005h-.176v.26h.176l.176.006h.347l.176.006h.522l.1-.05-.1.05.061.005.039-.055-.187-.15zM63.817 51.15l.104.066V51.099l-.033-.039-.033-.044-.033-.05-.044-.045-.044-.038-.05-.04-.054-.038-.061-.034H63.206v.261H63.58l.033.034.033.033h.027v.1l.033.072h.11v-.122zm-.672-.462h-.473l-.044.033-.044.04-.044.038-.044.045-.044.05-.038.055-.039.05-.038.061.187.156.038-.056.033-.05.033-.039.033-.038.033-.04.022.1H63.14l.005-.405z"/><path fill-rule="evenodd" clip-rule="evenodd" d="m65.252 51.232.105-.083H63.806v.255H64.394l.187.006h.776l.11-.083-.11.083h.077l.033-.083-.215-.095z"/><path fill-rule="evenodd" clip-rule="evenodd" d="m66.826 51.16.11.084v-.067l-.028-.067-.033-.06-.038-.056-.033-.056-.044-.05-.05-.044-.055-.034-.055-.038H65.65l-.055.033-.055.033-.044.044-.044.05-.039.05-.038.056-.039.067v.138l.209.095.028-.056v-.055l.032-.045v-.078h.886l.033.028h.033l.033.04v.271h.077l.16-.283zM76.541 50.921l-.104-.066h-1.865l-.033-.028h-.033v-.028l-.044-.072-.039-.078-.027-.039-.127-.183v-.044l-.033-.04-.038-.044-.044-.038-.05-.034-.055-.039-.066-.033-.066-.033H71.541l-.077.027-.066.034-.066.033-.055.033-.05.04-.044.038-.033.045-.033.038-.028.045v.078l-.032.072-.034.06H69.83l-.088.04-.325.344h-2.426v.261h2.327l.083-.039.319-.344h1.243l.05-.033.043-.034.034-.044.032-.033.028-.04V50.7l.033-.066.033-.073v-.027l.033-.028h.066l.044-.028H74.022v.067l.038.078.044.077v.045l.033.039.033.038.039.045.044.039.055.039.055.033h1.887l.99 1.933.204-.128-.903-1.86zm-7.151.456-.083.039h.05l.033-.04zm.28-.606h-.055l-.033.04.088-.04zm6.877.15-.033-.06h-.072l.105.06z"/><path fill-rule="evenodd" clip-rule="evenodd" d="M77.114 53.01h-2.3l-.027-.106-.034-.128-.032-.15-.039-.166-.017-.084-.022-.094-.027-.094-.033-.09-.033-.094-.038-.094-.04-.094-.049-.1-.055-.09-.06-.094-.066-.089-.072-.088-.077-.084-.088-.083-.093-.078-.1-.072-.11-.067-.126-.06-.126-.056-.143-.05-.143-.04-.165-.032-.171-.028-.181-.017-.182.011-.165.023-.154.027-.143.033-.138.045-.126.05-.121.055-.11.062-.105.066-.093.067-.088.078-.083.077-.077.084-.072.083-.06.089-.06.089-.056.089-.049.094-.05.089-.044.094-.077.183-.071.178-.06.172-.067.156-.033.072-.027.067-.033.066-.039.056-1.1-.011.732-1.672h1.045l.044-.01.033-.018.033-.022.028-.022.027-.033.028-.028.022-.033.044-.078.044-.078.05-.089.065-.083.033-.044.039-.045.044-.044.05-.04.054-.038.06-.033.072-.04.072-.033.088-.027.093-.028.1-.022.11-.017.12-.011.132-.011.143-.006.154.006.144-.006.126.006.121.01.11.012.105.022.093.022.088.028.077.033.072.04.066.038.066.045.055.044.044.044.05.05.038.045.038.05.132.194.105.172.027.034.028.033.033.028.027.028.033.022.039.01.038.012.044.006h1.717l.875 1.655z"/><path d="M75.799 52.976h-.237v13.779h.237V52.976zM69.83 52.976h-.231v13.779h.23V52.976z"/><path d="M75.628 53.148h-5.942v.545h5.942v-.545zM76.75 53.015h-.61v13.85h.61v-13.85z"/><path fill-rule="evenodd" clip-rule="evenodd" d="m70.16 53.92-.116.128v.45h.237v-.317h1.414v.317h.23v-.317h1.558v.334h.236v-.334h1.376v.317h.236v-.555h-.121l-5.05-.023zm0 0h-.116v.128l.116-.128zM70.969 52.67v-.06l.093-.283v-.073l.028-.078v-.072l.033-.077.038-.073.039-.072.044-.078.044-.072.05-.066.049-.067.055-.067.06-.06.06-.062.067-.055.077-.05.071-.045.088-.044.083-.04.093-.032H73.175l.093.033.088.039.077.039.077.05.072.044.06.056.066.055.055.061.05.061.05.067.049.067.038.066.039.078.038.067.028.072v.078l.033.072v.144l.038.15.033.133v.09l-3.19.005zm3.609.1v-.249l-.04-.145-.038-.155-.027-.078v-.083l-.028-.078-.033-.083-.143-.084-.038-.083-.044-.078-.044-.083-.055-.078-.055-.077-.066-.072-.066-.067-.072-.072-.077-.061-.082-.062-.088-.05-.1-.05-.098-.044-.105-.039-.11-.028H72.135l-.116.034-.104.039-.105.044-.093.05-.088.056-.088.06-.083.067-.071.067-.066.072-.066.078-.06.078-.056.077-.05.084-.043.077-.045.084-.038.089-.038.077-.034.084-.032.083v.078l-.088.288-.067.234.105.172h3.658l.11-.172zm-3.775.162-.104-.172-.06.172h.165zm3.775-.161-.116.16h.148l-.032-.16zM57.694 51.538h2.101v-.072l.033-.078V51.243l.033-.033H60.56l.033.033h.033V51.517h1.689V51.31l.027-.033.033-.034.033-.033h.033l.039-.028h1.034v.034l.028.039V51.477h1.947v-.234l.033-.033H66.166v.261h2.905l-.776 1.76-10.552-.033h.039l.038-.038.044-.045.033-.05.039-.055v-.067l.033-.067V52.071l-.033-.05.38-.039-.04-.05-.043-.044-.05-.045-.05-.044-.054-.039-.055-.044-.06-.034-.061-.039-.066-.038-.072-.034-.071-.033zm7.9 1.333h1.04v-.717l-.034-.122-.033-.116-.038-.112-.044-.1V51.5h-.523v.244l-.038.1v1.05l-.33-.022zm-2.977 0h1.046v-.583l-.033-.128-.033-.122-.033-.117-.039-.111-.044-.1V51.505h-.165v.244l-.038.1-.033.11v.123l-.529.122v.695l-.099-.028zm-2.75 0h1.045v-.583l-.033-.123-.033-.122-.033-.122-.044-.105-.039-.1V51.477h-.055V51.688l-.033.105-.033.106-.033.122v.716l-.71.134z"/><path d="M69.004 52.538h-.401v14.295h.401V52.538z"/><path d="M69.698 53.52h-.853v.261h.853v-.26zM69.709 54.048h-.864v.256h.864v-.256z"/><path fill-rule="evenodd" clip-rule="evenodd" d="M53.43 50.46h2.817l1.777 1.916h-.837l-.126-.044-.116-.05-.066-.022-.066-.017-.038-.005-.039-.006h-.044l-.044-.005-.104.005-.077.011-.072.017-.066.022-.11.045-.12.038-1.266-.005-1.403-1.9zM56.632 53.048h.06l.05-.005.05-.006.049-.01.05-.017.043-.012.039-.022.038-.022.039-.022.027-.028.028-.022.022-.028.016-.033.017-.028.005-.033.006-.034-.006-.033-.005-.033-.017-.034-.016-.027-.022-.028-.028-.028-.027-.028-.039-.022-.038-.022-.039-.017-.044-.017-.05-.016-.049-.006-.05-.01-.049-.006h-.11l-.055.005-.05.011-.049.006-.044.017-.044.016-.044.017-.038.022-.034.022-.027.028-.028.028-.021.028-.017.027-.017.034-.005.033-.006.033.006.034.005.033.017.028.017.033.021.028.028.022.027.028.034.022.038.022.044.022.044.012.044.016.05.011.05.006.054.005h.05z"/><path d="M58.013 52.565h-.71v.378h.71v-.378z"/><path d="M58.013 52.565h-.71v.378h.71v-.378zM68.636 53.493H58.348v.622h10.288v-.622z"/><path d="M58.854 53.226h-6.717v.505h6.717v-.505z"/><path d="M55.85 52.37h-.731v14.424h.732V52.37zM58.084 53.415h-.732v13.373h.732V53.415z"/><path fill-rule="evenodd" clip-rule="evenodd" d="m48.072 51.754.148.012.154.01.149.023.154.022.148.028.149.028.148.033.149.044.148.04.143.05.149.055.143.05.138.055.143.061.137.067.132.072.132.067.132.078.127.077.126.073.121.077.116.09.12.083.11.083.105.089.11.088.1.09.093.094.093.089.089.094.088.094.077.09.247-.245-.088-.1-.088-.106-.093-.1-.1-.1-.104-.1-.11-.094-.11-.089-.116-.094-.115-.095-.127-.088-.12-.084-.133-.089-.132-.077-.132-.078-.137-.078-.138-.078-.143-.072-.143-.066-.148-.062-.149-.06-.148-.062-.155-.055-.154-.05-.154-.045-.154-.044-.16-.039-.159-.033-.16-.028-.153-.022-.165-.017-.16-.017-.16-.005-.01.366z"/><path fill-rule="evenodd" clip-rule="evenodd" d="m48.088 51.082.148.011.149.012.16.016.148.023.154.027.149.028.148.039.154.039.143.044.149.05.143.045.143.06.143.056.137.061.138.067.138.067.131.072.133.072.126.078.127.078.12.077.122.084.115.083.116.089.104.089.11.089.105.094.093.089.094.094.093.095.083.094.083.1.12-.128-.082-.1-.088-.1-.1-.094-.093-.1-.099-.095-.104-.094-.11-.094-.116-.09-.11-.088-.126-.083-.121-.09-.127-.083-.126-.077-.132-.078-.132-.078-.138-.078-.143-.06-.138-.073-.143-.06-.143-.062-.148-.056-.149-.055-.154-.05-.148-.044-.154-.04-.154-.033-.16-.033-.154-.028-.154-.022-.16-.017-.154-.016-.16-.006v.183zM50.85 49.45h.319l.803 1.3.192.044.188.044.093.028.088.033.088.033.083.04.088.044.077.05.082.055.072.067.038.028.033.039.033.038.033.045.033.044.033.045.028.05.033.05.016.044.022.05.017.056.01.05.006.06.006.062v.06l-.006.062-.005.067-.011.06-.017.067-.022.067-.022.067-.027.06-.039.062-.038.061 1.71.405-.203-.316-2.31-3.466h-1.189l-.335.345zM50.102 50.366l-.116.133v.461h.237v-.333h.39v.467h-.187v.26h.61v-.26h-.203v-.728h-.731zm0 0h-.116v.133l.116-.133z"/><path fill-rule="evenodd" clip-rule="evenodd" d="m51.95 52.338.05.05.049.05.06.044.055.039.066.033.067.028.033.011.032.011.039.006.033.005.039.006h.038l.039-.006.038-.005.039-.006.044-.011.038-.017.044-.016.039-.011.044-.028.044-.022.044-.034.044-.033.05-.039.043-.039.044-.044.022-.04.022-.038.017-.044.016-.045.017-.055.01-.05.006-.061.006-.056v-.067l-.006-.06-.01-.067-.023-.061-.022-.073-.033-.066-.044-.067-.05-.072-.049-.044-.05-.04-.043-.038-.05-.034-.093-.06-.088-.05-.083-.045-.088-.033-.077-.023-.077-.022-.148-.033-.138-.028-.06-.017-.061-.022-.055-.022-.055-.033-.1-.156-.098-.15-.094-.144-.099-.156-.099-.15-.093-.15-.1-.144-.098-.155h-1.508v.483h1.299l.016.005.022.006.022.01.022.012.033.028.039.039.038.044.033.05.033.056.033.06.06.128.067.128.027.067.033.06.033.05.033.056.033.034.033.028.044.033.055.028.05.033.06.028.066.027.066.023.286.116.297.117.067.033.066.034.06.033.06.039.056.033.05.044.038.04.038.038.028.045.022.05.01.05v.055l-.01.056-.017.055-.027.061-.044.061-.011.023-.011.016-.022.017-.022.011-.044.022-.055.023-.06.016-.067.011h-.06l-.061-.005-.027-.011-.028-.006-.027-.011-.023-.011-.022-.017-.022-.017-.01-.016-.011-.022-.012-.023-.005-.027-.005-.028.005-.033.005-.04.011-.033.023-.044.021-.039.023-.022.022-.017.021-.005h.017l.017.005.016.006.017.01.016.017.027.028.034.034.016.016.017.011.016.006.022.005.022-.005h.022l.022-.017.017-.016.01-.017.012-.022.005-.023.006-.027v-.028l-.006-.028-.01-.028-.023-.033-.022-.028-.033-.033-.038-.028-.05-.027-.05-.028-.049-.023-.05-.01-.049-.012H52.154l-.039.011-.038.006-.034.017-.027.022-.033.017-.022.027-.022.028-.022.033-.017.034-.016.027-.011.04-.011.038-.011.04-.006.038-.005.044V52.038l.005.033.006.044.005.034.011.039.011.033.017.033.016.028.017.033.022.023zM52.209 53.815l.021.039.034.039.032.038.034.034.038.039.038.033.04.028.043.028.039.022.044.022.05.022.043.017.05.01.044.007.044.01h.093l.044-.005.05-.005.044-.017.05-.017.043-.017.05-.016.05-.028.043-.028.039-.028.044-.033.033-.033.033-.033.033-.045.022-.039.022-.044v14.7h-1.288v-14.7z"/><path d="M50.283 54.909h-.556v6.081h.556V54.91zM50.486 53.387h-.935v.556h.935v-.556z"/><path fill-rule="evenodd" clip-rule="evenodd" d="m49.507 60.674-.01-.028-.067-.1-.088-.15-.055-.089-.06-.089-.066-.094-.077-.09-.044-.044-.044-.044-.05-.044-.055-.045-.05-.039-.06-.038-.06-.034-.06-.028-.067-.033-.071-.028-.066-.022-.078-.017-.082-.016-.077-.006-.088-.005-.088-.006v.261h.077l.077.006.066.005.066.017.066.011.06.022.056.022.055.023.055.027.05.028.043.034.044.033.044.033.039.033.038.04.039.033.066.083.06.083.055.084.05.072.082.155.077.117-.01-.022.208-.111-.005-.011-.006-.017.011.028z"/><path fill-rule="evenodd" clip-rule="evenodd" d="m50.619 62.056.01-.094v-.094l-.01-.084-.011-.083-.017-.072-.027-.067-.028-.066-.033-.062-.038-.055-.044-.05-.044-.039-.044-.039-.05-.039-.05-.033-.049-.028-.05-.028-.197-.094-.188-.1-.038-.022-.033-.028-.039-.033-.033-.028-.027-.033-.028-.034-.022-.038-.022-.04-.209.112.033.06.033.062.044.055.039.045.05.044.049.045.044.033.055.033.198.106.192.089.045.028.038.022.039.027.038.028.033.028.033.028.028.033.022.033.022.04.016.038.017.045.016.055.006.056.005.06v.073l-.005.078.23.027zM49.282 60.923l-.011-.022-.055-.083-.066-.128-.05-.072-.05-.072-.06-.078-.06-.078-.039-.038-.044-.04-.038-.033-.044-.033-.044-.033-.05-.034-.05-.028-.054-.033-.055-.022-.055-.022-.066-.017-.06-.017-.067-.01-.066-.012-.077-.005h-.071v.26h.126l.055.012.055.005.05.017.05.017.049.016.044.017.038.028.039.017.038.027.039.028.033.028.033.028.033.033.027.028.055.066.055.067.044.066.039.062.071.122.06.105-.01-.027.209-.111v-.012l-.011-.01.01.021z"/><path fill-rule="evenodd" clip-rule="evenodd" d="m50.206 62.073.005-.078v-.077l-.01-.073-.011-.066-.011-.061-.023-.061-.021-.056-.033-.05-.033-.05-.034-.039-.038-.039-.038-.033-.045-.028-.038-.028-.044-.022-.044-.027-.16-.078-.154-.084-.027-.01-.028-.028-.033-.023-.022-.022-.022-.028-.022-.027-.022-.028-.016-.034-.21.112.028.06.033.045.033.05.039.039.038.039.039.033.044.028.044.028.16.089.164.077.033.017.033.022.033.017.028.028.028.016.022.028.021.022.017.028.017.028.016.033.017.033.005.04.005.044.006.055v.056l-.006.06.237.023z"/><path fill-rule="evenodd" clip-rule="evenodd" d="M51.12 62.012h-1.745v.4l.16.144.104.2h1.48v-.744z"/><path fill-rule="evenodd" clip-rule="evenodd" d="M51.12 62.012h-1.745v.4l.264.344h1.48v-.744zM55.119 66.921l1.804.011 1.376.012 1.342.005 1.31.006h1.287l1.265-.006 1.26-.005 1.249-.006 1.249-.005 1.26-.012 1.265-.005 1.287-.011 1.31-.006 1.342-.005 1.375-.006h1.42v-.26l-1.42.005h-1.375l-1.343.01h-1.309l-1.287.012-1.271.005-1.254.011-1.25.006-1.254.011H59.641l-1.342-.005-1.376-.012-1.804-.01v.26z"/><path fill-rule="evenodd" clip-rule="evenodd" d="m53.496 68.604 2.035-1.683h-.412l-1.623 1.35v.333zM48.044 68.554l5.452.05v-.255l-5.447-.056-.005.261zM55.834 68.449l-.286.1 1.425.016 1.375.011 1.343.006 1.309.006h1.287l1.271-.006 1.254-.006h1.255l1.249-.016 1.254-.006 1.27-.01h1.283l1.309-.012 1.342-.006h2.795v-1.05H73.775l-1.343.012-1.31.005-1.287.012-1.265.005-1.26.011h-1.249l-1.249.011-1.254.006H59.69l-1.342-.006-1.37-.01-1.419-.017-.286.105.286-.105h-.16l-.126.105.561.839z"/><path fill-rule="evenodd" clip-rule="evenodd" d="m53.485 70.243.291-.1 2.058-1.694-.561-.839-2.063 1.688.275.945.16.005.131-.105-.291.1z"/><path fill-rule="evenodd" clip-rule="evenodd" d="m48.039 70.187 5.446.056.011-1.045-5.446-.06-.011 1.049zM49.953 68.482h.704v-5.698h-.704v.727h.374v.245h-.374v.3h.374v.244h-.374v.294h.374v.245h-.374v.3h.374v.244h-.374v.294h.374v.245h-.374v.3h.374v.244h-.374v.3h.374v.244h-.374v.295h.374v.244h-.374v.3h.374v.244h-.374v.389zM44.842 48.833l.094-.116.104-.134.11-.139.127-.127.06-.072.072-.078.077-.072.071-.078.077-.072.083-.073.082-.072.088-.072.094-.067.093-.06.094-.067.105-.061.104-.062.11-.055.11-.05.121-.05.116-.039.126-.039.127-.033H49l.127.033.126.04.121.038.116.05.11.05.11.055.104.062.105.06.093.067.1.061.087.067.089.072.082.072.083.073.077.072.077.078.071.072.072.078.06.072.127.15.115.139.105.133.088.116h1.243l.875 1.378.099.055h2.866l.99 1.028.083.033h2.333l.032-.072-.104-.189h-2.2l-.996-1.027-.077-.034h-2.856l-.885-1.394-.1-.055h-1.193l-.105-.14-.12-.144-.127-.15-.072-.077-.066-.078-.082-.083-.077-.078-.094-.106-.093-.077-.088-.073-.088-.077-.1-.072-.104-.073-.077-.066-.11-.067-.116-.061-.11-.061-.126-.05-.121-.056-.132-.044-.138-.039-.132-.039H47.043l-.138.04-.137.038-.127.044-.126.056-.121.05-.116.061-.115.061-.105.067-.105.066-.104.073-.094.072-.093.078-.088.072-.088.077-.083.078-.077.078-.077.083-.071.078-.072.078-.126.15-.121.144-.105.139h-1.216l-.093.056-.88 1.399h-2.85l-.077.033-1.002 1.056h-2.2l-.11.188.033.073H38.74l.033-.034.996-1.027H42.69l.039-.056.874-1.394h1.244l-.006-.01zm12.56 2.5-.083-.034.033.033h.05zm-3.94-1.045-.098-.055.038.055h.06zm2.994-.238-.033-.034h-.044l.077.034zm-16.818 0 .077-.034h-.044l-.033.034zm3.823-1.417.094-.055h-.094v.055zm9.204 0-.038-.055h-.06l.098.055z"/><path fill-rule="evenodd" clip-rule="evenodd" d="M35.76 50.927H36.16l.033.028V51.06l.214-.116v-.05l.078.2v-.045l-.034-.044-.038-.045-.033-.039-.072-.055-.044-.039h-.05l-.054-.033H35.347l-.055.033-.055.033-.05.04-.038.038-.039.044-.038.04-.033.05v.138l.104-.072v.261h.072l.033-.072v-.167H35.649l.11-.233z"/><path fill-rule="evenodd" clip-rule="evenodd" d="m33.575 51.338.1.05h.522l.176-.006h.346l.182-.005h.17v-.261h-.175l-.177.005h-.17l-.176.006h-.528l-.17.005.093.056-.193.15.039.055.06-.005-.099-.05zM32.948 50.95H33.372l.033.032.033.04.033.038.038.04.033.05.033.055.193-.156-.044-.061-.039.105-.044-.055-.038-.05-.044-.067-.044-.038-.044-.04-.05-.033H32.585l-.055.034-.06.038-.045.04-.05.038-.038.045-.038.05-.033.044v.156l.104-.067v.255h.072l.033-.072v-.1h.027l.033-.033.033-.033h.375l.005-.256z"/><path fill-rule="evenodd" clip-rule="evenodd" d="m30.627 51.327.104.083h.776l.187-.005H32.282v-.256H30.731l.11.083-.215.095.028.083h.077l-.105-.083z"/><path fill-rule="evenodd" clip-rule="evenodd" d="m29.262 51.421.11-.083V51.188l.028-.039v-.039h.5v-.26h-.505l-.056.038-.055.033-.044.045-.044.05-.038.055-.039.056-.033.061-.027.067v.066l.11-.083v.261h.077l.033-.083-.017.005zm.76-.494H30.466v.039l.027.039v.1l.028.055.215-.094.071.089v-.061l-.038-.062-.034-.06-.044-.05-.044-.05-.043-.045-.05-.033-.055-.034H30.049l-.028.167z"/><path fill-rule="evenodd" clip-rule="evenodd" d="m26.407 51.032.319.345.082.039h2.476v-.261h-2.448l-.325-.345-.104-.039h-1.133v-.06l-.204-.173v-.078l-.027-.044v-.039l-.039-.044-.044-.04-.05-.038-.055-.033-.06-.034-.072-.033-.071-.028H22.237l-.066.033-.066.034-.055.033-.044.034-.044.038-.044.045-.033.039V50.466l-.028.039-.038.078-.039.072v.028h-.027l-.033.027H19.65l-.104.067-1.018 2 .198.127.99-1.81h1.871l.055-.034.05-.039.043-.038.039-.045.038-.039.028-.039v-.044l.044-.078.044-.078v-.066h2.541l.044.027H24.586l.027.028v.028l.033.072.033.067V50.9l.033.032.033.045.044.033.05.034H25.307l1.1-.011zm.319.345.038.039h.044l-.082-.04zm-7.152-.456.105-.066h-.072l-.033.066zm6.833-.15.082.04-.033-.04h-.05z"/><path fill-rule="evenodd" clip-rule="evenodd" d="M18.974 53.01h2.3l.033-.106.027-.128.034-.15.038-.166.017-.084.027-.094.022-.094.033-.09.033-.094.038-.094.045-.094.044-.1.055-.09.06-.094.066-.089.072-.088.077-.084.088-.083.093-.078.105-.072.11-.067.12-.06.127-.056.143-.05.149-.04.16-.032.17-.028.187-.017.176.011.165.023.154.027.143.033.138.045.132.05.115.055.11.062.105.066.093.067.088.078.083.077.077.084.072.083.06.089.06.089.055.089.055.094.044.089.044.094.078.183.071.178.066.172.06.156.034.072.027.067.039.066.033.056 1.105-.011-.737-1.672h-1.045l-.044-.01-.033-.018-.033-.022-.028-.022-.027-.033-.022-.028-.022-.033-.05-.078-.044-.078-.05-.089-.06-.083-.033-.044-.044-.045-.044-.044-.05-.04-.054-.038-.06-.033-.072-.04-.072-.033-.088-.027-.088-.028-.099-.022-.115-.017-.121-.011-.132-.011-.143-.006-.154.006-.143-.006-.127.006-.121.01-.11.012-.1.022-.093.022-.088.028-.077.033-.077.04-.066.038-.06.045-.055.044-.05.044-.05.05-.038.045-.038.05-.127.194-.11.172-.022.034-.033.033-.027.028-.033.028-.033.022-.033.01-.044.012-.044.006h-1.717l-.875 1.655z"/><path d="M19.948 53.015h-.61v13.862h.61V53.015z"/><path fill-rule="evenodd" clip-rule="evenodd" d="M20.526 53.693h5.732v13.056h.237V54.304h.748v-.256h-.748v-.267h.748v-.26h-.748v-.545h-.237v.172h-5.732v-.172h-.237V66.75h.237V53.693z"/><path d="M45.585 63.873h-.677v.26h.677v-.26z"/><path fill-rule="evenodd" clip-rule="evenodd" d="m43.764 64.689.616-.622-.16-.189-.616.622.16.189zM21.521 52.76l.116.16h3.67l.11-.172-.067-.233-.093-.288v-.078l-.033-.084-.033-.083-.038-.078-.034-.089-.043-.083-.089-.083-.05-.083-.054-.078-.06-.078-.067-.061-.066-.072-.071-.067-.083-.066-.082-.05-.088-.056-.1-.05-.104-.044-.104-.04-.116-.033H22.908l-.11.028-.11.039-.1.044-.093.05-.088.05-.088.062-.077.06-.071.073-.066.066-.06.073-.061.077-.05.078-.05.084-.038.077-.044.084-.038.083-.033.083v.078l-.028.083v.078l-.044.155-.033.145v.133l-.105.106zm1.904-1.666h.551l.093.033.088.039.082.044.077.045.072.05.066.06.06.056.06.061.056.067.055.067.044.066.044.072.044.078.038.072.039.073.033.077v.072l.033.078v.072l.088.284v.06h-3.262v-.088l.033-.133.044-.15V52.032l.027-.078.033-.072.033-.066.039-.078.044-.067.132-.022.05-.067.049-.06.055-.062.066-.056.06-.055.072-.044.077-.05.082-.04.083-.038.093-.033h.44l.127-.05zm-1.904 1.666-.033.16h.15l-.117-.16zm3.785.172h.166l-.056-.172-.11.172z"/><path d="M27.49 52.538h-.4v14.295h.4V52.538z"/><path fill-rule="evenodd" clip-rule="evenodd" d="M42.663 50.46h-2.822l-1.771 1.916h.83l.127-.044.116-.05.066-.022.071-.017.033-.005.044-.006h.044l.044-.005.1.005.082.011.066.017.066.022.11.045.126.038 1.26-.005 1.408-1.9zM39.456 53.048h.05l.055-.005.05-.006.049-.01.044-.017.044-.012.044-.022.033-.022.038-.022.033-.028.022-.022.022-.028.022-.033.011-.028.011-.033v-.067l-.01-.033-.012-.034-.022-.027-.022-.028-.022-.028-.033-.028-.038-.022-.033-.022-.044-.017-.044-.017-.044-.016-.05-.006-.05-.01-.054-.006H39.4l-.055.005-.05.011-.049.006-.05.017-.043.016-.039.017-.038.022-.033.022-.033.028-.022.028-.022.028-.022.027-.011.034-.011.033v.067l.01.033.012.028.022.033.022.028.022.022.033.028.033.022.038.022.039.022.044.012.05.016.049.011.05.006.054.005h.055z"/><path d="M38.79 52.565h-.71v.378h.71v-.378zM37.745 53.493H27.458v.622h10.287v-.622z"/><path d="M43.95 53.226h-6.716v.505h6.717v-.505z"/><path d="M40.975 52.37h-.732v14.551h.732v-14.55zM38.741 53.415h-.732v13.373h.732V53.415z"/><path fill-rule="evenodd" clip-rule="evenodd" d="m48.005 51.388-.154.005-.165.017-.16.017-.159.022-.16.028-.159.033-.16.039-.154.044-.154.045-.154.05-.154.055-.148.061-.149.061-.143.062-.143.066-.148.072-.138.078-.137.078-.132.078-.132.077-.132.09-.121.083-.127.088-.115.095-.116.094-.11.095-.105.089-.104.1-.1.1-.098.1-.088.105-.088.1.253.244.077-.089.082-.094.088-.094.094-.09.099-.094.099-.089.104-.088.105-.09.116-.082.115-.084.121-.083.121-.083.121-.073.127-.077.132-.078.137-.067.132-.072.132-.067.143-.06.143-.056.143-.05.144-.056.148-.05.149-.039.143-.044.148-.033.154-.028.149-.028.148-.022.149-.022.154-.011.148-.012-.01-.366z"/><path fill-rule="evenodd" clip-rule="evenodd" d="m48 50.9-.16.005-.154.016-.16.017-.153.022-.16.028-.154.033-.148.034-.16.038-.148.045-.154.05-.144.055-.148.056-.143.061-.149.061-.137.072-.143.061-.132.078-.132.078-.138.078-.126.078-.127.083-.121.089-.121.083-.116.089-.115.089-.105.094-.11.094-.099.095-.093.1-.1.094-.087.1-.083.1.127.128.077-.1.088-.094.088-.095.093-.094.1-.09.104-.093.105-.09.104-.088.116-.09.115-.082.121-.084.121-.077.127-.078.132-.078.126-.072.132-.072.138-.067.137-.067.138-.06.143-.056.143-.061.149-.045.143-.05.148-.044.149-.04.148-.038.154-.028.149-.027.154-.023.154-.016.148-.011.154-.012L48 50.9zM45.238 49.45h-.319l-.803 1.3-.187.044-.193.044-.088.028-.088.033-.088.033-.088.04-.082.044-.083.05-.077.055-.077.067-.033.028-.038.039-.033.038-.033.045-.033.044-.028.045-.033.05-.027.05-.022.044-.022.05-.011.056-.011.05-.011.06v.184l.01.067.012.06.01.067.023.067.022.067.033.06.038.062.033.061-1.705.405.203-.316 2.306-3.466h1.188l.335.345zM45.865 50.627v.333h.237v-.46l-.115-.134h-.611l-.121.133v.595h-.182v.26h.589v-.26h-.187v-.467h.39zm-.61-.128.12-.133h-.12v.133zm.731-.133.116.133v-.133h-.115z"/><path fill-rule="evenodd" clip-rule="evenodd" d="m44.138 52.338-.044.05-.055.05-.055.044-.06.039-.061.033-.066.028-.033.011-.039.011-.033.006-.038.005-.039.006h-.033l-.044-.006-.033-.005-.044-.006-.038-.011-.044-.017-.044-.016-.039-.011-.044-.028-.044-.022-.044-.034-.044-.033-.044-.039-.05-.039-.043-.044-.022-.04-.017-.038-.022-.044-.016-.045-.017-.055-.01-.05-.006-.061-.006-.056v-.067l.011-.06.006-.067.022-.061.027-.073.033-.066.039-.067.05-.072.054-.044.044-.04.05-.038.044-.034.093-.06.088-.05.083-.045.088-.033.082-.023.077-.022.143-.033.138-.028.06-.017.067-.022.055-.022.055-.033.093-.156.1-.15.098-.144.094-.156.099-.15.099-.15.093-.144.1-.155h1.512v.483H45.26l-.016.005-.022.006-.017.01-.022.012-.038.028-.039.039-.033.044-.038.05-.028.056-.038.06-.06.128-.061.128-.033.067-.033.06-.033.05-.033.056-.028.034-.038.028-.044.033-.05.028-.055.033-.055.028-.066.027-.071.023-.286.116-.298.117-.066.033-.066.034-.06.033-.06.039-.056.033-.05.044-.038.04-.038.038-.022.045-.022.05-.011.05v.055l.005.056.017.055.033.061.038.061.011.023.017.016.016.017.022.011.044.022.055.023.066.016.06.011h.061l.06-.005.028-.011.028-.006.027-.011.022-.011.022-.017.023-.017.016-.016.011-.022.011-.023v-.027l.005-.028-.005-.033-.006-.04-.01-.033-.017-.044-.022-.039-.028-.022-.016-.017-.022-.005h-.022l-.017.005-.016.006-.017.01-.01.017-.034.028-.033.034-.01.016-.023.011-.016.006-.017.005-.027-.005h-.022l-.017-.017-.022-.016-.01-.017-.017-.022v-.023l-.006-.027v-.028l.006-.028.016-.028.017-.033.027-.028.028-.033.038-.028.05-.027.05-.028.054-.023.05-.01.044-.012h.088l.033.011.038.006.033.017.028.022.033.017.028.027.021.028.022.033.011.034.023.027.01.04.011.038.006.04.005.038.006.044V52.038l-.005.033v.044l-.012.034-.01.039-.011.033-.011.033-.023.028-.016.033-.022.023zM43.885 53.815l-.028.039-.027.039-.033.038-.033.034-.039.039-.044.033-.038.028-.039.028-.044.022-.05.022-.038.022-.05.017-.043.01-.044.007-.05.01h-.093l-.044-.005-.05-.005-.044-.017-.044-.017-.05-.017-.049-.016-.044-.028-.05-.028-.038-.028-.038-.033-.039-.033-.033-.033-.027-.045-.023-.039-.027-.044v14.7h1.293v-14.7z"/><path d="M46.366 54.909h-.556v6.081h.556V54.91zM46.537 53.387H45.6v.556h.936v-.556z"/><path fill-rule="evenodd" clip-rule="evenodd" d="m46.795 60.785-.016.022.077-.117.088-.15.044-.077.055-.084.066-.083.066-.078.038-.039.033-.039.044-.038.044-.028.044-.033.044-.034.05-.028.055-.027.055-.023.055-.022.06-.022.061-.011.072-.017.066-.005.076-.006h.078v-.26l-.088.005-.089.005-.076.006-.083.016-.077.017-.066.022-.072.028-.066.033-.066.028-.06.033-.055.04-.055.038-.05.045-.05.044-.043.044-.044.045-.077.089-.066.094-.066.09-.055.088-.083.15-.066.1-.01.028.01-.028-.01.017v.01l.208.112z"/><path fill-rule="evenodd" clip-rule="evenodd" d="m45.7 62.029-.005-.078.005-.072v-.061l.011-.056.011-.055.017-.045.016-.039.022-.039.023-.033.033-.033.027-.028.033-.028.038-.028.039-.027.044-.022.038-.028.193-.09.198-.105.055-.039.05-.027.044-.045.05-.044.043-.045.039-.055.038-.061.033-.061-.209-.111-.022.038-.027.04-.028.033-.027.033-.033.028-.033.033-.039.028-.038.022-.188.1-.198.094-.049.028-.05.028-.049.033-.05.04-.044.038-.044.039-.044.05-.038.055-.033.062-.028.066-.027.067-.017.072-.01.083-.006.084v.094l.005.094.231-.027zM47.015 61.035l-.01.027.06-.1.077-.122.038-.067.044-.066.055-.067.055-.066.033-.028.033-.033.033-.028.033-.028.039-.028.038-.028.039-.022.044-.022.044-.022.044-.017.055-.011.05-.017.054-.005.055-.011h.121l.006-.261h-.072l-.077.005-.066.011-.066.011-.066.017-.06.017-.055.022-.06.022-.05.028-.055.033-.05.028-.044.039-.044.028-.044.039-.038.038-.039.04-.066.072-.06.077-.05.078-.05.072-.07.128-.05.083-.017.022.017-.022-.017.011v.011l.21.112z"/><path fill-rule="evenodd" clip-rule="evenodd" d="m46.118 62.05-.005-.06v-.056l.005-.055.006-.045.011-.039.011-.033.011-.033.022-.028.017-.028.022-.022.022-.028.027-.016.028-.028.033-.017.033-.022.033-.017.165-.077.16-.09.043-.027.044-.028.039-.033.038-.039.039-.039.033-.05.033-.044.027-.061-.209-.111-.016.033-.017.028-.022.027-.022.028-.027.022-.028.023-.033.027-.022.017-.16.078-.159.078-.044.027-.044.023-.044.027-.033.028-.044.033-.033.04-.038.038-.034.05-.032.05-.023.056-.021.06-.011.062-.011.066-.011.073v.077l.005.078.236-.022z"/><path fill-rule="evenodd" clip-rule="evenodd" d="M44.974 62.012h1.744v.4l-.132.155-.148.19h-1.464v-.745z"/><path fill-rule="evenodd" clip-rule="evenodd" d="M44.974 62.012h1.744v.4l-.132.155-.148.19h-1.464v-.745zM40.656 66.683l-.066-.028-1.425.016-1.376.012-1.337.005h-5.121l-1.255-.01-1.248-.007-1.255-.01-1.27-.006-1.288-.011h-1.31l-1.342-.011h-1.375l-1.42-.006v.261h1.42l1.375.006 1.343.005 1.309.006 1.287.01 1.266.006 1.26.011 1.248.006 1.25.006 1.259.005h3.868l1.336-.005 1.376-.011 1.425-.012-.072-.033.138-.205-.033-.028h-.033l.066.028z"/><path fill-rule="evenodd" clip-rule="evenodd" d="m42.719 68.376-1.75-1.455-.45-.033 2.1 1.716.1-.228z"/><path fill-rule="evenodd" clip-rule="evenodd" d="m48.044 68.293-5.441.056v.255l5.44-.05v-.26zM40.815 67.61l-.28-.105-1.425.016-1.37.011-1.337.006H32.53l-1.254-.006-1.25-.01h-1.248l-1.254-.012-1.271-.005-1.282-.011-1.31-.006-1.347-.011h-2.795v1.05h1.414l1.38.005h1.343l1.31.011h1.281l1.271.011 1.26.006 1.249.016h1.249l1.254.006 1.27.006h1.288l1.315-.006 1.342-.006 1.376-.01 1.419-.017-.286-.1.561-.839-.127-.105h-.154l.281.105z"/><path fill-rule="evenodd" clip-rule="evenodd" d="m42.603 70.243.275-.945-2.063-1.688-.561.839 2.063 1.694.286.1-.286-.1.127.105.159-.005z"/><path fill-rule="evenodd" clip-rule="evenodd" d="m48.033 69.137-5.441.061.011 1.045 5.435-.056-.005-1.05zM45.43 68.482h.705v-.389h-.374v-.244h.374v-.3h-.374v-.244h.374v-.295h-.374v-.244h.374v-.3h-.374v-.244h.374v-.3h-.374v-.245h.374v-.294h-.374v-.244h.374v-.3h-.374v-.245h.374V64.3h-.374v-.244h.374v-.3h-.374v-.245h.374v-.727h-.704v5.698z"/><path d="M48.341 47.178h-.589v.567h.59v-.567z"/><path d="M48.341 47.178h-.589v.567h.59v-.567zM48.095 50.9H48v.182h.095V50.9zM48.09 51.388h-.096v.372h.095v-.372z"/><path fill-rule="evenodd" clip-rule="evenodd" d="m48.952 48.378-.039-.045-.033-.044-.044-.039-.033-.039-.16.2.034.033.038.028.033.04.028.038.176-.172zM48.825 50.244l.044-.045.039-.05.038-.05.044-.05.033-.055.033-.05.028-.056.033-.055.022-.061.022-.056.016-.066.017-.061.016-.062.011-.06.006-.067.01-.061v-.189l-.01-.061-.006-.067-.01-.061-.012-.061-.016-.061-.022-.061-.022-.061-.022-.061-.028-.056-.027-.061-.039-.05-.033-.061-.038-.05-.176.172.027.039.033.044.022.045.028.044.022.045.022.05.016.05.017.05.01.05.006.05.017.05v.05l.005.05.006.05v.055l-.006.05-.005.05-.006.05-.01.05-.006.05-.017.05-.016.05-.017.044-.022.05-.022.045-.022.044-.027.044-.028.04-.033.044-.033.039-.033.039-.033.038.154.195z"/><path fill-rule="evenodd" clip-rule="evenodd" d="m47.136 50.1.044.05.044.044.044.044.044.05.044.034.055.038.05.034.05.028.054.027.05.023.055.022.055.022.06.011.055.017.055.005.055.006.061.005h.11l.06-.01.061-.006.055-.011.055-.011.055-.023.055-.022.055-.022.05-.028.055-.033.055-.028.05-.039.049-.039.05-.044-.155-.194-.038.033-.044.033-.039.028-.038.022-.044.028-.044.022-.044.017-.044.022-.044.011-.044.011-.05.011-.044.006-.044.005-.05.006h-.044l-.044-.006-.05-.005-.043-.006-.044-.016-.044-.011-.044-.012-.044-.016-.044-.022-.044-.023-.044-.022-.039-.028-.038-.027-.039-.034-.038-.033-.033-.033-.039-.04-.033-.038-.176.166z"/><path fill-rule="evenodd" clip-rule="evenodd" d="m47.268 48.233-.044.045-.044.05-.038.05-.044.05-.033.05-.033.055-.028.056-.027.055-.022.062-.022.06-.022.062-.017.06-.016.062-.011.06-.006.062-.005.067v.189l.005.06.006.062.01.066.012.061.022.062.016.06.022.062.022.06.028.056.033.061.033.056.033.05.038.056.176-.167-.027-.045-.028-.044-.027-.044-.028-.045-.022-.05-.016-.044-.022-.05-.011-.05-.011-.05-.011-.045-.011-.055-.006-.05-.005-.05V49.155l.005-.05.006-.05.01-.05.012-.05.01-.05.017-.044.017-.05.022-.05.022-.044.027-.045.022-.044.033-.045.028-.039.033-.038.033-.04.038-.038-.154-.195zM48.05 63.956l-1.756-.017v-.1l.011-.1.011-.1.017-.094.022-.095.022-.094.027-.089.033-.089.039-.083.044-.089.044-.083.044-.078.05-.078.054-.072.056-.072.06-.072.06-.061.067-.062.066-.06.071-.062.072-.044.071-.05.077-.045.077-.044.077-.033.083-.034.077-.033.088-.028.082-.016.083-.017.088-.011.082-.006.088.006.083.017.083.016.082.023.083.022.076.027.078.034.082.039.077.038.077.045.072.05.077.044.066.056.066.055.066.061.066.062.06.066.055.072.055.073.05.077.05.078.043.078.039.089.038.083.033.095.028.094.022.094.022.1.016.095.006.11.01.1v.112H48.05zM46.328 68.143h.78v-4.048h-.78v4.048zm.082-3.176h.622v-.722h-.622v.722zm0 .838h.622v-.722h-.622v.722zm0 .811h.622v-.722h-.622v.722zM47.219 68.143h.775v-4.048h-.775v4.048zm.093-3.165h.622v-.722h-.622v.722zm0 .838h.622v-.722h-.622v.722zm0 .828h.622v-.722h-.622v.722zM48.11 68.143h.776v-4.048h-.776v4.048zm.077-3.17h.627v-.723h-.627v.722zm0 .838h.627v-.722h-.627v.722zm0 .81h.627V65.9h-.627v.721zM48.996 68.143h.78v-4.048h-.78v4.048zm.077-3.165h.621v-.722h-.621v.722zm0 .838h.621v-.722h-.621v.722zm0 .811h.621v-.722h-.621v.722zM20.498 48.7l-.12.128v2.071h.236v-2.071l-.116-.128h-.12v.128l.12-.128z"/><path fill-rule="evenodd" clip-rule="evenodd" d="m26.148 48.828-.12-.128h-5.53v.261h5.53l.12-.133V48.7h-.12l.12.128z"/><path d="M26.148 48.833h-.236V50.9h.236v-2.066z"/><path fill-rule="evenodd" clip-rule="evenodd" d="m26.099 48.711-.523-.594-4.599-.011-.578.605h5.7z"/><path d="M22.127 49.2h-.996v.627h.996V49.2zM23.832 49.2h-.99v.394h.99V49.2zM25.532 49.2h-.99v.633h.99V49.2z"/><path fill-rule="evenodd" clip-rule="evenodd" d="M21.373 48.111V44.29l.011-.027.011-.017.011-.017.022-.01.017-.006.022-.006H24.987l.017.006.011.01.011.006v.011l.006.011.005.012h-.005v3.965h-.77l.01-2.688-.01-.067-.017-.06-.011-.056-.022-.05-.017-.05-.022-.045-.022-.039-.022-.044-.044-.067-.05-.06-.043-.062-.044-.055-.066-.04-.066-.044-.072-.033-.071-.033-.077-.028-.083-.028-.088-.028-.093-.022-.083.017-.082.016-.072.017-.077.028-.066.022-.066.028-.072.028-.066.033-.055.05-.06.061-.06.061-.056.078-.033.039-.027.039-.028.044-.022.05-.027.05-.028.056-.022.055-.022.061-.022 2.727-.913-.078z"/><path fill-rule="evenodd" clip-rule="evenodd" d="m22.468 45.75-.006.012v2.483h.237v-2.483l-.231-.011-.006.006v.005l.006-.011z"/><path fill-rule="evenodd" clip-rule="evenodd" d="M23.282 44.846h.05l.049.005.044.006.044.01.044.012.039.017.038.016.044.023.033.022.039.027.033.023.033.033.06.056.055.066.05.072.038.073.039.077.027.078.028.078.016.083.011.078.006.078h-.231v.005l-.006-.055-.01-.056-.012-.06-.016-.056-.022-.062-.033-.055-.028-.056-.038-.05-.039-.05-.044-.05-.022-.016-.022-.017-.027-.017-.028-.016-.027-.011-.028-.017-.027-.011-.028-.006-.033-.01h-.033l-.033-.006h-.033v-.261l-.05.005h-.043l-.045.011-.044.011-.038.012-.044.016-.039.022-.038.023-.066.044-.066.056-.06.055-.05.067-.055.066-.039.073-.038.072-.033.078-.028.072-.016.078-.017.072-.005.072.23.022.006-.05.011-.055.017-.056.016-.055.028-.056.027-.061.033-.05.039-.056.038-.044.044-.044.044-.04.055-.033.022-.016.028-.011.027-.011.034-.012.027-.01h.027l.034-.006.027-.006v-.255z"/><path d="M24.102 45.779h-.231v2.41h.23v-2.41z"/><path fill-rule="evenodd" clip-rule="evenodd" d="M23.695 48.222v-2.449l-.006-.039-.005-.044-.011-.039-.011-.039-.017-.044-.016-.04-.022-.038-.028-.039-.027-.028-.028-.033-.038-.028-.039-.028-.033-.016-.044-.017-.044-.006-.05-.005-.049.005-.038.012-.044.01-.039.023-.039.022-.033.028-.027.033-.033.034-.022.033-.022.039-.022.039-.011.038-.017.04-.01.038-.006.04-.006.038v2.494l.837-.034zM22.033 41.913h2.42v2.35h-2.447v-2.26h.055l-.028-.09zm1.81.789v-.111l.028-.039h.187v1.522h-.485l.27-1.372zm-.853 0v-.15h.16v1.522h-.484l.324-1.372zm-.852 0v-.111l.027-.039h.16v1.522h-.484l.297-1.372z"/><path fill-rule="evenodd" clip-rule="evenodd" d="M23.238 41.969h-.825v-.3l.01-.144.006-.145.006-.144.01-.139.017-.133.017-.14.016-.127.017-.128.022-.122.016-.122.028-.117.022-.11.027-.106.028-.1.027-.1.033-.095.028-.083.033-.089.033-.072.033-.072.039-.067.038-.055.033-.056.044-.044.039-.04.038-.032.038-.028.044-.017.044-.011.04-.005.043.005.044.011.039.017.038.028.044.033.039.039.038.044.033.056.039.055.038.067.033.072.033.072.033.09.033.082.028.095.027.1.028.1.027.105.028.111.022.117.022.122.016.122.017.128.022.128.016.139.011.133.011.139.011.144.006.145.005.144v.3h-.825z"/><path d="M48.044 59.574h-1.342v-4.593c.022-.345.173-.669.423-.905a1.341 1.341 0 0 1 1.844 0c.25.236.401.56.423.905v4.576l-1.348.017zm0-.233h1.1v-4.36c0-.294-.116-.577-.322-.785a1.095 1.095 0 0 0-1.556 0c-.206.208-.322.49-.322.785v4.343l1.1.017zM44.815 59.63h-.523v-4.51a.558.558 0 0 1 .154-.372c.1-.097.23-.152.369-.156a.514.514 0 0 1 .368.156.507.507 0 0 1 .154.372v4.51h-.522zm0-.234h.297V55.12a.293.293 0 0 0-.292-.294.29.29 0 0 0-.286.294v4.304l.28-.028zM51.279 59.63h-.523v-4.51a.555.555 0 0 1 .523-.382.546.546 0 0 1 .522.382v4.51h-.522zm0-.234h.291V55.12a.274.274 0 0 0-.088-.206.28.28 0 0 0-.314-.065.28.28 0 0 0-.093.066.27.27 0 0 0-.088.205v4.304l.292-.028zM41.81 61.434h-.55v-6.336a.499.499 0 0 1 .155-.367.501.501 0 0 1 .368-.155c.14 0 .276.053.378.15.102.097.164.23.173.372v6.336h-.523zm0-.233h.287v-6.109a.284.284 0 0 0-.286-.289.306.306 0 0 0-.21.084.312.312 0 0 0-.082.205v6.11h.292zM54.3 61.434h-.551v-6.336a.557.557 0 0 1 .172-.372.547.547 0 0 1 .756 0c.102.097.164.23.172.372v6.336h-.55zm0-.233h.285v-6.109a.285.285 0 0 0-.175-.268.306.306 0 0 0-.32.063.313.313 0 0 0-.082.205v6.11h.291zM39.528 57.458h-.523v-2.355a.558.558 0 0 1 .154-.377.547.547 0 0 1 .737 0 .558.558 0 0 1 .154.377v2.355h-.522zm0-.233h.286v-2.122a.292.292 0 0 0-.083-.21.295.295 0 0 0-.313-.063.286.286 0 0 0-.159.159.296.296 0 0 0-.023.114v2.1l.292.022zM56.56 57.458h-.517v-2.355a.517.517 0 0 1 .31-.516.503.503 0 0 1 .207-.04.512.512 0 0 1 .518.338c.026.07.037.144.032.218v2.355h-.55zm0-.233h.292v-2.122a.287.287 0 0 0-.178-.275.307.307 0 0 0-.317.064.313.313 0 0 0-.083.211v2.1l.286.022zM71.475 54.637H70.34v2.777h1.25v-2.777h-.116zm-.903.239h.787v2.277h-.787v-2.277zM73.17 54.637h-1.101v2.777h1.254v-2.777h-.154zm-.903.239h.787v2.277h-.787v-2.277zM74.88 54.637h-1.16v2.777h1.254v-2.777h-.094zm-.902.239h.787v2.277h-.787v-2.277zM71.475 58.719H70.34v2.776h1.25V58.72h-.116zm-.903.239h.787v2.276h-.787v-2.276zM73.17 58.719h-1.101v2.776h1.254V58.72h-.154zm-.903.239h.787v2.276h-.787v-2.276zM74.88 58.719h-1.16v2.776h1.254V58.72h-.094zm-.902.239h.787v2.276h-.787v-2.276zM71.475 62.756H70.34v2.777h1.25v-2.777h-.116zm-.903.233h.787v2.283h-.787v-2.283zM73.17 62.756h-1.101v2.777h1.254v-2.777h-.154zm-.903.233h.787v2.283h-.787v-2.283zM74.88 62.756h-1.16v2.777h1.254v-2.777h-.094zm-.902.233h.787v2.283h-.787v-2.283z"/><path fill-rule="evenodd" clip-rule="evenodd" d="M70.385 63.556h-2.244v.255h2.244v-.255zm-17.021 1.15.55-.623-.17-.172-.55.617.17.177zm-.875-.206-.621-.633-.154.194.616.617.16-.178zm-1.326-.633h-.66v.261h.66v-.261zm4.913-.317h-1.474v.256h1.513l-.039-.256zm20.355.706-.764-.678h-.847v.256h.753l.732.65.126-.228zm-.764-.678h-.077.077zm-1.915 0h-.66v.256h.66v-.256zm-1.705 0h-.66v.256h.682l-.022-.256zm-15.118.256h1.76v-.256h-1.76v.256zm2.459 0h.71v-.256h-.682l-.028.256zm1.408 0h.71v-.256h-.71v.256zm1.414 0h.704v-.256h-.704v.256zm1.414 0h.743v-.256h-.704l-.039.256zm1.464 0h.71v-.256h-.71v.256zm1.474 0h.704v-.256h-.704v.256z"/><path d="M68.058 54.637h-.94v2.777h1.034v-2.777h-.094zm-.688.239h.55v2.277h-.55v-2.277zM66.617 54.637h-.919v2.777h1.034v-2.777h-.115zm-.688.239h.55v2.277h-.55v-2.277zM65.175 54.637h-.918v2.777h1.034v-2.777h-.116zm-.687.239h.55v2.277h-.55v-2.277zM63.729 54.637h-.92v2.777h1.04v-2.777h-.12zm-.683.239h.55v2.277h-.55v-2.277zM62.287 54.637h-.919v2.777h1.035v-2.777h-.116zm-.688.239h.55v2.277h-.55v-2.277zM60.846 54.637h-.919v2.777h1.034v-2.777h-.115zm-.688.239h.55v2.277h-.55v-2.277zM59.415 54.637h-.918v2.777h1.034v-2.777h-.116zm-.687.239h.55v2.277h-.55v-2.277zM68.058 58.719h-.94v2.776h1.034V58.72h-.094zm-.688.239h.55v2.276h-.55v-2.276zM66.617 58.719h-.919v2.776h1.034V58.72h-.115zm-.688.239h.55v2.276h-.55v-2.276zM65.175 58.719h-.918v2.776h1.034V58.72h-.116zm-.687.239h.55v2.276h-.55v-2.276zM63.729 58.719h-.92v2.776h1.04V58.72h-.12zm-.683.239h.55v2.276h-.55v-2.276zM62.287 58.719h-.919v2.776h1.035V58.72h-.116zm-.688.239h.55v2.276h-.55v-2.276zM60.846 58.719h-.919v2.776h1.034V58.72h-.115zm-.688.239h.55v2.276h-.55v-2.276zM59.415 58.719h-.918v2.776h1.034V58.72h-.116zm-.687.239h.55v2.276h-.55v-2.276zM68.058 62.756h-.94v2.777h1.034v-2.777h-.094zm-.688.233h.55v2.283h-.55v-2.283zM66.617 62.756h-.919v2.777h1.034v-2.777h-.115zm-.688.233h.55v2.283h-.55v-2.283zM65.175 62.756h-.918v2.777h1.034v-2.777h-.116zm-.687.233h.55v2.283h-.55v-2.283zM63.729 62.756h-.92v2.777h1.04v-2.777h-.12zm-.683.233h.55v2.283h-.55v-2.283zM62.287 62.756h-.919v2.777h1.035v-2.777h-.116zm-.688.233h.55v2.283h-.55v-2.283zM60.846 62.756h-.919v2.777h1.034v-2.777h-.115zm-.688.233h.55v2.283h-.55v-2.283zM59.415 62.756h-.918v2.777h1.034v-2.777h-.116zm-.687.233h.55v2.283h-.55v-2.283zM56.962 62.756h-.919v2.777h1.034v-2.777h-.115zm-.688.233h.55v2.283h-.55v-2.283zM54.63 62.756h-.92v2.777h1.035v-2.777h-.116zm-.689.233h.55v2.283h-.55v-2.283zM51.769 62.756h-.71v2.777h.825v-2.777h-.115zm-.48.233h.364v2.283h-.363v-2.283zM24.608 54.637h1.139v2.777h-1.255v-2.777h.116zm.908.239h-.76v2.277h.787l-.027-2.277zM22.902 54.637h1.14v2.777h-1.255v-2.777h.115zm.903.239h-.787v2.277h.787v-2.277zM21.208 54.637h1.133v2.777h-1.248v-2.777h.115zm.902.239h-.786v2.277h.786v-2.277zM24.608 58.719h1.139v2.776h-1.255V58.72h.116zm.908.239h-.76v2.276h.787l-.027-2.276zM22.902 58.719h1.14v2.776h-1.255V58.72h.115zm.903.239h-.787v2.276h.787v-2.276zM21.208 58.719h1.133v2.776h-1.248V58.72h.115zm.902.239h-.786v2.276h.786v-2.276zM24.608 62.756h1.139v2.777h-1.255v-2.777h.116zm.908.233h-.76v2.283h.787l-.027-2.283zM22.902 62.756h1.14v2.777h-1.255v-2.777h.115zm.903.233h-.787v2.283h.787v-2.283zM21.208 62.756h1.133v2.777h-1.248v-2.777h.115zm.902.233h-.786v2.283h.786v-2.283z"/><path fill-rule="evenodd" clip-rule="evenodd" d="M25.703 63.556h2.244v.255h-2.244v-.255zm17.021 1.15-.55-.623.17-.172.523.617-.143.177zm.875-.206.622-.633.154.194-.617.617-.16-.178zm1.31-.633h.676v.261h-.677v-.261zm-4.914-.317h1.491v.256h-1.49v-.256zm-20.355.706.765-.678h.869v.256h-.776l-.737.65-.12-.228zm.765-.678h.077-.077zm1.914 0h.66v.256h-.66v-.256zm1.7 0h.666v.256h-.688l.022-.256zm15.124.256h-1.76v-.256h1.76v.256zm-2.46 0h-.731v-.256h.71l.022.256zm-1.413 0h-.727v-.256h.705l.022.256zm-1.414 0h-.726v-.256h.704l.022.256zm-1.409 0h-.731v-.256h.71l.021.256zm-1.468 0h-.721v-.256h.704l.017.256zm-1.47 0h-.726v-.256h.705l.022.256z"/><path d="M28.057 54.637h.92v2.777h-1.063v-2.777h.143zm.688.239h-.55v2.277h.55v-2.277zM29.471 54.637h.919v2.777h-1.034v-2.777h.115zm.688.239h-.55v2.277h.55v-2.277zM30.913 54.637h.918v2.777h-1.023v-2.777h.105zm.687.239h-.55v2.277h.55v-2.277zM32.354 54.637h.919v2.777h-1.035v-2.777h.116zm.688.239h-.584v2.277h.55l.033-2.277zM33.8 54.637h.92v2.777h-1.04v-2.777h.12zm.683.239h-.55v2.277h.55v-2.277zM35.242 54.637h.919v2.777h-1.034v-2.777h.115zm.688.239h-.55v2.277h.55v-2.277zM36.684 54.637h.918v2.777h-1.034v-2.777h.116zm.687.239h-.55v2.277h.55v-2.277zM28.057 58.719h.92v2.776h-1.063V58.72h.143zm.688.239h-.55v2.276h.55v-2.276zM29.471 58.719h.919v2.776h-1.034V58.72h.115zm.688.239h-.55v2.276h.55v-2.276zM30.913 58.719h.918v2.776h-1.023V58.72h.105zm.687.239h-.55v2.276h.55v-2.276zM32.354 58.719h.919v2.776h-1.035V58.72h.116zm.688.239h-.584v2.276h.55l.033-2.276zM33.8 58.719h.92v2.776h-1.04V58.72h.12zm.683.239h-.55v2.276h.55v-2.276zM35.242 58.719h.919v2.776h-1.034V58.72h.115zm.688.239h-.55v2.276h.55v-2.276zM36.684 58.719h.918v2.776h-1.034V58.72h.116zm.687.239h-.55v2.276h.55v-2.276zM28.057 62.756h.92v2.777h-1.063v-2.777h.143zm.688.233h-.55v2.283h.55v-2.283zM29.471 62.756h.919v2.777h-1.034v-2.777h.115zm.688.233h-.55v2.283h.55v-2.283zM30.913 62.756h.918v2.777h-1.023v-2.777h.105zm.687.233h-.55v2.283h.55v-2.283zM32.354 62.756h.919v2.777h-1.035v-2.777h.116zm.688.233h-.584v2.283h.55l.033-2.283zM33.8 62.756h.92v2.777h-1.04v-2.777h.12zm.683.233h-.55v2.283h.55v-2.283zM35.242 62.756h.919v2.777h-1.034v-2.777h.115zm.688.233h-.55v2.283h.55v-2.283zM36.684 62.756h.918v2.777h-1.034v-2.777h.116zm.687.233h-.55v2.283h.55v-2.283zM39.126 62.756h.919v2.777h-1.034v-2.777h.115zm.688.233h-.55v2.283h.55v-2.283zM41.459 62.756h.902v2.777h-1.023v-2.777h.12zm.682.233h-.55v2.283h.55v-2.283zM44.32 62.756h.71v2.777h-.826v-2.777h.116zm.473.233h-.358v2.283h.358v-2.283z"/><path fill-rule="evenodd" clip-rule="evenodd" d="m25.906 53.92.116.128v.45h-.237v-.317h-1.414v.317h-.23v-.317h-1.557v.334h-.237v-.334H20.97v.317h-.23v-.555h.12l5.045-.023zm0 0h.116v.128l-.116-.128zM72.619 51.338c.522 0 .946.267.946.6 0 .333-.396.594-.946.594-.55 0-.952-.267-.952-.594 0-.328.424-.6.952-.6zM23.475 51.338c.522 0 .946.267.946.6 0 .333-.424.594-.946.594-.523 0-.952-.267-.952-.594 0-.328.424-.6.952-.6zM48.022 48.467a.77.77 0 0 1 .762.434.79.79 0 0 1-.124.874.773.773 0 0 1-1.348-.525.755.755 0 0 1 .188-.535.74.74 0 0 1 .505-.248M48.033 60.74c.468 0 .847.211.847.472s-.38.472-.847.472c-.468 0-.842-.21-.842-.472 0-.26.374-.472.842-.472zM48.044 60.23c.27 0 .49.077.49.177 0 .1-.22.183-.49.183s-.484-.078-.484-.183.214-.178.484-.178zM38.394 51.538H36.31v-.072l-.033-.078V51.277l-.033-.034-.033-.033H35.512l-.033.033h-.033V51.517h-1.92V51.31l-.028-.033v-.034l-.033-.033h-.038l-.039-.028H32.717l-.033.034-.028.039V51.477H30.49v-.2h-.028v-.034h-.027l-.033-.033H29.73l-.028.033v.228H26.61l.776 1.76 10.574.006h-.044l-.039-.039-.038-.044-.039-.05-.038-.056v-.133l-.028-.072V52.06l.039-.05.033-.05.044-.044.05-.045.049-.044.055-.04.06-.044.055-.033.066-.039.066-.039.072-.033.071-.061zm-7.9 1.333h-1.04v-.583l.028-.128.033-.122.033-.117.044-.111.039-.1v-.044l.132-.017V51.532h.115V51.638l.38.01v.05l.038.1v.112l.033.122v.711l.165.128zm2.982 0h-1.018v-.467l.028-.122v-.128l.033-.122.038-.116.033-.112.044-.1v-.133l.028-.039V51.5h.137v.244l.034.1.032.111v.123l.028.122V52.76l.583.11zm2.778 0H35.21v-.711l.033-.122.039-.122.038-.106.039-.1V51.471H35.473V51.682l.033.106.033.105.033.123v.715l.682.14zM46.058 54.26a.192.192 0 0 1 .19.107.196.196 0 0 1-.13.275.19.19 0 0 1-.202-.079.196.196 0 0 1-.034-.11.187.187 0 0 1 .176-.194zM50.019 54.26c.051 0 .1.02.136.056a.195.195 0 0 1-.136.332.195.195 0 0 1 0-.389z"/><path d="M39.126 58.719h.919v2.776h-1.034V58.72h.115zm.688.239h-.55v2.276h.55v-2.276zM56.962 58.719h-.919v2.776h1.034V58.72h-.115zm-.688.239h.55v2.276h-.55v-2.276z"/></g></svg>