<svg width="21" height="29" viewBox="0 0 21 29" fill="none" xmlns="http://www.w3.org/2000/svg">
<path d="M18.8998 28.8276H2.10097C2.0869 28.8161 2.07147 28.8065 2.05507 28.799C0.644221 28.4145 0 27.5522 0 26.0357V8.5534C0 6.56398 0 4.57765 0 2.5944C0 1.72116 0.330969 0.999063 1.02512 0.510387C1.34723 0.287879 1.73779 0.184602 2.09855 0.0275879H12.9231C12.9231 1.93975 12.9231 3.85191 12.9231 5.76408C12.9231 7.40307 13.945 8.46439 15.5217 8.46523H20.9976V15.462C20.9976 19.0445 20.9976 22.6248 20.9976 26.2028C20.9976 27.3666 20.3824 28.307 19.387 28.6781C19.2268 28.7377 19.0617 28.778 18.8998 28.8276ZM10.4992 11.896C8.912 11.896 7.3256 11.896 5.7384 11.896C5.35992 11.896 5.07244 12.0472 4.91621 12.4091C4.66658 12.9859 5.07727 13.5846 5.72713 13.5846C7.60986 13.5846 9.4926 13.5846 11.3753 13.5846C12.6751 13.5846 13.975 13.5846 15.2753 13.5846C15.6409 13.5846 15.9195 13.4351 16.0806 13.0808C16.3375 12.5048 15.9316 11.896 15.289 11.8944C13.6897 11.8935 12.0944 11.896 10.4992 11.896ZM10.4694 16.9591C12.0647 16.9591 13.6607 16.9591 15.2568 16.9591C15.5209 16.9591 15.7568 16.892 15.934 16.6829C16.1627 16.4142 16.2247 16.1027 16.0782 15.771C15.9316 15.4394 15.661 15.2672 15.3043 15.2672H11.3238C9.45932 15.2672 7.59483 15.2672 5.73035 15.2672C5.36395 15.2672 5.08613 15.4142 4.92507 15.7635C4.66497 16.337 5.06922 16.9533 5.70941 16.9549C7.29581 16.9617 8.8822 16.9591 10.4686 16.9591H10.4694ZM10.4694 20.3337C12.0649 20.3337 13.6607 20.3337 15.2568 20.3337C15.6208 20.3337 15.905 20.196 16.0669 19.8467C16.3334 19.2732 15.9364 18.6485 15.2978 18.646C13.738 18.641 12.1782 18.646 10.6184 18.646C8.98689 18.646 7.3554 18.646 5.72391 18.646C5.36958 18.646 5.09418 18.7854 4.93232 19.1196C4.65208 19.6981 5.05472 20.3312 5.70861 20.3328C7.29903 20.337 8.88542 20.3337 10.4726 20.3337H10.4694ZM8.86851 23.7057C9.9347 23.7057 11.0009 23.7057 12.0679 23.7057C12.5655 23.7057 12.9239 23.3422 12.9215 22.8594C12.9191 22.3766 12.5607 22.0197 12.0606 22.0197C9.9449 22.0197 7.8297 22.0217 5.71505 22.0256C5.53772 22.0298 5.36419 22.08 5.21014 22.1717C5.06734 22.263 4.95728 22.4008 4.8969 22.5637C4.83652 22.7266 4.82916 22.9057 4.87595 23.0735C4.91949 23.2572 5.02181 23.42 5.16601 23.5349C5.31021 23.6498 5.48768 23.7101 5.66915 23.7057C6.73533 23.7116 7.80152 23.7057 8.86851 23.7057Z" fill="white" />
<path d="M14.5465 0.60611L20.4363 6.75823C20.3915 6.76823 20.346 6.77441 20.3002 6.7767C18.6687 6.7767 17.0375 6.7767 15.4066 6.7767C14.8823 6.7767 14.5409 6.42656 14.5393 5.88667C14.5361 4.17266 14.5361 2.45894 14.5393 0.745492C14.5385 0.693433 14.5441 0.642215 14.5465 0.60611Z" fill="white" />
</svg>
