<svg width="30" height="29" viewBox="0 0 30 29" fill="none" xmlns="http://www.w3.org/2000/svg">
<path d="M25 26.5832V6.04031C25 4.04161 23.3175 2.4151 21.25 2.4151H19.7625C19.5375 1.80244 19.1625 1.24536 18.6275 0.821215C17.7563 0.130007 16.6225 -0.140675 15.515 0.0695873L8.01375 1.51967C6.2675 1.85803 5 3.35403 5 5.07359V26.5832H0V29H30V26.5832H25ZM15.625 16.0097C14.59 16.0097 13.75 15.1976 13.75 14.197C13.75 13.1965 14.59 12.3844 15.625 12.3844C16.66 12.3844 17.5 13.1965 17.5 14.197C17.5 15.1976 16.66 16.0097 15.625 16.0097ZM22.5 26.5832H20V4.83191H21.25C21.9387 4.83191 22.5 5.37327 22.5 6.04031V26.5832Z" fill="white"/>
</svg>
