<svg width="280" height="280" viewBox="0 0 280 280" fill="none" xmlns="http://www.w3.org/2000/svg">
<path fill-rule="evenodd" clip-rule="evenodd" d="M140 0C167.689 0 194.757 8.21086 217.78 23.5943C240.803 38.9776 258.747 60.8427 269.343 86.4243C279.939 112.006 282.712 140.155 277.31 167.313C271.908 194.47 258.574 219.416 238.995 238.995C219.416 258.574 194.47 271.908 167.313 277.31C140.155 282.712 112.006 279.939 86.4243 269.343C60.8427 258.747 38.9776 240.803 23.5943 217.78C8.21086 194.757 0 167.689 0 140C0.00425084 102.871 14.7556 67.2639 41.0097 41.0097C67.2639 14.7556 102.871 0.00425084 140 0ZM140 4.18413C166.866 4.18096 193.13 12.1451 215.47 27.0692C237.81 41.9934 255.222 63.2073 265.505 88.028C275.788 112.849 278.479 140.161 273.239 166.512C267.998 192.862 255.061 217.066 236.064 236.064C217.066 255.061 192.862 267.998 166.512 273.239C140.161 278.479 112.849 275.788 88.028 265.505C63.2073 255.222 41.9934 237.81 27.0692 215.47C12.1451 193.13 4.18096 166.866 4.18413 140C4.18838 103.981 18.4989 69.4379 43.9684 43.9684C69.4379 18.4989 103.981 4.18838 140 4.18413Z" fill="white" fill-opacity="0.16"/>
<path fill-rule="evenodd" clip-rule="evenodd" d="M139.999 259.192C140.72 259.188 141.425 259.399 142.027 259.796C142.629 260.193 143.1 260.759 143.381 261.422C143.661 262.086 143.74 262.818 143.606 263.527C143.472 264.235 143.131 264.888 142.627 265.403C142.123 265.918 141.478 266.273 140.772 266.422C140.067 266.572 139.334 266.509 138.664 266.243C137.994 265.977 137.418 265.518 137.008 264.925C136.598 264.332 136.373 263.631 136.36 262.911C136.36 261.944 136.743 261.017 137.425 260.332C138.107 259.647 139.032 259.26 139.999 259.256" fill="white" fill-opacity="0.16"/>
<path fill-rule="evenodd" clip-rule="evenodd" d="M140.001 35.525C160.664 35.525 180.863 41.6524 198.044 53.1322C215.225 64.6121 228.616 80.9289 236.523 100.019C244.431 119.109 246.5 140.116 242.468 160.382C238.437 180.648 228.487 199.264 213.876 213.875C199.265 228.486 180.649 238.436 160.383 242.467C140.117 246.499 119.11 244.43 100.02 236.522C80.9298 228.615 64.613 215.224 53.1331 198.043C41.6533 180.862 35.5259 160.663 35.5259 140C35.5259 112.292 46.5331 85.7179 66.1259 66.125C85.7188 46.5322 112.292 35.525 140.001 35.525ZM140.001 33.441C161.081 33.4378 181.688 39.686 199.217 51.3954C216.745 63.1048 230.408 79.7494 238.476 99.2241C246.545 118.699 248.657 140.129 244.545 160.804C240.433 181.479 230.283 200.47 215.377 215.376C200.471 230.282 181.48 240.432 160.805 244.544C140.13 248.656 118.7 246.544 99.225 238.475C79.7503 230.407 63.1057 216.745 51.3963 199.216C39.687 181.687 33.4387 161.08 33.4419 140C33.4461 111.74 44.6742 84.6389 64.657 64.6561C84.6398 44.6733 111.741 33.4452 140.001 33.441Z" fill="white" fill-opacity="0.16"/>
<path d="M111.305 262.526L107.874 261.532C107.147 261.37 106.471 261.035 105.902 260.554C105.476 260.129 105.234 259.553 105.229 258.951C105.213 258.791 105.213 258.63 105.229 258.47C105.22 258.321 105.22 258.171 105.229 258.021C105.38 257.43 105.731 256.909 106.223 256.546C106.695 256.227 107.256 256.064 107.826 256.082V255.921C107.166 255.668 106.631 255.168 106.335 254.526C106.03 253.891 105.978 253.163 106.191 252.491C106.273 252.106 106.441 251.744 106.683 251.433C106.924 251.122 107.233 250.87 107.585 250.695C108.399 250.404 109.289 250.404 110.102 250.695L114.158 251.865L113.998 252.41C113.903 252.394 113.806 252.397 113.712 252.419C113.619 252.441 113.531 252.482 113.453 252.539C113.29 252.681 113.178 252.872 113.132 253.084L110.904 260.875C110.84 261.078 110.84 261.297 110.904 261.5C110.934 261.591 110.982 261.675 111.045 261.746C111.109 261.818 111.186 261.876 111.273 261.917L111.305 262.526ZM109.012 260.923L110.118 257.059L109.429 256.851C109.209 256.783 108.975 256.766 108.747 256.802C108.52 256.838 108.303 256.926 108.114 257.059C107.701 257.375 107.407 257.821 107.281 258.326C107.085 258.842 107.085 259.413 107.281 259.929C107.415 260.163 107.597 260.365 107.815 260.523C108.034 260.68 108.283 260.789 108.547 260.843L109.012 260.923ZM110.343 256.258L111.593 251.929L110.856 251.721C110.597 251.616 110.317 251.573 110.039 251.596C109.761 251.618 109.492 251.705 109.253 251.849C108.783 252.189 108.457 252.692 108.339 253.26C108.224 253.561 108.175 253.883 108.198 254.204C108.22 254.525 108.312 254.838 108.467 255.12C108.772 255.611 109.254 255.967 109.814 256.114L110.343 256.258ZM97.8866 258.663C97.2729 258.46 96.7161 258.114 96.2619 257.654C95.8077 257.194 95.4689 256.633 95.2735 256.017C94.8496 254.647 94.8745 253.177 95.3445 251.822C95.8146 250.466 96.7052 249.296 97.8866 248.483C98.4291 248.112 99.0505 247.872 99.7017 247.783C100.353 247.694 101.016 247.758 101.638 247.969C102.26 248.181 102.825 248.534 103.287 249.002C103.748 249.469 104.095 250.038 104.299 250.663C104.725 252.047 104.699 253.531 104.227 254.899C103.754 256.268 102.859 257.451 101.67 258.278C101.133 258.642 100.519 258.875 99.8755 258.958C99.2324 259.042 98.5787 258.973 97.9667 258.759M98.2393 257.973C98.6107 258.126 99.0202 258.162 99.4127 258.076C99.8052 257.99 100.162 257.787 100.436 257.492C101.242 256.522 101.832 255.39 102.167 254.174C102.638 253.014 102.867 251.77 102.84 250.519C102.805 250.119 102.647 249.741 102.389 249.434C102.131 249.127 101.785 248.907 101.397 248.803C101.028 248.651 100.622 248.612 100.231 248.692C99.8393 248.772 99.4808 248.967 99.2011 249.252C97.7267 251.293 96.89 253.726 96.7965 256.242C96.8312 256.643 96.9882 257.024 97.2461 257.334C97.5041 257.643 97.8507 257.867 98.2393 257.973ZM96.1873 246.174L95.9468 246.687C95.7816 246.624 95.599 246.624 95.4338 246.687C95.2301 246.802 95.0717 246.983 94.9849 247.2L92.3719 252.779C92.1999 253.22 91.941 253.622 91.6105 253.961C91.28 254.299 90.8847 254.568 90.4481 254.751C89.9906 254.899 89.5082 254.954 89.0291 254.912C88.5501 254.871 88.0842 254.734 87.6587 254.51C87.2325 254.33 86.8534 254.054 86.5504 253.703C86.2475 253.353 86.0289 252.938 85.9113 252.491C85.6854 251.582 85.7876 250.622 86.1999 249.781C86.4996 249.093 86.9486 248.479 87.5144 247.986C88.0057 247.584 88.6119 247.348 89.2458 247.312C89.4539 247.296 89.6629 247.296 89.871 247.312C90.0584 247.352 90.2411 247.411 90.4161 247.489C90.748 247.641 91.0559 247.841 91.3298 248.082C91.5947 248.331 91.8072 248.631 91.9551 248.964L93.1734 246.335C93.2825 246.134 93.3166 245.901 93.2696 245.677C93.2212 245.515 93.1195 245.374 92.9811 245.277L93.2215 244.764L96.1873 246.174ZM90.1115 253.004L91.2337 250.567C91.3166 250.406 91.3599 250.227 91.3599 250.046C91.3599 249.865 91.3166 249.686 91.2337 249.525C91.0956 249.192 90.8383 248.924 90.5123 248.771C90.3359 248.674 90.1341 248.633 89.9337 248.653C89.7333 248.673 89.5437 248.753 89.3901 248.884C88.8487 249.413 88.4277 250.053 88.1557 250.759C87.7921 251.418 87.5632 252.143 87.4824 252.891C87.4925 253.097 87.5573 253.296 87.67 253.467C87.7827 253.639 87.9393 253.778 88.1236 253.869C88.2904 253.952 88.4743 253.996 88.6607 253.996C88.8471 253.996 89.0309 253.952 89.1977 253.869C89.3976 253.787 89.5788 253.665 89.7303 253.51C89.8818 253.356 90.0006 253.173 90.0794 252.971M78.5691 249.765C78.0088 249.446 77.5312 249 77.1748 248.462C76.8184 247.925 76.5931 247.312 76.5171 246.671C76.346 245.228 76.6452 243.769 77.3701 242.509C78.0951 241.25 79.2071 240.258 80.5409 239.682C81.1382 239.432 81.7852 239.324 82.4312 239.365C83.0773 239.407 83.705 239.598 84.2653 239.922C84.8256 240.246 85.3033 240.696 85.6612 241.235C86.019 241.775 86.2473 242.39 86.3281 243.032C86.5163 244.482 86.2288 245.953 85.5089 247.225C84.7891 248.497 83.6758 249.501 82.3364 250.086C81.7391 250.341 81.0906 250.453 80.4423 250.414C79.7939 250.376 79.1636 250.186 78.6011 249.861M79.0179 249.14C79.3509 249.367 79.7448 249.489 80.1481 249.489C80.5514 249.489 80.9453 249.367 81.2783 249.14C82.2483 248.334 83.0399 247.335 83.6028 246.206C84.2956 245.161 84.7599 243.981 84.9655 242.744C85.0013 242.346 84.9164 241.946 84.722 241.598C84.5275 241.249 84.2325 240.967 83.8754 240.788C83.544 240.564 83.1532 240.444 82.7532 240.444C82.3532 240.444 81.9624 240.564 81.631 240.788C80.6714 241.581 79.8855 242.563 79.3225 243.673C78.6275 244.731 78.1582 245.921 77.9438 247.168C77.9033 247.567 77.9842 247.968 78.1758 248.32C78.3675 248.672 78.661 248.958 79.0179 249.14ZM69.8802 244.443L70.2168 243.978C70.3024 244.017 70.3953 244.037 70.4894 244.037C70.5834 244.037 70.6763 244.017 70.7619 243.978C70.9785 243.916 71.1625 243.772 71.2749 243.577L73.3108 240.788L69.5916 238.079L67.5557 240.868C67.422 241.038 67.3436 241.245 67.3312 241.461C67.3304 241.56 67.3499 241.658 67.3885 241.749C67.4271 241.84 67.484 241.922 67.5557 241.99L67.219 242.439L64.5418 240.467L64.8785 240.018C65.0686 240.096 65.2815 240.096 65.4716 240.018C65.6703 239.939 65.8387 239.799 65.9525 239.618L70.7619 233.061C70.8837 232.901 70.9661 232.714 71.0024 232.516C70.9756 232.31 70.8924 232.116 70.7619 231.955L71.0985 231.49L73.7437 233.558L73.407 234.023C73.2084 233.963 72.9965 233.963 72.7978 234.023C72.6169 234.102 72.4655 234.237 72.365 234.407L70.1206 237.485L73.7437 240.131L75.972 237.069C76.11 236.912 76.1942 236.715 76.2125 236.507C76.1803 236.3 76.0915 236.106 75.956 235.946L76.2926 235.498L78.9698 237.437L78.6332 237.886C78.4337 237.832 78.2235 237.832 78.024 237.886C77.8339 237.958 77.675 238.094 77.5751 238.271L72.7658 244.812C72.636 244.983 72.5631 245.19 72.5574 245.405C72.5688 245.594 72.642 245.774 72.7658 245.918L72.4291 246.383L69.8802 244.443ZM62.7784 239.441L57.8408 235.145C57.7338 235.05 57.6153 234.969 57.4881 234.904C57.395 234.87 57.2927 234.87 57.1995 234.904L56.943 234.68L58.8027 232.548L59.1553 232.868C58.9011 233.294 58.7732 233.783 58.7866 234.279C58.9136 234.792 59.2209 235.241 59.6523 235.546L61.2554 237.004L63.9326 234.055L62.8265 233.093C62.614 232.861 62.3221 232.718 62.0089 232.692C61.8687 232.708 61.7335 232.754 61.612 232.826C61.4905 232.898 61.3854 232.994 61.3035 233.109L60.9348 232.788L62.7944 230.656L63.1631 230.961C62.9934 231.171 62.8927 231.429 62.8746 231.698C62.8807 231.811 62.9094 231.922 62.9589 232.024C63.0085 232.126 63.0779 232.217 63.1631 232.291L64.4777 233.43L67.4595 229.999L65.0548 227.915C64.8733 227.757 64.662 227.638 64.4334 227.563C64.2048 227.489 63.9637 227.461 63.7242 227.482C63.1879 227.515 62.6788 227.73 62.2814 228.091L61.9127 227.787L63.7402 225.67L70.0084 231.121L69.6397 231.554C69.5607 231.494 69.4692 231.453 69.372 231.433C69.2749 231.414 69.1746 231.417 69.0786 231.442C68.8238 231.522 68.5999 231.678 68.4374 231.891L63.3234 237.79C63.1414 237.974 63.0185 238.209 62.9708 238.463C62.9641 238.565 62.9777 238.667 63.0107 238.763C63.0437 238.859 63.0955 238.948 63.1631 239.024L62.7784 239.441ZM51.5566 229.486L49.2962 227.065L49.713 226.68C49.9041 226.787 50.1195 226.842 50.3382 226.841C50.5204 226.787 50.6858 226.688 50.8192 226.552L52.2459 225.222C52.0816 224.979 51.8279 224.812 51.5406 224.757C51.1681 224.723 50.7933 224.784 50.4504 224.933C49.6131 225.389 48.657 225.579 47.7091 225.478C47.4836 225.372 47.2838 225.218 47.1233 225.027C46.9628 224.836 46.8455 224.612 46.7793 224.372L48.6389 222.641L49.0397 223.073C48.9655 223.144 48.9116 223.234 48.8834 223.332C48.8552 223.431 48.8538 223.535 48.8794 223.634C48.8794 223.827 49.1038 223.907 49.3763 223.907C50.0488 223.859 50.7238 223.859 51.3963 223.907L51.5886 224.003H51.6688C51.4712 223.621 51.3359 223.21 51.268 222.785C51.1798 222.33 51.1798 221.861 51.268 221.406C51.3742 220.91 51.5581 220.434 51.8131 219.995C52.1849 219.388 52.6086 218.814 53.0795 218.28C53.4062 217.941 53.6914 217.564 53.9292 217.158C53.9659 217.021 53.9659 216.878 53.9292 216.741L54.346 216.356L56.4621 218.633L56.0453 219.018C55.9509 218.97 55.8466 218.945 55.7407 218.945C55.6349 218.945 55.5305 218.97 55.4361 219.018C55.0771 219.195 54.7517 219.434 54.4743 219.723C54.0033 220.136 53.5835 220.604 53.2238 221.118C52.9397 221.528 52.7131 221.976 52.5505 222.448C52.4096 222.866 52.3603 223.309 52.4062 223.747C52.4242 223.939 52.4802 224.126 52.571 224.297C52.6618 224.467 52.7856 224.618 52.9353 224.741L56.7827 221.15C56.935 221.028 57.0514 220.867 57.1194 220.685C57.1351 220.463 57.0908 220.242 56.9911 220.043L57.408 219.659L59.6683 222.079L59.2515 222.464C59.0666 222.357 58.8561 222.301 58.6424 222.304C58.4553 222.357 58.2845 222.456 58.1454 222.592L54.2979 226.039C54.5399 226.35 54.888 226.562 55.2758 226.632C55.7034 226.727 56.1467 226.727 56.5743 226.632C57.0571 226.501 57.5207 226.307 57.953 226.055C58.4746 225.717 58.963 225.331 59.4118 224.901C59.7237 224.643 59.9894 224.334 60.1974 223.987C60.2452 223.893 60.2702 223.788 60.2702 223.683C60.2702 223.577 60.2452 223.472 60.1974 223.378L60.6142 222.993L62.7303 225.27L62.3135 225.654C62.1991 225.581 62.064 225.548 61.9287 225.558C61.4625 225.787 61.0263 226.072 60.6302 226.408C60.0881 226.824 59.5085 227.189 58.8988 227.498C58.4589 227.71 57.9882 227.85 57.5041 227.915C57.0489 228.003 56.5807 228.003 56.1255 227.915C55.7027 227.808 55.2977 227.641 54.9231 227.418C54.9552 227.485 54.982 227.555 55.0033 227.626C55.0014 228.297 54.9478 228.967 54.843 229.63C54.843 229.919 54.843 230.095 55.0674 230.159C55.1636 230.192 55.2671 230.198 55.3663 230.175C55.4654 230.152 55.5563 230.103 55.6285 230.031L56.0453 230.464L54.1857 232.195C53.9498 232.111 53.7347 231.978 53.5549 231.803C53.3751 231.629 53.2349 231.418 53.1437 231.185C53.1177 230.234 53.3743 229.297 53.8811 228.492C54.0672 228.166 54.1561 227.793 54.1376 227.418C54.1208 227.273 54.0753 227.134 54.0038 227.007C53.9322 226.88 53.836 226.769 53.7208 226.68L52.294 228.011C52.1482 228.129 52.0373 228.284 51.9734 228.46C51.9494 228.68 51.9883 228.902 52.0856 229.101L51.5566 229.486ZM46.7472 210.81L46.9717 210.104C47.7668 210.173 48.546 210.368 49.2802 210.681C49.8421 210.945 50.3359 211.334 50.723 211.82C51.1297 212.325 51.4101 212.92 51.5411 213.556C51.6721 214.192 51.65 214.849 51.4764 215.475C51.0928 216.895 50.2325 218.14 49.0397 219.001C47.9375 219.953 46.5358 220.486 45.08 220.508C44.4639 220.532 43.8511 220.408 43.2931 220.146C42.7351 219.884 42.2484 219.491 41.8738 219.001C41.7223 218.807 41.5831 218.604 41.457 218.392C41.3399 218.17 41.2382 217.939 41.1524 217.703C41.104 217.529 41.0451 217.357 40.976 217.19C40.9236 217.082 40.859 216.979 40.7837 216.885C40.7738 216.866 40.7602 216.849 40.7437 216.836C40.7272 216.822 40.7081 216.811 40.6875 216.805H40.463H40.3989L40.0943 216.436L42.1463 214.833L42.4349 215.202C42.1214 215.678 41.9542 216.235 41.9539 216.805C41.9378 217.385 42.1249 217.952 42.483 218.408L42.6593 218.585L42.8677 218.761C43.1608 218.958 43.4947 219.087 43.8446 219.137C44.1944 219.187 44.551 219.157 44.8876 219.05C45.9843 218.624 46.9987 218.011 47.8855 217.238C48.852 216.586 49.6224 215.682 50.1138 214.625C50.2471 214.223 50.2714 213.794 50.184 213.379C50.0967 212.965 49.901 212.582 49.6168 212.268C49.322 211.892 48.9431 211.59 48.5107 211.387C47.9692 211.13 47.39 210.962 46.7953 210.89M38.6355 214.336L36.7598 211.611L37.2247 211.274C37.292 211.348 37.3736 211.408 37.4646 211.449C37.5555 211.49 37.6539 211.513 37.7538 211.515C37.9659 211.507 38.1692 211.428 38.3309 211.291L40.6394 209.687C40.5224 209.491 40.367 209.32 40.1824 209.185C39.9979 209.05 39.788 208.954 39.5653 208.902C39.0039 208.793 38.4239 208.832 37.882 209.014C37.1375 209.304 36.3391 209.43 35.5415 209.383C35.3172 209.335 35.1051 209.242 34.9177 209.11C34.7304 208.977 34.5717 208.808 34.4514 208.613C34.3554 208.493 34.2796 208.357 34.2269 208.213C34.1667 208.087 34.1132 207.959 34.0666 207.828L36.1507 206.369L36.4232 206.77C36.3181 206.886 36.251 207.031 36.2308 207.187C36.1905 207.306 36.1905 207.436 36.2308 207.555C36.3264 207.671 36.455 207.755 36.5995 207.796C36.8116 207.833 37.0287 207.833 37.2408 207.796C37.9124 207.728 38.5891 207.728 39.2607 207.796C39.518 207.868 39.7617 207.981 39.9821 208.132H40.0783C39.9805 207.913 39.8949 207.688 39.8218 207.459C39.7427 207.246 39.6837 207.026 39.6454 206.802C39.5816 206.34 39.6425 205.869 39.8218 205.439C40.1063 204.847 40.4853 204.306 40.944 203.836L41.7776 202.97C41.8334 202.901 41.8817 202.826 41.9219 202.746C42.0954 202.504 42.2056 202.223 42.2425 201.928C42.2793 201.673 42.2284 201.413 42.0982 201.191L42.5952 200.838C42.7522 200.927 42.8977 201.034 43.028 201.159C43.1578 201.281 43.2758 201.415 43.3807 201.56C43.6503 201.926 43.8165 202.358 43.8616 202.81C43.8905 203.244 43.796 203.678 43.5891 204.06C43.5189 204.203 43.4329 204.338 43.3326 204.461C43.2364 204.589 42.9158 204.926 42.3547 205.487C41.9611 205.862 41.6066 206.275 41.2967 206.722C41.1151 206.995 40.9847 207.299 40.9119 207.619C40.8636 207.879 40.8636 208.145 40.9119 208.405C40.9598 208.66 41.0639 208.901 41.2165 209.11L44.8876 206.706C45.0701 206.589 45.2148 206.422 45.3044 206.225C45.3438 206.136 45.3641 206.041 45.3641 205.944C45.3641 205.847 45.3438 205.752 45.3044 205.664L45.7693 205.327L47.645 208.02L47.1801 208.341C47.0499 208.202 46.8728 208.116 46.6831 208.1C46.4626 208.114 46.2509 208.192 46.0739 208.325L39.4531 212.974C39.2719 213.088 39.1316 213.256 39.0523 213.455C38.9817 213.635 38.9817 213.835 39.0523 214.016L38.6355 214.336ZM32.5436 205.455L30.9405 202.586L31.4375 202.297C31.5949 202.454 31.796 202.56 32.0146 202.602C32.2037 202.607 32.3896 202.551 32.5436 202.441L37.6896 199.588L31.165 198.434L30.4596 198.786C30.278 198.888 30.1281 199.037 30.0268 199.219C29.954 199.41 29.954 199.621 30.0268 199.812L29.5298 200.085L27.9267 197.199L28.4076 196.927C28.5214 197.063 28.6808 197.155 28.8565 197.183C29.0713 197.195 29.2844 197.139 29.4657 197.023L36.5514 193.095C36.7449 192.999 36.9063 192.848 37.0163 192.662C37.0557 192.574 37.076 192.478 37.076 192.382C37.076 192.285 37.0557 192.19 37.0163 192.101L37.5133 191.829L39.1164 194.698L38.6195 194.987C38.5641 194.906 38.493 194.837 38.4103 194.785C38.3276 194.733 38.2352 194.698 38.1385 194.682C37.9176 194.658 37.6953 194.715 37.5133 194.843L32.2551 197.744L38.8118 198.866L39.5332 198.482C39.729 198.394 39.8879 198.241 39.9821 198.049C40.0548 197.858 40.0548 197.647 39.9821 197.456L40.4791 197.183L42.0822 200.069L41.6814 200.389C41.567 200.239 41.4016 200.137 41.2165 200.101C40.9966 200.089 40.7783 200.145 40.5913 200.261L33.5055 204.189C33.3195 204.29 33.1644 204.439 33.0566 204.622C32.9844 204.802 32.9844 205.003 33.0566 205.183L32.5436 205.455ZM26.9648 195.291L25.6503 192.278L26.1793 192.053C26.3286 192.214 26.516 192.336 26.7243 192.406C26.9007 192.438 27.0822 192.427 27.2534 192.374L32.6238 189.969L26.2113 188.254L25.538 188.542C25.3469 188.627 25.1851 188.766 25.0731 188.943C24.9983 189.128 24.9983 189.335 25.0731 189.52L24.5601 189.745L23.2135 186.731L23.7265 186.506C23.8335 186.673 23.9995 186.793 24.1914 186.843C24.4065 186.874 24.6257 186.834 24.8166 186.731L32.0627 183.316C32.2696 183.236 32.4481 183.097 32.5757 182.915C32.6161 182.827 32.6369 182.732 32.6369 182.635C32.6369 182.538 32.6161 182.442 32.5757 182.354L33.0887 182.13L34.4353 185.144L33.9063 185.368C33.8107 185.204 33.6556 185.084 33.4735 185.031C33.2498 184.989 33.0182 185.022 32.8162 185.128L27.4297 187.564L33.8422 189.264L34.5956 188.927C34.7997 188.858 34.9747 188.723 35.0926 188.542C35.1333 188.452 35.1543 188.353 35.1543 188.254C35.1543 188.154 35.1333 188.056 35.0926 187.965L35.6216 187.725L37.0324 190.771L36.5194 191.011C36.4716 190.927 36.4071 190.854 36.3299 190.796C36.2526 190.738 36.1644 190.697 36.0705 190.674C35.852 190.646 35.6299 190.68 35.4293 190.771L28.0389 194.073C27.8433 194.158 27.6763 194.297 27.558 194.474C27.5083 194.557 27.4756 194.65 27.4618 194.746C27.4481 194.843 27.4535 194.941 27.4778 195.035L26.9648 195.291ZM22.8448 191.877C22.6402 191.382 22.315 190.947 21.899 190.61C21.5142 190.338 21.2096 190.242 20.9692 190.354C20.911 190.384 20.8613 190.428 20.8249 190.482C20.8094 190.512 20.8014 190.545 20.8014 190.578C20.8014 190.612 20.8094 190.645 20.8249 190.674C20.8175 190.711 20.8175 190.75 20.8249 190.787L21.0333 190.963C21.1238 191.021 21.1969 191.102 21.2449 191.198C21.2929 191.294 21.314 191.401 21.3058 191.508C21.293 191.601 21.2569 191.69 21.2008 191.765C21.1448 191.841 21.0707 191.901 20.9852 191.941C20.8105 192.012 20.6148 192.012 20.4401 191.941C20.2573 191.852 20.1144 191.697 20.0394 191.508C19.9763 191.358 19.9438 191.198 19.9438 191.035C19.9438 190.873 19.9763 190.712 20.0394 190.562C20.1032 190.41 20.1972 190.271 20.3156 190.156C20.434 190.04 20.5745 189.949 20.7287 189.889C21.0091 189.755 21.3158 189.686 21.6264 189.686C21.9371 189.686 22.2438 189.755 22.5242 189.889C23.1616 190.164 23.6674 190.675 23.9349 191.316C24.2322 191.948 24.278 192.67 24.0632 193.336C23.9842 193.637 23.8378 193.916 23.6351 194.152C23.4323 194.388 23.1785 194.575 22.8929 194.698C22.7442 194.765 22.583 194.8 22.42 194.8C22.257 194.8 22.0958 194.765 21.9471 194.698C21.7949 194.638 21.6567 194.547 21.5409 194.431C21.4251 194.315 21.3342 194.177 21.2738 194.025C21.2036 193.839 21.2036 193.634 21.2738 193.448C21.2999 193.357 21.3468 193.274 21.4108 193.204C21.4748 193.134 21.5541 193.081 21.6425 193.047C21.7258 193.001 21.8196 192.976 21.915 192.976C22.0104 192.976 22.1042 193.001 22.1875 193.047C22.2689 193.114 22.3311 193.201 22.3677 193.299C22.4043 193.398 22.4141 193.505 22.3959 193.608V193.865C22.3857 193.907 22.3857 193.951 22.3959 193.993C22.4056 194.027 22.4239 194.059 22.4492 194.084C22.4745 194.109 22.5058 194.128 22.5402 194.137C22.5727 194.153 22.6083 194.161 22.6444 194.161C22.6805 194.161 22.7161 194.153 22.7486 194.137C23.0051 194.041 23.1494 193.736 23.1654 193.239C23.1899 192.687 23.0799 192.137 22.8448 191.636M21.0173 180.575L19.2378 175.397C19.2073 175.28 19.1527 175.171 19.0775 175.076C18.9913 174.972 18.8814 174.889 18.7569 174.836L18.6607 174.547L21.386 173.649L21.5463 174.114C21.1022 174.364 20.7402 174.737 20.5043 175.188C20.3586 175.592 20.3586 176.035 20.5043 176.439L21.0333 178.042L29.3214 175.349C29.4277 175.331 29.5293 175.292 29.6202 175.234C29.7111 175.176 29.7894 175.101 29.8504 175.012C29.9092 174.932 29.9509 174.841 29.9729 174.745C29.995 174.648 29.9969 174.548 29.9787 174.451L30.5237 174.275L31.5337 177.481L30.9886 177.657C30.953 177.57 30.8986 177.492 30.8293 177.428C30.7601 177.364 30.6776 177.317 30.5879 177.288C30.38 177.218 30.1545 177.218 29.9466 177.288L22.2517 179.789C22.0446 179.853 21.8607 179.975 21.7226 180.142C21.6643 180.219 21.6228 180.307 21.6007 180.401C21.5786 180.495 21.5764 180.592 21.5944 180.687L21.0173 180.575ZM17.4263 168.375C17.2918 167.742 17.3073 167.086 17.4715 166.459C17.6357 165.833 17.9441 165.254 18.3721 164.768C19.3057 163.635 20.6134 162.873 22.0593 162.62C23.4648 162.271 24.9487 162.436 26.2434 163.085C26.8269 163.363 27.3387 163.772 27.7391 164.279C28.1395 164.787 28.4179 165.379 28.5527 166.011C28.6875 166.644 28.6751 167.298 28.5166 167.925C28.358 168.552 28.0574 169.134 27.6381 169.626C26.7616 170.819 25.4883 171.66 24.0471 171.998C22.6258 172.349 21.1263 172.184 19.8149 171.533C19.2252 171.262 18.7067 170.857 18.3005 170.351C17.8942 169.844 17.6114 169.25 17.4744 168.616M18.292 168.439C18.3681 168.836 18.5616 169.201 18.8474 169.487C19.1332 169.773 19.4981 169.966 19.8951 170.042C21.1436 170.215 22.4143 170.134 23.6303 169.802C24.8746 169.614 26.0654 169.166 27.1251 168.487C27.4192 168.23 27.6393 167.898 27.7624 167.527C27.8856 167.156 27.9074 166.759 27.8257 166.376C27.744 165.994 27.5617 165.64 27.2977 165.352C27.0336 165.064 26.6973 164.851 26.3236 164.736C25.0819 164.548 23.8143 164.624 22.6043 164.96C21.3544 165.146 20.1578 165.594 19.0935 166.275C18.7692 166.511 18.5237 166.839 18.3893 167.216C18.2548 167.594 18.2376 168.004 18.3401 168.391M23.7906 153.049L24.3517 152.568C24.9641 153.019 25.5046 153.559 25.9549 154.172C26.2936 154.688 26.5127 155.274 26.5961 155.887C26.6929 156.529 26.6326 157.186 26.4204 157.8C26.2083 158.414 25.8505 158.968 25.3777 159.414C24.3095 160.437 22.9238 161.065 21.4501 161.193C20.0155 161.421 18.5459 161.156 17.282 160.44C16.7533 160.139 16.3024 159.718 15.9656 159.211C15.6287 158.705 15.4153 158.126 15.3422 157.522C15.3189 157.271 15.3189 157.019 15.3422 156.769C15.3468 156.521 15.3736 156.274 15.4224 156.031C15.4736 155.853 15.5111 155.67 15.5346 155.486C15.5506 155.369 15.5506 155.25 15.5346 155.133C15.5468 155.097 15.5468 155.058 15.5346 155.021C15.4942 154.956 15.4394 154.901 15.3743 154.861V154.38L17.6347 154.091V154.556C17.1048 154.795 16.6623 155.193 16.3682 155.694C16.0782 156.176 15.9543 156.739 16.0155 157.298C16.0155 157.378 16.0155 157.458 16.0155 157.538C16.0332 157.628 16.0657 157.715 16.1117 157.795C16.262 158.119 16.4846 158.405 16.7625 158.63C17.0404 158.855 17.3662 159.014 17.7148 159.093C18.8708 159.298 20.0537 159.298 21.2096 159.093C22.3588 159.034 23.4689 158.657 24.4159 158.003C24.7382 157.731 24.9824 157.379 25.1233 156.982C25.2642 156.584 25.2966 156.157 25.2174 155.743C25.1502 155.268 24.9807 154.814 24.7205 154.412C24.3913 153.908 23.9794 153.464 23.5021 153.097M14.9094 152.007L14.6369 148.16H15.1819C15.1699 148.281 15.1979 148.403 15.2615 148.508C15.3252 148.612 15.4211 148.692 15.5346 148.737C15.6853 148.769 15.8414 148.768 15.9912 148.732C16.1411 148.695 16.2809 148.626 16.4003 148.529L20.1676 146.252L16.4003 145.194H16.0316H15.711C15.5433 145.222 15.3904 145.307 15.2781 145.435C15.1502 145.648 15.0785 145.891 15.0697 146.14H14.4926L14.3323 143.687H14.8934C14.9916 143.869 15.1284 144.028 15.2941 144.152C15.5635 144.309 15.8555 144.422 16.1598 144.489L22.8127 146.348C23.6609 146.546 24.4548 146.929 25.1373 147.471C25.5951 147.884 25.8764 148.458 25.9228 149.074C25.9801 149.536 25.8661 150.004 25.6022 150.388C25.4794 150.555 25.3204 150.692 25.1372 150.79C24.9541 150.887 24.7513 150.941 24.5441 150.949C24.2171 150.974 23.8895 150.908 23.5983 150.757C23.4674 150.683 23.3584 150.576 23.2823 150.447C23.2063 150.317 23.166 150.17 23.1654 150.019C23.143 149.771 23.2177 149.524 23.3738 149.33C23.5691 149.116 23.8274 148.97 24.1113 148.913C24.2804 148.898 24.439 148.824 24.5601 148.705C24.6017 148.66 24.632 148.607 24.6487 148.548C24.6655 148.49 24.6681 148.428 24.6563 148.368C24.6324 148.219 24.5735 148.077 24.4844 147.954C24.3952 147.832 24.2784 147.732 24.1433 147.663C23.7811 147.438 23.3863 147.271 22.9731 147.166L16.272 151.19C16.0761 151.315 15.9027 151.472 15.759 151.655C15.6312 151.809 15.5382 151.99 15.4865 152.184L14.9094 152.007ZM14.4285 134.886H14.9896C15.0315 135.087 15.1319 135.271 15.2781 135.415C15.4435 135.542 15.6467 135.61 15.8552 135.607L23.6464 135.88C23.7809 135.904 23.9192 135.9 24.0519 135.867C24.1846 135.834 24.3086 135.773 24.4159 135.688C24.5687 135.45 24.6366 135.167 24.6082 134.886C24.6082 134.662 24.6082 134.517 24.7365 134.453C24.8563 134.414 24.9854 134.414 25.1052 134.453C25.7975 134.56 26.4437 134.867 26.9648 135.335C27.7022 135.912 28.0549 136.393 28.0549 136.794C28.0537 136.841 28.0415 136.887 28.0192 136.929C27.9969 136.971 27.9653 137.007 27.9267 137.034C27.8437 137.064 27.7532 137.064 27.6702 137.034H27.59C27.3473 136.958 27.1113 136.861 26.8847 136.746L26.4678 136.617H26.1953C25.9866 136.59 25.7752 136.642 25.6022 136.762C25.5283 136.81 25.4686 136.877 25.4291 136.956C25.3897 137.035 25.3719 137.123 25.3777 137.211L25.2334 141.315C25.197 141.519 25.2369 141.73 25.3457 141.908C25.4003 141.972 25.4698 142.021 25.5481 142.052C25.6264 142.083 25.711 142.094 25.7945 142.084C25.9434 142.105 26.0945 142.105 26.2434 142.084L26.8366 141.94C27.0912 141.84 27.3671 141.807 27.6381 141.844C27.7984 141.844 27.8626 141.988 27.8626 142.164C27.8464 142.305 27.7908 142.438 27.7022 142.549C27.5616 142.712 27.4117 142.868 27.2534 143.014C26.8672 143.338 26.435 143.603 25.9709 143.799C25.5926 143.973 25.1843 144.071 24.7685 144.088C24.6786 144.106 24.586 144.106 24.496 144.088C24.496 144.088 24.3357 143.783 24.2235 143.254C24.1619 142.991 24.0085 142.758 23.7906 142.597C23.33 142.302 22.8346 142.065 22.3158 141.892L17.5064 140.08C17.0095 139.904 16.6408 139.776 16.4003 139.711C16.238 139.614 16.0661 139.533 15.8873 139.471C15.7441 139.451 15.5983 139.465 15.4617 139.513C15.3252 139.56 15.2018 139.639 15.1018 139.743C14.9168 140.041 14.8273 140.388 14.8453 140.737H14.2842L14.4285 134.886ZM15.1659 137.579C15.1437 137.711 15.1494 137.847 15.1825 137.976C15.2157 138.106 15.2755 138.227 15.3583 138.333C15.6749 138.59 16.0402 138.781 16.4324 138.894L22.8448 141.202L23.7105 141.507H23.9029C24.0458 141.521 24.1887 141.481 24.3036 141.395C24.3946 141.27 24.4347 141.115 24.4159 140.962L24.5762 137.868L15.1659 137.579ZM24.7846 134.71C24.7144 134.493 24.587 134.299 24.4159 134.149C24.1878 133.95 23.9344 133.783 23.6624 133.652L17.2499 130.445C17.1118 130.381 16.9665 130.332 16.8171 130.301C16.6504 130.249 16.4783 130.217 16.3041 130.205C16.2469 130.195 16.1881 130.204 16.1362 130.23C16.0843 130.256 16.042 130.298 16.0155 130.349C15.945 130.488 15.9171 130.644 15.9354 130.798H15.3743C15.3774 130.464 15.3176 130.132 15.198 129.82C15.0708 129.533 14.8914 129.272 14.6689 129.051V128.586L23.5662 125.877C24.0406 125.756 24.5023 125.589 24.9449 125.38C25.2355 125.229 25.4795 125.002 25.6503 124.722H26.2274L25.8907 128.49H25.3296C25.3433 128.389 25.3314 128.286 25.2949 128.191C25.2585 128.095 25.1988 128.011 25.1212 127.945C24.9485 127.79 24.7277 127.699 24.496 127.688H24.2716H23.9991L22.941 128.009L22.5723 132.209L23.47 132.626C23.6187 132.726 23.7877 132.793 23.9651 132.821C24.1425 132.848 24.3238 132.837 24.496 132.786C24.6304 132.708 24.746 132.602 24.8347 132.474C24.9233 132.347 24.9828 132.202 25.009 132.049H25.5701L25.3457 134.63L24.7846 134.71ZM17.6347 129.756L21.7868 131.808L22.0753 128.377L17.6347 129.708V129.756ZM26.2755 124.161L25.6503 124.049C25.6563 123.867 25.5933 123.69 25.4739 123.552C25.3086 123.388 25.0951 123.281 24.8647 123.247L18.821 122.077C18.3515 122.012 17.8998 121.853 17.4923 121.611C17.0849 121.369 16.73 121.048 16.4484 120.666C16.1897 120.262 16.019 119.807 15.9472 119.332C15.8754 118.857 15.9041 118.372 16.0316 117.909C16.1041 117.444 16.2877 117.003 16.5667 116.623C16.8458 116.244 17.2121 115.937 17.6347 115.729C18.4594 115.321 19.4004 115.214 20.2959 115.424C21.0341 115.553 21.7349 115.843 22.3478 116.274C22.8565 116.646 23.2283 117.176 23.4059 117.781C23.4776 117.982 23.5208 118.193 23.5341 118.406C23.5581 118.598 23.5581 118.792 23.5341 118.983C23.4629 119.339 23.3443 119.684 23.1815 120.009C22.9961 120.321 22.7573 120.598 22.4761 120.827L25.3296 121.372C25.5355 121.454 25.765 121.454 25.9709 121.372C26.0649 121.331 26.1485 121.27 26.2152 121.192C26.2818 121.114 26.3299 121.022 26.3556 120.923L26.9167 121.035L26.2755 124.161ZM18.2599 119.913L20.873 120.426C21.0525 120.468 21.239 120.469 21.4191 120.43C21.5992 120.392 21.7686 120.313 21.915 120.202C22.2007 119.979 22.3947 119.66 22.4601 119.304C22.5104 119.109 22.5006 118.904 22.4319 118.715C22.3632 118.526 22.2389 118.363 22.0753 118.246C21.4338 117.845 20.7108 117.593 19.9592 117.508C19.2031 117.296 18.4096 117.252 17.6347 117.38C17.4372 117.434 17.2588 117.542 17.1199 117.692C16.981 117.842 16.8872 118.029 16.8492 118.23C16.8027 118.409 16.7988 118.596 16.8378 118.777C16.8767 118.958 16.9575 119.128 17.0736 119.272C17.2023 119.447 17.3653 119.594 17.5527 119.704C17.7402 119.815 17.948 119.886 18.1637 119.913M27.4137 107.569L28.103 107.296C28.5486 107.954 28.8843 108.679 29.097 109.445C29.249 110.05 29.249 110.683 29.097 111.288C28.9658 111.924 28.6831 112.518 28.2727 113.02C27.8624 113.523 27.3367 113.918 26.7404 114.174C25.3947 114.775 23.8831 114.893 22.4601 114.51C21.0334 114.23 19.7445 113.472 18.805 112.362C18.4152 111.907 18.138 111.367 17.996 110.785C17.854 110.203 17.851 109.595 17.9874 109.012C18.0432 108.766 18.1182 108.525 18.2118 108.29C18.3015 108.061 18.4143 107.84 18.5485 107.633C18.6767 107.425 18.7729 107.28 18.837 107.152C18.8932 107.053 18.9312 106.944 18.9492 106.832C18.9653 106.79 18.9653 106.745 18.9492 106.703C18.9276 106.63 18.8951 106.559 18.8531 106.495L18.9653 106.03L21.4982 106.607L21.386 107.072C20.7987 107.117 20.2393 107.341 19.7829 107.713C19.3366 108.069 19.0254 108.567 18.9011 109.124V109.364V109.637C18.9321 109.988 19.0419 110.327 19.2224 110.63C19.4028 110.932 19.6492 111.19 19.9432 111.384C20.9336 111.969 22.0187 112.376 23.1494 112.587C24.2717 112.898 25.4577 112.898 26.5801 112.587C26.9924 112.454 27.3601 112.21 27.6429 111.882C27.9257 111.554 28.1127 111.154 28.1832 110.727C28.2954 110.264 28.2954 109.78 28.1832 109.316C28.036 108.75 27.8035 108.21 27.4938 107.713M19.4783 103.385L19.6386 102.888C19.7572 102.817 19.8563 102.718 19.9271 102.599C20.0194 102.461 20.0897 102.31 20.1355 102.15L22.0913 96.4434C22.1583 96.3084 22.1965 96.161 22.2036 96.0105C22.2265 95.8618 22.2265 95.7104 22.2036 95.5617L22.3639 95.0807L25.0411 95.9945L24.8968 96.4434C24.3389 96.4375 23.7881 96.5696 23.2937 96.8281C22.9046 97.0357 22.6114 97.3863 22.4761 97.806L22.1875 98.6397L30.4596 101.349C30.5534 101.412 30.6601 101.453 30.7719 101.469C30.8837 101.485 30.9977 101.476 31.1054 101.442C31.2131 101.408 31.3119 101.351 31.3944 101.273C31.4768 101.196 31.5409 101.102 31.5818 100.996L32.1108 101.189L31.0367 104.299L30.4596 104.202C30.4735 103.991 30.4291 103.781 30.3314 103.593C30.1878 103.451 30.0117 103.347 29.8184 103.289L21.5142 100.435L21.2738 101.141C21.1059 101.601 21.1059 102.107 21.2738 102.567C21.4755 103.069 21.8285 103.494 22.2837 103.786L22.1234 104.235L19.4783 103.385ZM23.1815 93.3975L24.7846 90.1912C24.9897 89.4265 25.3934 88.7296 25.9549 88.1713C26.4177 87.8346 26.9885 87.6805 27.558 87.7385L28.0389 87.8186C28.1875 87.8597 28.3323 87.9133 28.4717 87.9789C29.0327 88.2142 29.4926 88.64 29.7703 89.1813C30.0252 89.7207 30.0983 90.3282 29.9787 90.9126H30.1229C30.4742 90.2997 31.0485 89.846 31.7261 89.6462C32.3996 89.4545 33.1207 89.5231 33.746 89.8386C34.1194 89.9629 34.4586 90.1725 34.7369 90.4507C35.0152 90.729 35.2248 91.0683 35.3491 91.4417C35.5132 92.2895 35.3772 93.168 34.9644 93.9265L33.1689 97.7419L32.6559 97.5014C32.692 97.4151 32.7106 97.3225 32.7106 97.2289C32.7106 97.1353 32.692 97.0427 32.6559 96.9564C32.5363 96.7702 32.363 96.6249 32.1589 96.5396L24.8166 93.1249C24.6207 93.0364 24.4059 92.9978 24.1914 93.0127C24.0008 93.0553 23.8341 93.1702 23.7265 93.3333L23.1815 93.3975ZM25.0571 91.3615L28.6962 92.9807L29.0008 92.3394C29.1038 92.1328 29.1574 91.905 29.1574 91.6741C29.1574 91.4432 29.1038 91.2155 29.0008 91.0088C28.7615 90.5494 28.3707 90.1869 27.8946 89.9828C27.4049 89.717 26.8354 89.6373 26.2915 89.7584C26.0419 89.8551 25.8156 90.0038 25.6277 90.1945C25.4398 90.3851 25.2945 90.6135 25.2014 90.8646L25.0571 91.3615ZM29.4657 93.4135L33.5376 95.3052L33.8582 94.6158C34.0004 94.3761 34.0859 94.107 34.1081 93.8291C34.1304 93.5513 34.0888 93.272 33.9865 93.0127C33.7142 92.4976 33.2642 92.0988 32.72 91.8905C32.4404 91.7381 32.1322 91.6452 31.815 91.6176C31.4977 91.59 31.1781 91.6283 30.8764 91.7302C30.3403 91.9516 29.9099 92.3706 29.6741 92.9005L29.4657 93.4135Z" fill="white" fill-opacity="0.16"/>
<path d="M26.8999 84.8689L29.9619 79.0816C30.0365 78.9575 30.0906 78.8222 30.1222 78.6808C30.1199 78.5839 30.0796 78.4918 30.0099 78.4243L30.1542 78.1197L32.6551 79.4503L32.4306 79.8671C31.955 79.7231 31.4474 79.7231 30.9718 79.8671C30.4966 80.098 30.1249 80.4983 29.9298 80.9893L28.8557 82.897L32.3665 84.7727L33.0559 83.4741C33.2336 83.2229 33.3081 82.9131 33.2643 82.6085C33.221 82.4721 33.1483 82.3468 33.0514 82.2415C32.9544 82.1363 32.8356 82.0536 32.7032 81.9993L32.9276 81.5825L35.4285 82.9131L35.2682 83.3619C35.0244 83.2435 34.7498 83.2042 34.4826 83.2497C34.3749 83.2798 34.2748 83.3325 34.1891 83.4044C34.1034 83.4763 34.0341 83.5657 33.9857 83.6665L33.1681 85.2696L37.1759 87.3857L38.6668 84.5803C38.7796 84.368 38.8491 84.1353 38.8711 83.8958C38.8931 83.6564 38.8673 83.4149 38.795 83.1856C38.6387 82.6741 38.3174 82.2287 37.8812 81.9191L38.1057 81.5023L40.5584 82.8008L36.6629 90.1431L36.1178 89.7744C36.1655 89.6886 36.1906 89.592 36.1906 89.4938C36.1906 89.3957 36.1655 89.2991 36.1178 89.2133C35.971 88.9871 35.7662 88.8044 35.5247 88.6843L28.6313 84.965C28.4074 84.8368 28.1515 84.7756 27.8938 84.7887C27.6952 84.8227 27.5173 84.9318 27.3969 85.0933L26.8999 84.8689ZM33.5528 73.118L34.0338 73.4226C33.9615 73.6027 33.9615 73.8037 34.0338 73.9837C34.12 74.183 34.2656 74.3509 34.4506 74.4646L37.3682 76.3563L39.8691 72.4928L36.8713 70.537C36.69 70.4176 36.4791 70.351 36.2621 70.3446C36.0697 70.3632 35.8917 70.4551 35.7651 70.6011L35.2842 70.2805L37.0797 67.5232L37.5606 67.8278C37.4831 68.0179 37.4831 68.2308 37.5606 68.4209C37.6565 68.6106 37.8074 68.767 37.9935 68.8698L44.8868 73.3425C45.0454 73.4617 45.2343 73.5339 45.4319 73.5509C45.6424 73.5195 45.8382 73.4243 45.993 73.2783L46.4739 73.599L44.6784 76.3563L44.1975 76.0517C44.2534 75.8471 44.2534 75.6312 44.1975 75.4265C44.1031 75.2492 43.958 75.1041 43.7807 75.0097L40.5745 72.9417L38.0576 76.8052L41.2638 78.8732C41.4178 79.0111 41.6182 79.0856 41.8249 79.0816C42.03 79.0481 42.2201 78.953 42.37 78.8091L42.8509 79.1137L41.0554 81.8871L40.5745 81.5664C40.6301 81.3726 40.6301 81.1671 40.5745 80.9733C40.481 80.7912 40.3361 80.6407 40.1577 80.5404L33.3444 76.1319C33.1651 76.0102 32.9518 75.9485 32.7352 75.9555C32.5455 75.9715 32.3685 76.0571 32.2383 76.196L31.7573 75.8754L33.5528 73.118ZM40.4783 63.1306L40.9111 63.4833C40.815 63.6478 40.7863 63.8431 40.831 64.0284C40.8827 64.2449 41.0144 64.4339 41.1997 64.5574L43.8929 66.7376L46.7945 63.1627L44.1013 60.9183C43.9375 60.7793 43.7372 60.6903 43.5242 60.6618C43.3309 60.6627 43.1439 60.7307 42.9952 60.8542L42.5463 60.5015L44.6143 57.9365L45.0632 58.3052C44.9564 58.4775 44.9218 58.6848 44.967 58.8824C45.0358 59.082 45.1646 59.2556 45.3357 59.3793L51.636 64.4612C51.7863 64.5955 51.9683 64.6893 52.165 64.7337C52.3737 64.7228 52.5745 64.6503 52.7421 64.5253L53.191 64.878L51.1069 67.443L50.6741 67.0743C50.7578 66.8829 50.7856 66.6717 50.7542 66.4651C50.6749 66.2845 50.5473 66.1292 50.3855 66.0162L47.4358 63.6276L44.5342 67.3308L47.4839 69.7194C47.6312 69.8669 47.8225 69.9626 48.0289 69.992C48.2388 69.9736 48.439 69.8957 48.6061 69.7675L49.0389 70.1202L46.9709 72.6211L46.49 72.2684C46.5649 72.0802 46.5925 71.8765 46.5701 71.6752C46.4976 71.4819 46.3692 71.3145 46.2014 71.1943L39.9172 66.1124C39.7505 65.9681 39.5434 65.8785 39.324 65.8559C39.1355 65.8564 38.9534 65.9247 38.811 66.0483L38.4744 65.7277L40.4783 63.1306ZM48.2053 54.1211L48.6061 54.5219C48.5455 54.6007 48.5027 54.6916 48.4806 54.7884C48.4584 54.8853 48.4575 54.9857 48.4778 55.083C48.5485 55.3338 48.7008 55.5538 48.9107 55.7082L50.9947 57.7121L51.8123 56.8785C52.4498 56.1043 53.3644 55.6096 54.3612 55.4998C54.8012 55.4949 55.2375 55.5806 55.6429 55.7516C56.0484 55.9226 56.4142 56.1752 56.7178 56.4937C57.3299 57.0765 57.6871 57.8773 57.7118 58.7221C57.7312 59.1649 57.6538 59.6066 57.4849 60.0164C57.316 60.4262 57.0597 60.7942 56.7339 61.0947L53.8482 64.1246L53.4314 63.7238C53.4988 63.652 53.5473 63.5646 53.5725 63.4695C53.5977 63.3743 53.5988 63.2744 53.5757 63.1787C53.4883 62.9271 53.3395 62.7012 53.1429 62.5214L47.532 57.1029C47.3615 56.9101 47.1387 56.7709 46.8907 56.7021C46.7923 56.688 46.6921 56.6934 46.5958 56.7182C46.4995 56.743 46.409 56.7865 46.3296 56.8464L45.9289 56.4617L48.2053 54.1211ZM51.5879 58.3052L55.0826 61.6718L55.6437 61.0786C55.8569 60.9053 56.0219 60.6801 56.1229 60.4246C56.224 60.1692 56.2577 59.892 56.2209 59.6198C56.0242 59.0248 55.6846 58.4872 55.2318 58.054C54.779 57.6207 54.2269 57.3052 53.6238 57.135C53.3491 57.0952 53.0687 57.1275 52.8101 57.2287C52.5516 57.3299 52.3238 57.4964 52.1489 57.7121L51.5879 58.3052ZM51.8444 51.1714L51.4436 50.7706L53.736 48.398L54.1368 48.7988C54.0789 48.8789 54.0377 48.9699 54.0157 49.0663C53.9937 49.1627 53.9912 49.2625 54.0086 49.3599C54.0594 49.5646 54.1712 49.7491 54.3292 49.8889L60.1485 55.5158C60.3 55.6754 60.4952 55.7869 60.7096 55.8365C60.8076 55.8449 60.9063 55.8337 60.9999 55.8034C61.0935 55.7731 61.1801 55.7244 61.2546 55.6601L61.6554 56.0609L59.3149 58.4335L58.9141 58.0327C59.0259 57.8864 59.0775 57.7029 59.0584 57.5197C59.0093 57.2969 58.8916 57.095 58.7217 56.9426L52.9024 51.2996C52.7483 51.138 52.5457 51.0311 52.3253 50.995C52.2309 50.9857 52.1356 50.995 52.0448 51.0225C51.954 51.05 51.8696 51.0952 51.7963 51.1554M55.4193 46.9231L57.9843 44.8872L58.353 45.32C58.2331 45.507 58.1666 45.7232 58.1606 45.9452C58.2035 46.1296 58.2916 46.3005 58.4171 46.4422L62.2165 50.947L62.0883 44.3101L61.6234 43.749C61.4916 43.5826 61.3129 43.4597 61.1104 43.3963C60.9127 43.359 60.7082 43.3931 60.5332 43.4925L60.1645 43.0596L62.6974 40.9435L63.0662 41.3764C62.9995 41.4466 62.948 41.5298 62.9149 41.6209C62.8818 41.7119 62.8678 41.8087 62.8738 41.9054C62.9042 42.1162 62.9994 42.3123 63.1463 42.4665L68.3404 48.6705C68.4709 48.8522 68.6564 48.9871 68.8694 49.0553C68.9631 49.0745 69.0598 49.0745 69.1535 49.0552C69.2472 49.0359 69.336 48.9978 69.4145 48.9431L69.7832 49.3759L67.3304 51.3798L66.9778 50.947C67.104 50.8062 67.1727 50.623 67.1701 50.434C67.1526 50.2102 67.056 49.9999 66.8976 49.8408L63.0501 45.2399L63.1784 51.8928L63.7074 52.518C63.8074 52.6829 63.9519 52.8162 64.1242 52.9028C64.3238 52.9367 64.529 52.8968 64.7013 52.7905L65.07 53.2234L62.5211 55.3716L62.1524 54.9387C62.2186 54.8715 62.27 54.791 62.3031 54.7027C62.3362 54.6143 62.3504 54.5199 62.3448 54.4257C62.3198 54.2039 62.2243 53.996 62.0722 53.8326L56.8621 47.6285C56.7272 47.4656 56.5496 47.3434 56.3491 47.2758C56.2566 47.2523 56.1602 47.2487 56.0662 47.2653C55.9723 47.2819 55.8829 47.3183 55.8041 47.372L55.4193 46.9231ZM57.5514 42.0176C57.9802 41.6897 58.3126 41.2522 58.5133 40.7512C58.6736 40.3023 58.6736 39.9817 58.5133 39.7893C58.4641 39.7422 58.4032 39.709 58.337 39.6931C58.3102 39.6776 58.2798 39.6695 58.2488 39.6695C58.2178 39.6695 58.1874 39.6776 58.1606 39.6931L58.0644 39.8053L57.9683 40.0458C57.9384 40.1495 57.8809 40.2432 57.8018 40.3166C57.7227 40.3901 57.625 40.4405 57.5194 40.4626C57.4245 40.4804 57.3265 40.4719 57.236 40.438C57.1456 40.4041 57.0662 40.3461 57.0064 40.2702C56.9459 40.2003 56.9004 40.1187 56.8728 40.0304C56.8452 39.9421 56.8361 39.8492 56.8461 39.7572C56.8794 39.554 56.9881 39.3707 57.1507 39.2442C57.2721 39.1365 57.4146 39.0552 57.5692 39.0055C57.7237 38.9558 57.8869 38.9389 58.0484 38.9557C58.2112 38.9673 58.3697 39.0133 58.5134 39.0907C58.6571 39.1681 58.7827 39.275 58.882 39.4045C59.0815 39.6474 59.224 39.9319 59.2989 40.2371C59.3738 40.5422 59.3793 40.8604 59.3149 41.168C59.2305 41.8561 58.8793 42.4835 58.337 42.9154C57.8062 43.3679 57.1265 43.6078 56.4293 43.5887C56.1244 43.5905 55.8228 43.5254 55.5458 43.398C55.2688 43.2706 55.0232 43.0839 54.8262 42.8512C54.7132 42.7328 54.6264 42.5921 54.5712 42.4381C54.5161 42.2841 54.4938 42.1202 54.5059 41.9571C54.518 41.7939 54.5642 41.6351 54.6414 41.4909C54.7187 41.3467 54.8253 41.2203 54.9544 41.1199C55.1121 40.9883 55.3101 40.9147 55.5155 40.9115C55.6089 40.9108 55.7012 40.9323 55.7848 40.9741C55.8683 41.0159 55.9409 41.0768 55.9964 41.1519C56.0566 41.2309 56.0948 41.3245 56.107 41.4231C56.1192 41.5217 56.105 41.6217 56.0658 41.713C56.0267 41.8043 55.964 41.8836 55.8843 41.9427C55.8045 42.0019 55.7104 42.0388 55.6117 42.0497L55.3391 42.1298H55.2269C55.1983 42.1497 55.1747 42.176 55.158 42.2066C55.1413 42.2372 55.132 42.2713 55.1307 42.3062C55.1301 42.3397 55.1369 42.3729 55.1508 42.4034C55.1647 42.434 55.1852 42.461 55.2109 42.4825C55.3872 42.7069 55.7239 42.7711 56.2048 42.6428C56.7167 42.5192 57.1902 42.2714 57.5835 41.9214M73.0536 45.833C73.188 45.6511 73.2661 45.4337 73.278 45.2078C73.3083 44.904 73.3083 44.5979 73.278 44.294L71.9795 37.1762C71.934 37.0707 71.8804 36.9688 71.8192 36.8716C71.8192 36.7273 71.6749 36.5831 71.5787 36.4067C71.549 36.3549 71.5031 36.3143 71.4481 36.2911C71.393 36.268 71.3319 36.2635 71.2741 36.2785C71.1256 36.3051 70.987 36.3716 70.8733 36.4708L70.5848 35.9899C70.8542 35.7894 71.0828 35.539 71.2581 35.2525C71.418 34.9892 71.5166 34.6933 71.5466 34.3868L71.9474 34.1303L79.466 39.6129C79.8527 39.9086 80.2598 40.1764 80.6844 40.4145C80.9549 40.5618 81.2581 40.639 81.5661 40.6389L81.8707 41.1199L78.6645 43.1238L78.3599 42.6428C78.4509 42.5979 78.5284 42.5298 78.5847 42.4454C78.641 42.361 78.6741 42.2632 78.6805 42.1619C78.6922 41.9297 78.6305 41.6997 78.5042 41.5046L78.3438 41.3283L78.1515 41.1519L77.2537 40.4947L73.7429 42.723L73.9353 43.7009C74.0315 44.1818 74.1918 44.4864 74.4322 44.5986C74.5724 44.6655 74.7258 44.7003 74.8811 44.7003C75.0364 44.7003 75.1898 44.6655 75.33 44.5986L75.6346 45.0796L73.3742 46.4903L73.0536 45.833ZM72.6528 37.096L73.5345 41.681L76.4522 39.8534L72.7009 37.096H72.6528ZM77.0453 31.0683L82.015 28.311C82.1249 28.249 82.2227 28.1675 82.3035 28.0705C82.3932 27.9711 82.4542 27.8492 82.4799 27.7178L82.7524 27.5736L84.1471 30.0744L83.7303 30.3149C83.4 29.9245 82.958 29.6447 82.4638 29.5133C82.0446 29.4213 81.6062 29.4839 81.2294 29.6897L79.7546 30.5233L83.9868 38.1381C84.0722 38.3338 84.2183 38.4968 84.4036 38.603C84.4973 38.6431 84.5982 38.6638 84.7002 38.6638C84.8021 38.6638 84.903 38.6431 84.9968 38.603L85.2693 39.0999L82.3837 40.7031L82.1112 40.2061C82.1925 40.153 82.2608 40.0822 82.3108 39.9988C82.3608 39.9155 82.3912 39.8219 82.3997 39.7252C82.4161 39.5048 82.3598 39.2852 82.2394 39.0999L78.3278 32.0302C78.226 31.8394 78.0698 31.6831 77.8789 31.5813C77.7909 31.541 77.6952 31.5201 77.5984 31.5201C77.5016 31.5201 77.4059 31.541 77.3178 31.5813L77.0453 31.0683ZM88.8282 37.1281L88.6038 36.5991C88.6813 36.5553 88.7486 36.4955 88.8011 36.4236C88.8536 36.3517 88.8902 36.2694 88.9084 36.1823C88.9525 35.9534 88.9186 35.7163 88.8122 35.509L86.3113 29.882C85.9114 29.063 85.8425 28.1214 86.1189 27.2529C86.3045 26.8011 86.5831 26.3935 86.9367 26.0565C87.2902 25.7196 87.7108 25.4608 88.1709 25.2971C88.5859 25.0872 89.0445 24.9779 89.5095 24.9779C89.9746 24.9779 90.4331 25.0872 90.8481 25.2971C91.6555 25.7209 92.2903 26.4123 92.6436 27.2529C92.9755 27.9252 93.1405 28.6676 93.1245 29.4171C93.1204 30.0537 92.8999 30.6699 92.4993 31.1645C92.376 31.333 92.2304 31.484 92.0665 31.6134C91.9201 31.7354 91.7584 31.8378 91.5856 31.918C91.2521 32.0742 90.8941 32.1718 90.5275 32.2066C90.1709 32.247 89.8097 32.2087 89.4694 32.0943L90.6557 34.7555C90.725 34.9689 90.8745 35.1471 91.0726 35.2525C91.1665 35.2917 91.2673 35.3119 91.3691 35.3119C91.4709 35.3119 91.5718 35.2917 91.6657 35.2525L91.8902 35.7655L88.8282 37.1281ZM87.674 28.0545L88.7641 30.4912C88.828 30.6627 88.9307 30.817 89.0642 30.9421C89.1977 31.0673 89.3584 31.1599 89.5336 31.2126C89.8675 31.3489 90.2416 31.3489 90.5756 31.2126C90.7647 31.1446 90.9287 31.0209 91.0461 30.8577C91.1634 30.6946 91.2285 30.4997 91.2329 30.2988C91.1913 29.5414 90.9833 28.8025 90.6237 28.1346C90.3618 27.4285 89.9642 26.7804 89.4534 26.2269C89.2918 26.1013 89.0992 26.0216 88.8961 25.9962C88.693 25.9708 88.4868 26.0007 88.2992 26.0827C88.1223 26.1449 87.963 26.2488 87.8347 26.3855C87.7063 26.5222 87.6127 26.6877 87.5617 26.8682C87.4953 27.0734 87.4711 27.29 87.4904 27.5048C87.5096 27.7197 87.5721 27.9285 87.674 28.1186M95.8819 33.0883C96.06 32.944 96.1888 32.7479 96.2506 32.5272C96.3478 32.2368 96.4071 31.935 96.427 31.6294L96.8919 24.4154C96.9158 24.2668 96.9158 24.1152 96.8919 23.9665C96.8665 23.7931 96.829 23.6217 96.7796 23.4535C96.7656 23.3955 96.7329 23.3437 96.6866 23.306C96.6402 23.2684 96.5828 23.247 96.5231 23.2451C96.3726 23.234 96.222 23.2675 96.0903 23.3413L95.914 22.7963C96.2275 22.6761 96.5117 22.4902 96.7476 22.2512C96.9691 22.0354 97.139 21.7724 97.2445 21.4817L97.6934 21.3374L103.657 28.4713C103.966 28.8494 104.298 29.2081 104.651 29.5454C104.877 29.7556 105.153 29.9046 105.452 29.9782L105.629 30.5233L102.038 31.6936L101.862 31.1485C101.96 31.1243 102.051 31.0744 102.124 31.0041C102.197 30.9337 102.25 30.8453 102.278 30.7477C102.358 30.5304 102.358 30.2918 102.278 30.0744L102.166 29.866L102.006 29.6416L101.284 28.856L97.2766 30.1546V31.1485C97.2486 31.3229 97.2569 31.5012 97.3011 31.6722C97.3452 31.8433 97.4242 32.0033 97.5331 32.1424C97.6573 32.2365 97.8005 32.3025 97.9528 32.3357C98.105 32.3689 98.2627 32.3686 98.4148 32.3348L98.5912 32.8638L96.1224 33.6654L95.8819 33.0883ZM97.6133 24.5116L97.3568 29.1286L100.563 28.0545L97.6133 24.4635V24.5116ZM106.094 30.4592L105.949 29.9141C106.116 29.8442 106.248 29.7118 106.318 29.5454C106.393 29.3271 106.393 29.0903 106.318 28.8721L104.715 22.9245C104.561 22.4747 104.501 21.9984 104.536 21.5245C104.572 21.0505 104.704 20.5887 104.923 20.1672C105.175 19.7571 105.509 19.4032 105.903 19.1274C106.297 18.8516 106.744 18.6599 107.216 18.5641C107.657 18.4209 108.126 18.3855 108.583 18.4609C109.041 18.5362 109.473 18.72 109.845 18.9969C110.605 19.5384 111.146 20.3349 111.368 21.2413C111.587 21.9631 111.636 22.7256 111.512 23.4696C111.398 24.0883 111.082 24.6519 110.615 25.0727C110.464 25.2145 110.297 25.3382 110.118 25.4414C109.954 25.543 109.775 25.6187 109.589 25.6658C109.235 25.7709 108.866 25.8143 108.498 25.7941C108.141 25.7792 107.79 25.6862 107.472 25.5216L108.226 28.343C108.266 28.5605 108.386 28.7551 108.563 28.8881C108.644 28.9501 108.737 28.9948 108.836 29.0196C108.935 29.0444 109.039 29.0488 109.14 29.0324L109.284 29.5935L106.094 30.4592ZM106.366 21.3214L107.056 23.9185C107.095 24.096 107.175 24.2621 107.289 24.4038C107.403 24.5456 107.548 24.6593 107.713 24.736C108.035 24.8998 108.406 24.9397 108.755 24.8483C108.952 24.8043 109.131 24.7032 109.271 24.5578C109.411 24.4124 109.504 24.2291 109.54 24.0307C109.618 23.2781 109.531 22.5176 109.284 21.8023C109.137 21.062 108.842 20.3588 108.418 19.7343C108.281 19.5845 108.105 19.4753 107.91 19.4187C107.715 19.3621 107.508 19.3604 107.312 19.4137C107.129 19.4487 106.956 19.5265 106.809 19.6407C106.661 19.7549 106.542 19.9023 106.462 20.071C106.363 20.2622 106.304 20.4716 106.287 20.6864C106.27 20.9012 106.297 21.1172 106.366 21.3214ZM115.809 16.7205L115.905 17.2816C115.805 17.3036 115.71 17.3464 115.627 17.4071C115.544 17.4678 115.475 17.5452 115.424 17.6342C115.356 17.8427 115.356 18.0671 115.424 18.2755L116.033 21.6901L120.554 20.8405L119.945 17.4258C119.917 17.2141 119.822 17.017 119.672 16.8648C119.605 16.7972 119.525 16.7439 119.437 16.7081C119.349 16.6723 119.254 16.6547 119.159 16.6563L119.047 16.0311L122.253 15.47L122.349 16.0151C122.252 16.0448 122.162 16.0943 122.085 16.1605C122.007 16.2267 121.945 16.3082 121.9 16.3998C121.832 16.6026 121.832 16.8223 121.9 17.0251L123.327 25.0406C123.342 25.2387 123.415 25.428 123.536 25.5857C123.702 25.7147 123.903 25.7927 124.113 25.8101L124.209 26.3712L121.003 26.9323L120.907 26.3872C121.091 26.2919 121.247 26.1478 121.355 25.9704C121.417 25.7775 121.417 25.5702 121.355 25.3773L120.698 21.642L116.161 22.4436L116.819 26.1788C116.825 26.3895 116.911 26.59 117.059 26.7399C117.221 26.8645 117.416 26.9372 117.62 26.9483L117.716 27.5094L114.51 28.0865L114.414 27.5255C114.594 27.4304 114.748 27.2928 114.863 27.1247C114.923 26.9316 114.923 26.7246 114.863 26.5315L113.452 18.516C113.435 18.2967 113.338 18.0913 113.18 17.9388C113.039 17.8126 112.856 17.7439 112.667 17.7465L112.57 17.1854L115.809 16.7205ZM127.816 14.925V15.5021C127.718 15.5186 127.624 15.5556 127.541 15.6109C127.458 15.6662 127.388 15.7384 127.335 15.8227C127.27 16.0696 127.27 16.3293 127.335 16.5762L127.527 19.4618L128.698 19.3816C129.191 19.3082 129.694 19.3326 130.179 19.4537C130.663 19.5747 131.118 19.7899 131.519 20.087C131.847 20.3748 132.113 20.7266 132.301 21.1208C132.488 21.515 132.593 21.9433 132.609 22.3795C132.689 23.2317 132.436 24.0818 131.904 24.7521C131.621 25.0958 131.267 25.3731 130.865 25.5643C130.463 25.7555 130.024 25.8558 129.579 25.8582L125.347 26.1628V25.5857C125.445 25.5754 125.54 25.5425 125.623 25.4897C125.707 25.4369 125.777 25.3655 125.828 25.2811C125.924 25.0367 125.963 24.7733 125.94 24.5116L125.395 16.7205C125.37 16.4167 125.246 16.1296 125.043 15.9029C124.912 15.7531 124.728 15.6609 124.53 15.6464V15.0853L127.816 14.925ZM127.543 20.2954L127.88 25.1048H128.698C128.971 25.116 129.243 25.057 129.487 24.9336C129.731 24.8101 129.939 24.6262 130.092 24.3994C130.382 23.8541 130.494 23.232 130.413 22.6199C130.433 21.9406 130.236 21.2726 129.852 20.7122C129.666 20.508 129.433 20.3518 129.173 20.2569C128.914 20.162 128.635 20.1312 128.361 20.1672L127.543 20.2954ZM132.497 15.1654V14.6044L135.783 14.3799V14.941C135.593 14.9851 135.427 15.0997 135.319 15.2616C135.219 15.454 135.18 15.6719 135.206 15.8869L135.767 23.9024C135.767 24.1205 135.834 24.3332 135.96 24.5116C136.025 24.5835 136.104 24.6418 136.192 24.6831C136.28 24.7243 136.376 24.7478 136.473 24.7521V25.3292L133.267 25.5536V24.9925C133.359 24.9777 133.447 24.9427 133.525 24.89C133.602 24.8374 133.667 24.7684 133.715 24.6879C133.834 24.4959 133.89 24.2719 133.876 24.0467L133.299 16.0311C133.31 15.9033 133.295 15.7744 133.254 15.6528C133.212 15.5313 133.146 15.4198 133.058 15.3258C132.996 15.2543 132.92 15.1962 132.834 15.1549C132.749 15.1136 132.656 15.0899 132.561 15.0853M137.867 14.3158H141.074V14.8929C140.863 14.9596 140.671 15.0749 140.513 15.2296C140.427 15.3984 140.383 15.5853 140.384 15.7746L140.288 21.6581L144.552 16.5762V15.9029C144.565 15.693 144.509 15.4846 144.392 15.3097C144.27 15.1468 144.094 15.033 143.895 14.9891V14.428H147.101V15.0051C147.004 15.0147 146.91 15.0437 146.825 15.0906C146.74 15.1374 146.665 15.201 146.604 15.2777C146.489 15.4599 146.428 15.6712 146.428 15.8869L146.556 24.0467C146.531 24.2655 146.582 24.4862 146.701 24.6719C146.756 24.7495 146.828 24.8141 146.911 24.8612C146.994 24.9083 147.086 24.9367 147.182 24.9444V25.5216H143.975V24.9605C144.161 24.9351 144.332 24.8441 144.456 24.704C144.595 24.5265 144.664 24.3038 144.649 24.0788L144.745 18.0671L140.497 23.181V23.9986C140.471 24.2123 140.523 24.4281 140.641 24.6078C140.761 24.7693 140.939 24.8783 141.138 24.9124V25.4735H137.851V24.9124C137.949 24.9058 138.044 24.878 138.13 24.831C138.216 24.7839 138.29 24.7187 138.348 24.6399C138.473 24.462 138.535 24.2477 138.525 24.0307L138.669 15.9349C138.666 15.7218 138.611 15.5126 138.509 15.3258C138.393 15.1665 138.221 15.0575 138.028 15.0212L137.867 14.3158ZM142.677 12.0233C143.232 12.0674 143.789 11.9505 144.28 11.6867C144.697 11.4623 144.905 11.2218 144.905 10.9653C144.927 10.9086 144.927 10.8456 144.905 10.7889C144.884 10.7611 144.858 10.7382 144.827 10.7216C144.797 10.705 144.763 10.6951 144.729 10.6928H144.601L144.28 10.837C144.188 10.8921 144.083 10.9212 143.975 10.9212C143.868 10.9212 143.763 10.8921 143.671 10.837C143.587 10.7891 143.519 10.7185 143.473 10.6335C143.428 10.5484 143.407 10.4523 143.414 10.3561C143.415 10.2661 143.434 10.1771 143.47 10.0945C143.506 10.0119 143.558 9.93733 143.623 9.87517C143.784 9.74064 143.99 9.67193 144.2 9.6828C144.359 9.68025 144.518 9.71182 144.664 9.77541C144.811 9.839 144.942 9.93313 145.049 10.0515C145.169 10.1663 145.262 10.3066 145.32 10.462C145.378 10.6174 145.401 10.7839 145.386 10.9493C145.381 11.261 145.304 11.5674 145.162 11.8452C145.021 12.123 144.818 12.3648 144.568 12.5524C144.049 13.0152 143.372 13.2618 142.677 13.2417C141.979 13.2513 141.306 12.9865 140.801 12.5043C140.565 12.3096 140.374 12.0647 140.244 11.7875C140.114 11.5102 140.047 11.2075 140.048 10.9012C140.04 10.7375 140.067 10.5739 140.128 10.4218C140.189 10.2696 140.282 10.1324 140.4 10.0195C140.506 9.89229 140.638 9.7903 140.788 9.72095C140.938 9.6516 141.101 9.61665 141.266 9.61867C141.471 9.62318 141.669 9.69659 141.827 9.82708C141.892 9.89189 141.943 9.9696 141.976 10.0552C142.009 10.1408 142.024 10.2324 142.02 10.324C142.02 10.4209 141.993 10.5159 141.942 10.5982C141.891 10.6805 141.818 10.7466 141.731 10.7889C141.643 10.8462 141.54 10.8767 141.434 10.8767C141.329 10.8767 141.226 10.8462 141.138 10.7889L140.897 10.6767H140.769C140.741 10.6638 140.711 10.6572 140.681 10.6572C140.65 10.6572 140.62 10.6638 140.593 10.6767C140.568 10.7384 140.568 10.8074 140.593 10.8691C140.593 11.1416 140.801 11.3981 141.234 11.6386C141.733 11.88 142.283 12.0008 142.837 11.9913M153.418 15.0853L157.233 15.5502L157.105 16.0311C156.989 15.9959 156.864 16.0004 156.751 16.044C156.638 16.0875 156.542 16.1676 156.48 16.2716C156.412 16.4087 156.377 16.5595 156.377 16.7125C156.377 16.8654 156.412 17.0162 156.48 17.1533L157.987 21.2893H158.083L159.83 17.7946C159.887 17.6806 159.935 17.5627 159.974 17.4419C160.012 17.3422 160.044 17.2405 160.071 17.1373C160.082 17.054 160.075 16.9692 160.05 16.8889C160.025 16.8086 159.983 16.7347 159.926 16.6724C159.738 16.5048 159.513 16.3839 159.269 16.3197V15.7586L161.706 16.0472V16.6243C161.507 16.6805 161.325 16.7852 161.177 16.9289C160.97 17.1621 160.802 17.4274 160.68 17.7144L157.586 23.8864C157.22 24.6912 156.671 25.3994 155.983 25.9544C155.489 26.3314 154.867 26.4985 154.251 26.4193C153.786 26.3869 153.347 26.1877 153.017 25.8582C152.876 25.7044 152.773 25.5203 152.714 25.3202C152.656 25.1201 152.644 24.9093 152.68 24.704C152.707 24.3738 152.836 24.0602 153.049 23.8062C153.146 23.6934 153.272 23.6086 153.413 23.5606C153.554 23.5127 153.705 23.5034 153.851 23.5337C153.971 23.5432 154.088 23.5765 154.195 23.6315C154.302 23.6865 154.398 23.7623 154.476 23.8543C154.654 24.0896 154.749 24.3769 154.748 24.6719C154.735 24.8421 154.781 25.0117 154.877 25.1528C154.954 25.2433 155.063 25.3007 155.181 25.3132C155.332 25.3189 155.482 25.2883 155.619 25.2242C155.755 25.1601 155.875 25.0641 155.967 24.9444C156.265 24.6347 156.509 24.277 156.688 23.8864L154.011 16.5281C153.926 16.3175 153.807 16.1225 153.658 15.951C153.531 15.7968 153.372 15.6712 153.193 15.5823L153.418 15.0853ZM166.627 17.2335L166.515 17.7785C166.323 17.7675 166.133 17.8306 165.986 17.9549C165.818 18.0973 165.709 18.2974 165.681 18.516L164.96 21.9146L169.465 22.8764L170.186 19.4778C170.252 19.2747 170.252 19.0558 170.186 18.8526C170.151 18.7637 170.096 18.6833 170.027 18.617C169.958 18.5506 169.876 18.4998 169.785 18.4679L169.898 17.9068L173.104 18.5961L172.992 19.1572C172.891 19.1445 172.789 19.1537 172.692 19.1841C172.595 19.2145 172.506 19.2655 172.431 19.3335C172.278 19.4836 172.182 19.6818 172.158 19.8946L170.555 27.814C170.499 28.0078 170.499 28.2134 170.555 28.4072C170.667 28.5879 170.828 28.7326 171.02 28.824L170.892 29.3851L167.685 28.6957L167.798 28.1346C168.013 28.1324 168.221 28.0591 168.391 27.9262C168.514 27.7729 168.597 27.591 168.631 27.3972L169.417 23.678L164.912 22.7321L164.126 26.4353C164.062 26.6332 164.062 26.8466 164.126 27.0445C164.235 27.2219 164.39 27.366 164.575 27.4613L164.463 28.0064L161.257 27.3171L161.369 26.772C161.575 26.749 161.773 26.6776 161.946 26.5636C162.082 26.4166 162.172 26.2324 162.203 26.0346L163.806 18.1152C163.89 17.9096 163.89 17.6795 163.806 17.4739C163.724 17.31 163.588 17.1795 163.421 17.1052L163.533 16.5441L166.627 17.2335ZM175.188 19.2374L178.394 20.2634L178.218 20.7924C177.997 20.7935 177.781 20.8544 177.593 20.9687C177.457 21.0995 177.363 21.2665 177.32 21.4497L175.493 27.0445L181.055 23.4215L181.28 22.7321C181.343 22.5285 181.343 22.3106 181.28 22.1069C181.207 21.9213 181.071 21.7678 180.895 21.6741L181.071 21.129L184.278 22.139L184.117 22.6841C184.02 22.6658 183.92 22.6677 183.823 22.6898C183.727 22.7119 183.636 22.7536 183.556 22.8123C183.394 22.9512 183.277 23.1354 183.22 23.3413L180.719 31.0363C180.657 31.2456 180.657 31.4682 180.719 31.6775C180.75 31.7703 180.8 31.8555 180.866 31.9273C180.933 31.9992 181.013 32.0561 181.103 32.0943L180.927 32.6234L177.721 31.6134L177.897 31.0683C178.085 31.1035 178.278 31.0693 178.442 30.9722C178.624 30.8376 178.754 30.6454 178.811 30.4271L180.671 24.72L175.108 28.3591L174.851 29.1446C174.773 29.3457 174.773 29.5687 174.851 29.7698C174.925 29.9598 175.068 30.1146 175.252 30.2027L175.076 30.7477L171.87 29.7217L172.046 29.1927C172.141 29.2097 172.238 29.207 172.332 29.185C172.425 29.1629 172.514 29.1219 172.591 29.0644C172.766 28.9341 172.891 28.7472 172.944 28.5354L175.444 20.8405C175.508 20.6314 175.508 20.4083 175.444 20.1992C175.42 20.1081 175.376 20.0235 175.315 19.9514C175.254 19.8794 175.178 19.8217 175.092 19.7824L175.188 19.2374ZM186.265 23.0207L189.472 24.4635C190.169 24.7259 190.791 25.1552 191.283 25.7139C191.643 26.1663 191.81 26.7423 191.748 27.3171C191.738 27.485 191.712 27.6515 191.668 27.814C191.634 27.9627 191.586 28.1077 191.524 28.2469C191.296 28.8112 190.875 29.2768 190.337 29.5614C189.806 29.8228 189.203 29.9017 188.622 29.7858V29.9301C189.242 30.2769 189.702 30.8521 189.905 31.5332C190.112 32.2061 190.061 32.9323 189.76 33.5692C189.628 33.938 189.415 34.2729 189.138 34.55C188.861 34.8271 188.526 35.0396 188.157 35.1723C187.308 35.3421 186.426 35.2177 185.656 34.8196L181.809 33.1043L182.033 32.5753C182.121 32.6156 182.217 32.6365 182.314 32.6365C182.411 32.6365 182.506 32.6156 182.594 32.5753C182.775 32.4541 182.915 32.2808 182.995 32.0783L186.201 24.6719C186.292 24.4826 186.326 24.2708 186.298 24.0627C186.279 23.9673 186.241 23.8768 186.186 23.7968C186.131 23.7168 186.06 23.6491 185.977 23.5978L186.265 23.0207ZM188.334 24.8483L186.73 28.5354L187.388 28.824C187.594 28.927 187.822 28.9807 188.053 28.9807C188.284 28.9807 188.512 28.927 188.718 28.824C189.167 28.5612 189.521 28.1627 189.728 27.6858C189.984 27.1917 190.046 26.6204 189.905 26.0827C189.806 25.8333 189.655 25.6082 189.461 25.4228C189.267 25.2374 189.036 25.0961 188.782 25.0086L188.334 24.8483ZM186.362 29.2889L184.534 33.3929L185.239 33.6974C185.48 33.8371 185.75 33.9198 186.028 33.9392C186.306 33.9587 186.585 33.9144 186.843 33.8097C187.358 33.5265 187.751 33.0646 187.949 32.5111C188.099 32.2301 188.187 31.9198 188.206 31.6016C188.226 31.2834 188.176 30.9648 188.061 30.6676C187.836 30.1358 187.409 29.7149 186.875 29.4973L186.362 29.2889ZM194.586 26.756L200.389 29.7378C200.512 29.8117 200.648 29.8608 200.79 29.882C200.84 29.8831 200.891 29.8737 200.938 29.8543C200.985 29.835 201.027 29.8063 201.062 29.7698L201.367 29.9141L200.084 32.431L199.651 32.2066C199.796 31.7365 199.796 31.2338 199.651 30.7638C199.408 30.2919 199.005 29.9224 198.513 29.7217L196.541 28.7278L194.73 32.2707L196.044 32.944C196.303 33.1186 196.618 33.1875 196.926 33.1364C197.06 33.0866 197.181 33.0096 197.284 32.9103C197.386 32.8109 197.466 32.6913 197.519 32.5592L197.936 32.7837L196.702 35.2685L196.285 35.0601C196.368 34.8049 196.368 34.5298 196.285 34.2746C196.259 34.1649 196.208 34.0629 196.136 33.9766C196.063 33.8903 195.972 33.8222 195.868 33.7776L194.265 32.9921L192.373 37.064L195.211 38.5068C195.646 38.7158 196.145 38.7502 196.606 38.603C197.119 38.434 197.564 38.1019 197.872 37.6571L198.289 37.8816L197.022 40.3664L189.616 36.5831L189.872 36.0861C189.962 36.13 190.061 36.1528 190.161 36.1528C190.261 36.1528 190.36 36.13 190.45 36.0861C190.674 35.9422 190.853 35.7361 190.963 35.4929L194.505 28.5194C194.634 28.2955 194.695 28.0396 194.682 27.782C194.641 27.5821 194.526 27.4048 194.361 27.285L194.586 26.756ZM197.872 41.0237L198.177 40.5427C198.26 40.5785 198.35 40.5969 198.441 40.5969C198.532 40.5969 198.622 40.5785 198.706 40.5427C198.918 40.4551 199.094 40.2965 199.203 40.0939L202.409 34.8677C202.618 34.4443 202.918 34.0723 203.287 33.7783C203.656 33.4842 204.086 33.2753 204.546 33.1666C205.005 33.0579 205.483 33.0519 205.945 33.1492C206.407 33.2465 206.842 33.4447 207.218 33.7295C207.624 33.9578 207.971 34.2784 208.23 34.6656C208.489 35.0527 208.653 35.4954 208.709 35.9578C208.82 36.8836 208.604 37.819 208.1 38.603C207.701 39.2575 207.151 39.8071 206.497 40.2061C205.973 40.5578 205.346 40.7217 204.717 40.671C204.505 40.6598 204.295 40.6221 204.092 40.5588C203.906 40.5104 203.727 40.4348 203.563 40.3343C203.255 40.138 202.974 39.9007 202.729 39.629C202.502 39.3446 202.333 39.0176 202.232 38.6671L200.629 41.1519C200.506 41.3356 200.449 41.5565 200.469 41.7771C200.489 41.9772 200.587 42.1613 200.742 42.2901L200.453 42.7711L197.872 41.0237ZM204.749 34.996L203.323 37.2564C203.22 37.407 203.152 37.5788 203.124 37.7591C203.096 37.9395 203.109 38.1238 203.162 38.2984C203.265 38.6463 203.494 38.9435 203.804 39.132C203.969 39.245 204.164 39.3055 204.365 39.3055C204.565 39.3055 204.76 39.245 204.926 39.132C205.531 38.673 206.029 38.0877 206.385 37.4167C206.822 36.8056 207.132 36.1134 207.298 35.3807C207.314 35.177 207.275 34.9727 207.185 34.7893C207.094 34.606 206.957 34.4503 206.785 34.3387C206.634 34.2316 206.46 34.1601 206.276 34.1296C206.093 34.0991 205.906 34.1103 205.727 34.1624C205.31 34.2923 204.959 34.5798 204.749 34.9639M213.021 48.2217V48.9591C212.243 49.1304 211.441 49.1737 210.649 49.0873C210.037 49.0015 209.454 48.7706 208.95 48.414C208.415 48.0614 207.972 47.5868 207.657 47.0293C207.342 46.4719 207.164 45.8475 207.138 45.2078C207.093 43.7346 207.558 42.2909 208.453 41.1199C209.218 39.8735 210.399 38.9369 211.787 38.4747C212.363 38.2777 212.978 38.2214 213.581 38.3107C214.183 38.3999 214.755 38.6321 215.25 38.9877C215.458 39.1217 215.652 39.2776 215.827 39.4526C216.004 39.6289 216.17 39.8163 216.324 40.0137L216.644 40.4626C216.723 40.5513 216.815 40.6271 216.917 40.687C216.935 40.6945 216.954 40.6984 216.973 40.6984C216.992 40.6984 217.011 40.6945 217.029 40.687C217.103 40.7031 217.18 40.7031 217.254 40.687H217.414L217.799 40.9596L216.308 43.0917L215.923 42.8192C216.1 42.2665 216.1 41.6725 215.923 41.1199C215.768 40.5731 215.428 40.0971 214.961 39.7732L214.737 39.661C214.657 39.6111 214.571 39.5733 214.48 39.5488C214.144 39.4424 213.788 39.4159 213.44 39.4716C213.092 39.5273 212.762 39.6635 212.476 39.8694C211.544 40.5849 210.751 41.4651 210.136 42.4665C209.394 43.389 208.923 44.4987 208.773 45.6727C208.761 46.0961 208.861 46.5152 209.064 46.887C209.267 47.2589 209.565 47.5701 209.927 47.7888C210.326 48.0519 210.773 48.2318 211.242 48.3178C211.837 48.4129 212.443 48.4129 213.037 48.3178M219.739 43.0917L222.271 45.2078L221.903 45.6406C221.693 45.5834 221.471 45.5834 221.261 45.6406C221.079 45.701 220.922 45.8192 220.813 45.9773L217.029 50.4821L223.554 49.1996L224.019 48.6545C224.156 48.4973 224.24 48.301 224.259 48.0934C224.271 47.8912 224.208 47.6917 224.083 47.5323L224.452 47.0995L226.969 49.2156L226.616 49.6484C226.531 49.5937 226.436 49.5582 226.336 49.5444C226.236 49.5305 226.135 49.5387 226.039 49.5683C225.84 49.6309 225.666 49.7543 225.542 49.921L220.364 56.109C220.21 56.2647 220.114 56.4683 220.091 56.6861C220.086 56.7827 220.101 56.8793 220.134 56.9702C220.167 57.061 220.218 57.1443 220.284 57.2151L219.915 57.648L217.398 55.5319L217.767 55.099C217.926 55.1923 218.114 55.2264 218.296 55.1952C218.516 55.1415 218.709 55.0107 218.841 54.8265L222.704 50.2416L216.18 51.5241L215.651 52.1493C215.497 52.305 215.401 52.5086 215.378 52.7264C215.369 52.9262 215.438 53.1217 215.57 53.2715L215.218 53.7043L212.685 51.5882L213.054 51.1554C213.132 51.2091 213.222 51.2455 213.316 51.262C213.41 51.2786 213.506 51.2751 213.599 51.2515C213.806 51.1798 213.989 51.0522 214.128 50.8828L219.322 44.6788C219.464 44.5149 219.558 44.3153 219.594 44.1017C219.599 44.0051 219.585 43.9085 219.552 43.8176C219.519 43.7267 219.468 43.6434 219.402 43.5726L219.739 43.0917ZM228.395 50.3698L228.764 50.7546C228.775 50.8863 228.819 51.0131 228.892 51.1233C228.975 51.2609 229.072 51.3898 229.181 51.508L233.381 55.8525C233.477 55.9666 233.59 56.0641 233.718 56.141C233.848 56.2192 233.988 56.2786 234.134 56.3174L234.487 56.6861L232.451 58.6098L232.131 58.2732C232.381 57.7768 232.502 57.2255 232.483 56.6701C232.468 56.2272 232.291 55.8051 231.986 55.4838L231.377 54.8586L225.045 60.9664C224.881 61.0943 224.767 61.276 224.724 61.4794C224.703 61.6878 224.754 61.8972 224.868 62.0726L224.436 62.5214L222.159 60.1488L222.56 59.7641C222.74 59.8685 222.946 59.9186 223.153 59.9084C223.347 59.8617 223.521 59.7551 223.65 59.6038L230.063 53.4959L229.55 52.9669C229.215 52.6031 228.77 52.3606 228.283 52.2775C227.725 52.2296 227.166 52.3526 226.68 52.6302L226.343 52.2936L228.395 50.3698ZM235.337 58.0488L239.457 63.1467C239.54 63.2609 239.643 63.3587 239.761 63.4352C239.809 63.4592 239.861 63.4716 239.914 63.4716C239.967 63.4716 240.019 63.4592 240.066 63.4352L240.274 63.6917L238.078 65.4712L237.774 65.1025C238.101 64.7335 238.313 64.2763 238.383 63.7879C238.361 63.2554 238.137 62.751 237.758 62.3772L236.363 60.6618L233.269 63.1627L234.199 64.3009C234.364 64.5652 234.621 64.7592 234.92 64.846C235.064 64.8529 235.207 64.8309 235.342 64.7813C235.477 64.7318 235.601 64.6556 235.706 64.5574L235.994 64.9261L233.798 66.7056L233.493 66.3369C233.7 66.1651 233.842 65.9274 233.894 65.6635C233.912 65.5528 233.905 65.4394 233.875 65.3314C233.845 65.2234 233.791 65.1234 233.718 65.0383L232.628 63.6917L229.101 66.5453L231.089 68.9339C231.24 69.1198 231.428 69.2736 231.64 69.3865C231.852 69.4993 232.084 69.5689 232.323 69.5912C232.88 69.6714 233.448 69.5522 233.926 69.2545L234.231 69.6232L232.066 71.3706L226.84 64.9582L227.273 64.6055C227.339 64.6786 227.422 64.7354 227.513 64.7715C227.605 64.8077 227.704 64.8222 227.802 64.8139C228.073 64.7833 228.326 64.6651 228.524 64.4772L234.583 59.5717C234.796 59.42 234.958 59.2077 235.048 58.9625C235.118 58.7765 235.118 58.5714 235.048 58.3854L235.337 58.0488ZM241.461 65.4391L241.765 65.872C241.741 66.0045 241.741 66.1402 241.765 66.2727C241.831 66.4193 241.912 66.5589 242.006 66.6895L245.565 71.4989C245.639 71.6329 245.737 71.7524 245.853 71.8516C245.974 71.9391 246.103 72.0143 246.238 72.076L246.543 72.4928L244.25 74.0959L243.978 73.7112C244.285 73.274 244.477 72.767 244.539 72.2363C244.59 71.7968 244.469 71.3546 244.202 71.0019L243.689 70.2965L236.587 75.4586C236.493 75.5025 236.408 75.5656 236.339 75.644C236.27 75.7223 236.218 75.8141 236.186 75.9136C236.155 76.0131 236.144 76.1181 236.155 76.2219C236.166 76.3257 236.199 76.426 236.251 76.5166L235.786 76.8533L233.846 74.1921L234.311 73.8555C234.47 73.989 234.665 74.0726 234.872 74.0959C235.071 74.0628 235.258 73.9801 235.417 73.8555L242.519 68.6934L242.086 68.0843C241.817 67.6705 241.407 67.3686 240.932 67.2346C240.396 67.1161 239.838 67.1608 239.329 67.3628L239.056 66.9781L241.461 65.4391ZM249.476 78.1358L251.079 81.0534L250.566 81.3099C250.412 81.1577 250.217 81.0521 250.005 81.0053C249.819 81.0001 249.634 81.0504 249.476 81.1496L244.266 83.923L250.791 85.1895L251.432 84.8368C251.619 84.7506 251.772 84.6037 251.865 84.42C251.931 84.2333 251.931 84.0296 251.865 83.8429L252.362 83.5703L253.965 86.488L253.468 86.7445C253.412 86.6661 253.34 86.6 253.257 86.5504C253.175 86.5007 253.083 86.4686 252.987 86.4559C252.773 86.4294 252.557 86.4806 252.378 86.6002L245.228 90.3996C245.027 90.491 244.859 90.6422 244.747 90.8324C244.708 90.9207 244.687 91.0163 244.687 91.113C244.687 91.2096 244.708 91.3052 244.747 91.3935L244.234 91.65L242.631 88.7484L243.128 88.4759C243.18 88.5561 243.248 88.6246 243.328 88.6771C243.408 88.7295 243.498 88.7647 243.593 88.7805C243.817 88.8052 244.042 88.7544 244.234 88.6362L249.524 85.8307L243 84.5803L242.278 84.965C242.083 85.0504 241.92 85.1966 241.813 85.3818C241.773 85.4756 241.753 85.5765 241.753 85.6784C241.753 85.7804 241.773 85.8813 241.813 85.975L241.316 86.2475L239.713 83.3299L240.21 83.0573C240.266 83.1381 240.337 83.2067 240.419 83.2591C240.502 83.3114 240.595 83.3464 240.691 83.3619C240.91 83.3855 241.13 83.3347 241.316 83.2176L248.482 79.3541C248.668 79.2531 248.823 79.1035 248.931 78.9213C249.003 78.7412 249.003 78.5403 248.931 78.3602L249.476 78.1358Z" fill="white" fill-opacity="0.16"/>
<path d="M254.703 88.6041L255.905 91.5699L249.493 96.7479L257.685 96.0265L258.807 98.832L258.278 99.0404C258.229 98.9571 258.164 98.8845 258.087 98.8266C258.01 98.7688 257.922 98.727 257.829 98.7037C257.627 98.6288 257.405 98.6288 257.204 98.7037L249.685 101.734C249.484 101.808 249.31 101.942 249.188 102.118C249.139 102.199 249.106 102.289 249.093 102.383C249.079 102.476 249.084 102.572 249.108 102.663L248.595 102.888L247.361 99.8259L247.874 99.6175C247.969 99.7851 248.123 99.911 248.306 99.9702C248.515 100.038 248.739 100.038 248.948 99.9702L256.498 97.0044L246.591 97.8541L246.238 97.0044L254.174 90.592L246.607 93.6379C246.342 93.7225 246.111 93.8914 245.95 94.1188C245.902 94.2104 245.877 94.3121 245.877 94.4154C245.877 94.5187 245.902 94.6204 245.95 94.712L245.421 94.9364L244.603 92.8844L245.132 92.676C245.166 92.7789 245.227 92.8706 245.309 92.9412C245.391 93.0119 245.49 93.0588 245.597 93.0768C245.864 93.1136 246.136 93.0747 246.383 92.9646L253.292 89.9988C253.604 89.8838 253.884 89.6971 254.11 89.4538C254.185 89.3702 254.234 89.2666 254.251 89.1555C254.268 89.0445 254.252 88.9308 254.206 88.8286L254.703 88.6041ZM259.512 100.9L261.308 107.2C261.34 107.339 261.4 107.47 261.484 107.585C261.518 107.623 261.56 107.653 261.607 107.673C261.655 107.692 261.706 107.7 261.757 107.697V108.018L259.047 108.803L258.919 108.338C259.366 108.126 259.74 107.786 259.993 107.361C260.197 106.846 260.197 106.272 259.993 105.757L259.384 103.625L255.552 104.731L255.953 106.142C256.003 106.449 256.17 106.725 256.418 106.912C256.547 106.97 256.686 107 256.827 107C256.968 107 257.107 106.97 257.236 106.912L257.364 107.377L254.639 108.146L254.51 107.697C254.768 107.615 254.993 107.452 255.152 107.232C255.2 107.13 255.225 107.017 255.225 106.904C255.225 106.79 255.2 106.678 255.152 106.575L254.687 104.972L250.326 106.222L251.192 109.284C251.331 109.75 251.648 110.141 252.074 110.374C252.56 110.65 253.127 110.746 253.677 110.647L253.805 111.112L251.128 111.881L248.835 103.866L249.38 103.721C249.413 103.814 249.466 103.898 249.535 103.967C249.605 104.037 249.689 104.09 249.781 104.122C250.038 104.192 250.31 104.192 250.567 104.122L258.101 102.006C258.357 101.943 258.59 101.809 258.775 101.621C258.89 101.458 258.941 101.259 258.919 101.06L259.512 100.9ZM263.071 114.046L262.51 114.158C262.482 114.066 262.434 113.981 262.371 113.909C262.307 113.838 262.229 113.78 262.141 113.741C261.934 113.665 261.707 113.665 261.5 113.741L258.101 114.414L258.983 118.935L262.382 118.262C262.593 118.235 262.791 118.139 262.943 117.989C263.071 117.843 263.14 117.654 263.135 117.46L263.696 117.348L264.322 120.554L263.76 120.666C263.734 120.568 263.685 120.476 263.619 120.399C263.552 120.321 263.469 120.259 263.376 120.218C263.179 120.144 262.963 120.144 262.766 120.218L254.751 121.821C254.553 121.847 254.365 121.924 254.206 122.045C254.08 122.218 254.007 122.424 253.997 122.638L253.436 122.734L252.811 119.528L253.372 119.432C253.463 119.62 253.608 119.776 253.789 119.881C253.977 119.94 254.178 119.94 254.366 119.881L258.101 119.159L257.22 114.639L253.5 115.36C253.29 115.366 253.089 115.452 252.939 115.601C252.813 115.767 252.746 115.969 252.747 116.178L252.186 116.29L251.561 113.084L252.106 112.971C252.206 113.149 252.349 113.298 252.523 113.404C252.714 113.473 252.924 113.473 253.116 113.404L261.131 111.801C261.345 111.768 261.542 111.667 261.692 111.513C261.815 111.363 261.883 111.177 261.885 110.984L262.446 110.887L263.071 114.046ZM264.674 122.831L264.963 126.037H264.386C264.302 125.832 264.164 125.654 263.985 125.524C263.807 125.468 263.617 125.468 263.44 125.524L257.572 126.037L263.023 129.852H263.744C263.956 129.844 264.16 129.765 264.322 129.628C264.471 129.497 264.563 129.313 264.578 129.115H265.155L265.428 132.321H264.867C264.844 132.225 264.803 132.134 264.745 132.054C264.688 131.975 264.614 131.907 264.53 131.856C264.344 131.756 264.131 131.717 263.921 131.744L255.905 132.449C255.684 132.461 255.472 132.54 255.296 132.674C255.221 132.736 255.162 132.815 255.123 132.904C255.084 132.993 255.066 133.09 255.072 133.187H254.494L254.222 129.981H254.783C254.801 130.072 254.837 130.159 254.889 130.236C254.942 130.313 255.009 130.379 255.088 130.429C255.28 130.544 255.507 130.59 255.729 130.558L261.708 130.029L256.178 126.325H255.36C255.144 126.325 254.935 126.399 254.767 126.534C254.691 126.599 254.63 126.68 254.588 126.772C254.547 126.863 254.526 126.962 254.526 127.063H253.965L253.677 123.857H254.238C254.256 123.952 254.294 124.043 254.35 124.123C254.405 124.203 254.476 124.27 254.559 124.322C254.75 124.423 254.97 124.457 255.184 124.418L263.199 123.712C263.415 123.7 263.622 123.622 263.792 123.488C263.866 123.426 263.927 123.351 263.971 123.265C264.015 123.18 264.041 123.087 264.049 122.991L264.674 122.831ZM265.812 138.477V141.763H265.235C265.18 141.552 265.063 141.362 264.899 141.218C264.737 141.115 264.545 141.07 264.354 141.09L258.47 140.978L263.552 145.242H264.289C264.499 145.253 264.707 145.197 264.883 145.082C265.041 144.958 265.149 144.782 265.187 144.585H265.764V147.887H265.203C265.17 147.692 265.068 147.516 264.915 147.39C264.733 147.273 264.521 147.212 264.305 147.214L256.29 147.086C256.071 147.057 255.849 147.108 255.665 147.23C255.582 147.282 255.514 147.353 255.463 147.436C255.413 147.52 255.383 147.614 255.376 147.711H254.815V144.409H255.392C255.411 144.596 255.504 144.769 255.649 144.889C255.826 145.029 256.049 145.097 256.274 145.082L262.27 145.178L257.172 140.93H256.338C256.124 140.906 255.909 140.957 255.729 141.074C255.572 141.196 255.469 141.374 255.44 141.571H254.863V138.365H255.424C255.434 138.462 255.463 138.556 255.51 138.641C255.556 138.727 255.62 138.802 255.697 138.862C255.88 138.989 256.1 139.051 256.322 139.038L264.338 139.182C264.551 139.182 264.761 139.127 264.947 139.022C265.106 138.907 265.215 138.734 265.251 138.541L265.812 138.477ZM265.396 150.164L265.011 153.37L256.915 154.797L264.434 158.131L264.065 161.129H263.488C263.481 160.931 263.401 160.743 263.263 160.6C263.104 160.459 262.899 160.38 262.686 160.376L254.671 159.382C254.457 159.35 254.24 159.384 254.046 159.478C253.88 159.579 253.759 159.739 253.709 159.927H253.148L253.549 156.72H254.11C254.115 156.911 254.189 157.093 254.318 157.233C254.483 157.381 254.691 157.471 254.911 157.49L262.927 158.468V158.372L253.837 154.316L253.949 153.402L264.001 151.623L255.905 150.629C255.635 150.57 255.352 150.604 255.104 150.725C255.008 150.772 254.927 150.845 254.871 150.936C254.814 151.026 254.784 151.131 254.783 151.238H254.222L254.478 149.042H255.039C255.025 149.151 255.038 149.263 255.077 149.366C255.117 149.47 255.181 149.562 255.264 149.635C255.481 149.791 255.735 149.885 256.001 149.907L263.488 150.821C263.808 150.909 264.146 150.909 264.466 150.821C264.572 150.783 264.666 150.717 264.737 150.629C264.807 150.541 264.852 150.436 264.867 150.324L265.396 150.164ZM261.773 172.078L261.227 171.966C261.233 171.867 261.219 171.768 261.186 171.674C261.153 171.581 261.101 171.495 261.035 171.421C260.889 171.269 260.698 171.167 260.49 171.132L252.571 169.529C252.361 169.47 252.139 169.47 251.929 169.529C251.839 169.565 251.759 169.621 251.695 169.693C251.631 169.766 251.585 169.852 251.561 169.946L251 169.834L251.689 166.628L252.234 166.74C252.227 166.939 252.295 167.134 252.426 167.285C252.579 167.428 252.767 167.528 252.971 167.574L261.516 169.385L262.334 165.554L253.789 163.742C253.581 163.675 253.356 163.675 253.148 163.742C253.063 163.781 252.986 163.837 252.923 163.905C252.86 163.974 252.811 164.055 252.779 164.143L252.234 164.031L252.907 160.824L253.468 160.937C253.459 161.031 253.468 161.126 253.496 161.217C253.523 161.308 253.569 161.392 253.629 161.466C253.777 161.635 253.983 161.743 254.206 161.77L262.125 163.373C262.334 163.441 262.558 163.441 262.766 163.373C262.852 163.332 262.929 163.274 262.993 163.202C263.056 163.13 263.104 163.047 263.135 162.957L263.696 163.085L261.773 172.078ZM261.163 174.259L259.127 180.495C259.105 180.633 259.105 180.773 259.127 180.911C259.15 181.008 259.207 181.093 259.288 181.152L259.192 181.473L256.514 180.591L256.659 180.142C257.15 180.212 257.65 180.139 258.101 179.934C258.525 179.621 258.821 179.165 258.935 178.651L259.624 176.535L255.825 175.317L255.376 176.711C255.267 177 255.267 177.32 255.376 177.609C255.444 177.734 255.537 177.843 255.651 177.929C255.764 178.015 255.895 178.075 256.033 178.106L255.889 178.555L253.18 177.673L253.34 177.224C253.594 177.315 253.872 177.315 254.126 177.224C254.229 177.18 254.321 177.112 254.393 177.025C254.465 176.939 254.517 176.837 254.543 176.727L255.088 175.124L250.775 173.713L249.781 176.743C249.641 177.207 249.687 177.708 249.91 178.138C250.146 178.62 250.543 179.005 251.032 179.228L250.887 179.677L248.226 178.827L250.807 170.908L251.336 171.084C251.312 171.183 251.31 171.286 251.329 171.385C251.349 171.485 251.389 171.579 251.449 171.661C251.631 171.855 251.864 171.994 252.122 172.062L259.544 174.483C259.795 174.56 260.063 174.56 260.314 174.483C260.499 174.411 260.653 174.274 260.747 174.098L261.163 174.259ZM247.713 179.661L248.242 179.869C248.219 179.956 248.214 180.046 248.228 180.134C248.242 180.223 248.274 180.307 248.322 180.382C248.452 180.572 248.637 180.718 248.851 180.799L254.607 182.995C255.058 183.141 255.476 183.375 255.836 183.683C256.197 183.991 256.493 184.368 256.707 184.791C256.896 185.231 256.994 185.706 256.994 186.186C256.994 186.665 256.896 187.14 256.707 187.58C256.564 188.023 256.318 188.425 255.989 188.754C255.66 189.083 255.258 189.329 254.815 189.472C253.923 189.761 252.959 189.727 252.09 189.376C251.386 189.121 250.746 188.716 250.214 188.19C249.792 187.75 249.518 187.189 249.429 186.586C249.405 186.379 249.405 186.169 249.429 185.961C249.454 185.771 249.497 185.583 249.557 185.4C249.69 185.059 249.874 184.741 250.102 184.454C250.327 184.172 250.612 183.942 250.935 183.781L248.21 182.723C248.004 182.644 247.775 182.644 247.569 182.723C247.469 182.746 247.375 182.791 247.295 182.855C247.214 182.919 247.149 182.999 247.104 183.092L246.575 182.883L247.713 179.661ZM254.943 185.256L252.442 184.294C252.277 184.214 252.097 184.173 251.913 184.173C251.73 184.173 251.549 184.214 251.384 184.294C251.066 184.454 250.819 184.729 250.695 185.064C250.611 185.248 250.584 185.454 250.618 185.654C250.652 185.854 250.746 186.04 250.887 186.186C251.45 186.69 252.118 187.063 252.843 187.276C253.525 187.602 254.268 187.782 255.023 187.805C255.225 187.779 255.416 187.701 255.576 187.577C255.737 187.453 255.862 187.288 255.937 187.099C256.021 186.93 256.064 186.743 256.064 186.554C256.064 186.365 256.021 186.179 255.937 186.009C255.723 185.635 255.382 185.351 254.975 185.208M245.164 187.404C245.147 187.633 245.197 187.861 245.309 188.061C245.444 188.331 245.611 188.584 245.806 188.815L250.615 194.249C250.716 194.363 250.828 194.465 250.952 194.554L251.4 194.826C251.447 194.86 251.503 194.879 251.561 194.879C251.618 194.879 251.674 194.86 251.721 194.826C251.833 194.721 251.916 194.589 251.961 194.442L252.474 194.714C252.34 195.017 252.269 195.345 252.266 195.676C252.262 195.988 252.334 196.296 252.474 196.574L252.25 197.007L243 196.173C242.509 196.128 242.016 196.128 241.525 196.173C241.213 196.171 240.906 196.26 240.644 196.43L240.147 196.173L241.862 192.791L242.359 193.047C242.308 193.135 242.282 193.234 242.282 193.336C242.282 193.437 242.308 193.536 242.359 193.624C242.458 193.836 242.628 194.006 242.84 194.105C242.914 194.116 242.99 194.116 243.064 194.105H243.321L244.427 194.217L246.335 190.45L245.661 189.713C245.559 189.569 245.428 189.449 245.276 189.361C245.124 189.272 244.955 189.217 244.78 189.2C244.627 189.222 244.481 189.276 244.351 189.359C244.221 189.442 244.111 189.552 244.026 189.68L243.513 189.424L244.699 187.115L245.164 187.404ZM249.974 194.698L246.88 191.284L245.277 194.346L249.91 194.794L249.974 194.698ZM250.326 200.774L250.07 201.239C249.945 201.3 249.832 201.382 249.733 201.479C249.629 201.604 249.538 201.738 249.461 201.88L246.543 207.154C246.453 207.28 246.388 207.421 246.351 207.571C246.333 207.715 246.333 207.86 246.351 208.004L246.094 208.469L243.625 207.09L243.85 206.673C244.385 206.773 244.937 206.734 245.453 206.561C245.873 206.426 246.223 206.133 246.431 205.744L246.848 204.974L239.169 200.71C238.997 200.598 238.796 200.542 238.592 200.55C238.391 200.601 238.208 200.706 238.062 200.854L237.566 200.582L239.169 197.696L239.666 197.985C239.604 198.183 239.604 198.395 239.666 198.594C239.771 198.76 239.921 198.894 240.098 198.979L247.793 203.243L248.146 202.586C248.406 202.17 248.508 201.675 248.435 201.191C248.319 200.662 248.045 200.181 247.649 199.812L247.874 199.395L250.326 200.774ZM242.391 213.214C242.032 213.74 241.555 214.175 240.998 214.484C240.442 214.793 239.821 214.967 239.185 214.994C237.72 215.072 236.274 214.635 235.097 213.759C233.884 212.965 232.992 211.767 232.58 210.377C232.382 209.76 232.331 209.105 232.431 208.465C232.531 207.824 232.78 207.216 233.157 206.689C233.515 206.162 233.991 205.725 234.548 205.413C235.104 205.101 235.726 204.924 236.363 204.894C237.811 204.814 239.241 205.246 240.403 206.112C241.632 206.914 242.54 208.123 242.968 209.527C243.17 210.143 243.224 210.797 243.127 211.437C243.029 212.078 242.783 212.686 242.407 213.214M241.734 212.733C241.981 212.417 242.128 212.034 242.154 211.633C242.179 211.233 242.083 210.834 241.878 210.489C240.328 208.503 238.217 207.028 235.818 206.257C235.426 206.181 235.02 206.228 234.656 206.391C234.291 206.555 233.986 206.827 233.782 207.17C233.533 207.482 233.385 207.862 233.356 208.26C233.327 208.658 233.42 209.055 233.622 209.399C234.323 210.439 235.242 211.314 236.315 211.964C237.306 212.729 238.448 213.276 239.666 213.567C240.061 213.644 240.47 213.6 240.839 213.44C241.208 213.279 241.52 213.011 241.734 212.669M229.79 211.306L230.223 211.675C230.128 211.828 230.094 212.011 230.127 212.188C230.197 212.414 230.33 212.614 230.512 212.765L235.225 216.725C235.628 216.99 235.967 217.343 236.215 217.757C236.463 218.172 236.614 218.637 236.657 219.117C236.7 219.598 236.634 220.083 236.464 220.535C236.294 220.986 236.024 221.394 235.674 221.727C235.389 222.092 235.024 222.386 234.607 222.586C234.19 222.786 233.732 222.887 233.269 222.881C232.333 222.869 231.431 222.529 230.72 221.919C230.133 221.45 229.662 220.852 229.342 220.172C229.076 219.596 229.002 218.949 229.133 218.328C229.178 218.123 229.248 217.924 229.342 217.735C229.418 217.56 229.521 217.398 229.646 217.254C229.869 216.968 230.14 216.724 230.448 216.533C230.756 216.339 231.099 216.208 231.458 216.148L229.245 214.352C229.086 214.196 228.875 214.105 228.652 214.096C228.549 214.088 228.446 214.103 228.349 214.139C228.252 214.175 228.164 214.231 228.091 214.304L227.658 213.936L229.79 211.306ZM234.808 218.953L232.756 217.238C232.622 217.114 232.461 217.022 232.286 216.969C232.111 216.916 231.927 216.904 231.746 216.933C231.389 216.985 231.063 217.168 230.832 217.446C230.693 217.591 230.602 217.774 230.57 217.972C230.539 218.17 230.569 218.372 230.656 218.553C231.034 219.187 231.542 219.733 232.147 220.156C232.691 220.678 233.334 221.087 234.039 221.358C234.237 221.401 234.443 221.389 234.635 221.324C234.827 221.259 234.997 221.143 235.129 220.989C235.258 220.855 235.355 220.692 235.41 220.514C235.466 220.336 235.479 220.147 235.449 219.963C235.381 219.532 235.152 219.143 234.808 218.873M225.013 218.008C224.913 218.211 224.88 218.441 224.917 218.665C224.958 218.968 225.039 219.264 225.157 219.546L227.899 226.248C227.961 226.382 228.037 226.511 228.123 226.632C228.224 226.78 228.336 226.92 228.46 227.049C228.505 227.079 228.558 227.096 228.612 227.096C228.666 227.096 228.719 227.079 228.764 227.049C228.906 226.994 229.028 226.9 229.117 226.777L229.518 227.177C229.288 227.427 229.113 227.722 229.005 228.043C228.908 228.337 228.875 228.649 228.909 228.957L228.556 229.277L220.076 225.478C219.514 225.238 219.066 225.061 218.713 224.949C218.409 224.863 218.087 224.863 217.783 224.949L217.398 224.532L220.124 221.903L220.508 222.32C220.43 222.385 220.371 222.47 220.337 222.566C220.303 222.662 220.296 222.765 220.316 222.865C220.342 223.09 220.444 223.299 220.605 223.458L220.797 223.602L221.037 223.731L222.047 224.179L225.077 221.246L224.676 220.348C224.484 219.883 224.26 219.627 224.019 219.563C223.866 219.531 223.708 219.533 223.555 219.569C223.403 219.605 223.26 219.674 223.138 219.771L222.753 219.37L224.612 217.575L225.013 218.008ZM227.209 226.472L225.414 222.208L222.833 224.692L227.065 226.632L227.209 226.472ZM213.759 242.07L213.407 241.621C213.474 241.552 213.526 241.469 213.559 241.377C213.592 241.286 213.606 241.189 213.599 241.092C213.57 240.879 213.481 240.679 213.342 240.515L208.245 234.231C208.12 234.05 207.94 233.915 207.732 233.846C207.636 233.823 207.538 233.82 207.441 233.837C207.345 233.853 207.253 233.889 207.17 233.942L206.818 233.51L209.383 231.426L209.735 231.874C209.668 231.944 209.616 232.027 209.583 232.118C209.55 232.21 209.536 232.307 209.543 232.403C209.567 232.615 209.65 232.815 209.784 232.981L215.282 239.762L218.328 237.293L212.829 230.512C212.697 230.336 212.511 230.207 212.3 230.143C212.115 230.098 211.92 230.127 211.755 230.223L211.403 229.79L213.968 227.722L214.32 228.155C214.191 228.289 214.116 228.466 214.112 228.652C214.127 228.878 214.217 229.093 214.368 229.261L219.466 235.562C219.605 235.739 219.796 235.867 220.011 235.93C220.194 235.964 220.382 235.93 220.54 235.834L220.909 236.283L213.759 242.07ZM211.932 243.208L206.433 246.783C206.311 246.854 206.202 246.947 206.112 247.056C206.092 247.101 206.082 247.15 206.082 247.2C206.082 247.25 206.092 247.299 206.112 247.344L205.84 247.537L204.237 245.164L204.638 244.908C204.976 245.267 205.41 245.523 205.888 245.645C206.417 245.669 206.936 245.498 207.347 245.164L209.206 243.962L207.026 240.627L205.808 241.429C205.529 241.563 205.311 241.798 205.199 242.086C205.172 242.226 205.175 242.37 205.208 242.508C205.241 242.646 205.303 242.776 205.391 242.888L204.99 243.144L203.387 240.772L203.788 240.515C203.937 240.737 204.158 240.901 204.413 240.98C204.521 241.013 204.636 241.02 204.747 241C204.859 240.981 204.964 240.936 205.054 240.868L206.513 239.922L204.044 236.123L201.383 237.854C201.18 237.982 201.005 238.151 200.87 238.349C200.735 238.548 200.642 238.772 200.598 239.008C200.466 239.547 200.529 240.114 200.774 240.611L200.373 240.868L198.866 238.527L205.84 234.007L206.144 234.471C206.062 234.529 205.994 234.606 205.947 234.695C205.899 234.784 205.874 234.884 205.872 234.984C205.883 235.25 205.972 235.507 206.128 235.722L210.377 242.279C210.516 242.502 210.716 242.68 210.954 242.792C211.14 242.863 211.345 242.863 211.531 242.792L211.932 243.208ZM203.724 248.916L203.259 249.172C203.126 249.148 202.991 249.148 202.858 249.172C202.704 249.218 202.554 249.277 202.409 249.348L197.087 252.186C196.946 252.25 196.816 252.337 196.702 252.442C196.591 252.543 196.499 252.663 196.43 252.795L195.965 253.036L194.634 250.535L195.067 250.31C195.46 250.67 195.933 250.934 196.446 251.08C196.873 251.179 197.323 251.122 197.712 250.919L198.482 250.503L194.346 242.744C194.275 242.553 194.139 242.393 193.961 242.295C193.763 242.229 193.549 242.229 193.352 242.295L193.079 241.798L195.997 240.195L196.253 240.692C196.171 240.754 196.102 240.833 196.05 240.923C195.998 241.013 195.964 241.112 195.951 241.215C195.937 241.317 195.944 241.422 195.972 241.522C195.999 241.622 196.045 241.716 196.109 241.798L200.229 249.557L200.886 249.204C201.33 248.987 201.687 248.625 201.896 248.178C202.061 247.656 202.061 247.097 201.896 246.575L202.313 246.351L203.724 248.916ZM190.033 243.192L190.274 243.705C190.196 243.753 190.128 243.815 190.076 243.89C190.023 243.964 189.987 244.049 189.969 244.138C189.94 244.369 189.979 244.603 190.081 244.812L192.678 250.39C192.949 250.804 193.12 251.275 193.178 251.766C193.236 252.257 193.18 252.755 193.014 253.221C192.848 253.686 192.576 254.107 192.22 254.451C191.865 254.794 191.434 255.05 190.963 255.2C190.551 255.409 190.095 255.519 189.632 255.519C189.17 255.519 188.714 255.409 188.302 255.2C187.459 254.793 186.789 254.1 186.41 253.244C186.077 252.571 185.901 251.831 185.897 251.08C185.884 250.448 186.087 249.832 186.474 249.332C186.606 249.166 186.751 249.011 186.907 248.867C187.056 248.749 187.217 248.647 187.388 248.563C187.716 248.4 188.068 248.292 188.43 248.242C188.791 248.195 189.157 248.228 189.504 248.338L188.27 245.693C188.195 245.482 188.039 245.309 187.837 245.212C187.746 245.174 187.648 245.154 187.548 245.154C187.449 245.154 187.351 245.174 187.26 245.212L187.019 244.699L190.033 243.192ZM191.348 252.234L190.226 249.813C190.156 249.644 190.049 249.493 189.913 249.371C189.777 249.249 189.615 249.159 189.44 249.108C189.102 248.992 188.736 248.992 188.398 249.108C188.211 249.181 188.05 249.309 187.935 249.475C187.821 249.64 187.759 249.836 187.757 250.038C187.814 250.797 188.032 251.534 188.398 252.202C188.665 252.903 189.075 253.542 189.6 254.078C189.762 254.204 189.955 254.283 190.159 254.305C190.363 254.328 190.569 254.294 190.755 254.206C190.932 254.142 191.09 254.036 191.216 253.896C191.342 253.756 191.431 253.587 191.476 253.404C191.54 253.198 191.562 252.981 191.54 252.766C191.517 252.551 191.452 252.343 191.348 252.154M182.755 247.088C182.582 247.241 182.46 247.442 182.402 247.665C182.304 247.955 182.244 248.257 182.226 248.563L181.889 255.777C181.873 255.926 181.873 256.077 181.889 256.226C181.913 256.401 181.956 256.573 182.018 256.739C182.029 256.798 182.061 256.852 182.108 256.89C182.155 256.928 182.214 256.948 182.274 256.947C182.425 256.944 182.573 256.906 182.707 256.835L182.883 257.38C182.571 257.502 182.292 257.694 182.066 257.941C181.843 258.159 181.678 258.429 181.585 258.727L181.136 258.871L175.044 251.849C174.739 251.467 174.401 251.113 174.034 250.791C173.802 250.58 173.521 250.431 173.217 250.358L173.04 249.829L176.615 248.595L176.791 249.124C176.695 249.155 176.608 249.209 176.538 249.282C176.469 249.355 176.418 249.444 176.391 249.541C176.311 249.758 176.311 249.997 176.391 250.214C176.419 250.288 176.457 250.358 176.503 250.422L176.663 250.631L177.385 251.464L181.376 250.102V249.108C181.405 248.932 181.396 248.753 181.349 248.581C181.302 248.41 181.218 248.25 181.104 248.114C180.978 248.023 180.835 247.96 180.682 247.929C180.53 247.899 180.373 247.902 180.222 247.938L180.03 247.409L182.483 246.559L182.755 247.088ZM181.152 255.697L181.328 251.08L178.122 252.202L181.152 255.729V255.697ZM171.261 261.821L168.054 262.574L167.926 262.013C168.11 261.944 168.26 261.806 168.343 261.628C168.431 261.379 168.431 261.108 168.343 260.859L166.628 253.292C166.59 253.028 166.472 252.782 166.291 252.587C166.219 252.524 166.135 252.477 166.044 252.45C165.953 252.422 165.857 252.414 165.762 252.426L165.634 251.881L168.84 251.128L168.968 251.689C168.877 251.717 168.792 251.765 168.72 251.828C168.648 251.892 168.591 251.97 168.551 252.058C168.469 252.313 168.469 252.588 168.551 252.843L170.315 260.458C170.361 260.718 170.483 260.958 170.668 261.147C170.739 261.212 170.822 261.261 170.913 261.291C171.005 261.322 171.101 261.333 171.197 261.324L171.261 261.821Z" fill="white" fill-opacity="0.16"/>
</svg>
