<svg width="13" height="22" viewBox="0 0 13 22" fill="none" xmlns="http://www.w3.org/2000/svg">
<path d="M5.4948 14.9324C5.36929 14.9144 5.2702 14.8965 5.17017 14.8851C4.23499 14.7699 3.31869 14.5753 2.45334 14.1917C1.77009 13.8818 1.1391 13.4675 0.582982 12.9635C0.377617 12.7978 0.230491 12.5707 0.163047 12.3154C0.0686802 11.8922 0.203625 11.5152 0.450868 11.1817C0.806632 10.699 1.39454 10.5591 1.97584 10.8114C2.14518 10.8839 2.3057 10.9755 2.45428 11.0844C3.21107 11.6349 4.07757 12.0155 4.99465 12.2002C5.53612 12.319 6.09009 12.3711 6.64419 12.3551C7.93797 12.3164 9.14775 11.9867 10.2471 11.2866C10.4727 11.142 10.6859 10.9729 10.9237 10.852C11.3314 10.6451 11.7561 10.6111 12.1684 10.8473C12.5403 11.0598 12.7347 11.4028 12.829 11.8071C12.8676 11.9726 12.8659 12.1449 12.8242 12.3097C12.7825 12.4744 12.702 12.6267 12.5893 12.7538C12.344 13.0571 12.0231 13.2743 11.7174 13.502C10.786 14.1889 9.72717 14.5611 8.60325 14.7652C8.29467 14.8209 7.98326 14.8596 7.67279 14.9069C7.62938 14.9144 7.58598 14.9258 7.52275 14.9399C7.57276 14.9929 7.60862 15.0344 7.64826 15.075C8.92914 16.3618 10.2144 17.647 11.5041 18.9306C11.7353 19.162 11.891 19.4294 11.8976 19.762C11.9099 20.3893 11.4258 21.0053 10.7954 21.1574C10.5947 21.212 10.3828 21.2102 10.1831 21.1522C9.98333 21.0942 9.80339 20.9822 9.663 20.8286C8.64886 19.8114 7.63505 18.7926 6.62154 17.7723C6.58663 17.7374 6.54982 17.7052 6.50736 17.6646C6.46489 17.7043 6.42809 17.7364 6.39317 17.7714L3.3536 20.8182C3.22649 20.959 3.06586 21.0653 2.88668 21.1272C2.7075 21.1892 2.51558 21.2047 2.32878 21.1725C2.09424 21.1337 1.87279 21.0379 1.68389 20.8935C1.49499 20.749 1.34443 20.5603 1.24544 20.3439C0.99631 19.846 1.08218 19.3595 1.47947 18.9618C2.77671 17.6611 4.07488 16.3612 5.37401 15.0618C5.40798 15.0269 5.44101 14.991 5.4948 14.9324Z" fill="#0F91D6"/>
<path d="M11.842 5.36577C11.842 8.32095 9.40732 10.7338 6.42814 10.7093C5.37265 10.6964 4.34456 10.3712 3.47333 9.77451C2.6021 9.17784 1.9267 8.33643 1.53217 7.35624C1.13765 6.37605 1.04164 5.3009 1.25623 4.26619C1.47083 3.23148 1.98644 2.28347 2.73813 1.54155C3.48982 0.799624 4.44398 0.296958 5.48045 0.0968498C6.51693 -0.103258 7.58937 0.0081398 8.56273 0.417016C9.5361 0.825891 10.3669 1.51396 10.9504 2.39458C11.5339 3.2752 11.8442 4.30899 11.842 5.36577ZM6.49043 2.69684C5.96522 2.69572 5.45148 2.85055 5.01416 3.14174C4.57685 3.43293 4.23561 3.84741 4.03359 4.33276C3.83156 4.81811 3.77784 5.35254 3.8792 5.86846C3.98057 6.38439 4.23247 6.85863 4.60305 7.23122C4.97364 7.60382 5.44626 7.85803 5.96116 7.96171C6.47605 8.06539 7.01009 8.01388 7.49575 7.8137C7.9814 7.61352 8.39686 7.27365 8.68958 6.83708C8.9823 6.40052 9.13914 5.88685 9.14026 5.36104C9.14276 5.01143 9.076 4.6648 8.94386 4.34117C8.81172 4.01755 8.61681 3.72336 8.3704 3.47562C8.12399 3.22787 7.83097 3.03149 7.50829 2.89781C7.1856 2.76414 6.83965 2.69583 6.49043 2.69684Z" fill="#0F91D6"/>
</svg>
