<svg width="32" height="32" viewBox="0 0 32 32" fill="none" xmlns="http://www.w3.org/2000/svg">
<path d="M8.823 17.8776C8.823 16.3632 8.823 14.8705 8.83315 13.3788C8.83315 13.259 8.95309 13.1203 9.05088 13.0242C11.0899 11.0122 13.1332 9.00471 15.1807 7.00179C15.2725 6.92069 15.3448 6.82069 15.3927 6.70891C15.4405 6.59714 15.4627 6.47636 15.4575 6.3552C15.4455 4.36467 15.4511 2.37323 15.4511 0.381784V0H19.2928V2.69244H16.5582V4.68751C16.5582 5.26517 16.5684 5.84192 16.5527 6.41868C16.5476 6.51813 16.5655 6.61741 16.605 6.70911C16.6444 6.80081 16.7045 6.88257 16.7806 6.94828C18.8448 8.96814 20.9053 10.9901 22.9621 13.0142C23.0375 13.0805 23.0971 13.1624 23.1366 13.2539C23.1762 13.3454 23.1947 13.4444 23.1909 13.5438C23.1807 14.9793 23.1909 16.4158 23.1909 17.8767L8.823 17.8776ZM16.0194 9.7577C15.3622 9.75556 14.7193 9.94546 14.1721 10.3033C13.625 10.6611 13.1984 11.1707 12.9466 11.7673C12.6947 12.3639 12.629 13.0206 12.7576 13.654C12.8863 14.2875 13.2037 14.869 13.6693 15.3248C14.135 15.7806 14.728 16.09 15.3729 16.2139C16.0179 16.3377 16.6858 16.2703 17.2917 16.0203C17.8976 15.7702 18.4143 15.3488 18.776 14.8095C19.1377 14.2702 19.3282 13.6374 19.3233 12.9915C19.315 12.1334 18.9634 11.313 18.3444 10.7077C17.7254 10.1025 16.8888 9.76124 16.0157 9.7577H16.0194Z" fill="white" />
<path d="M7.69373 29.8353H1.10718V13.5855H7.69465L7.69373 29.8353ZM6.05701 20.6036C6.05701 19.2787 6.07823 17.991 6.04871 16.7042C6.03025 15.8572 5.27463 15.1915 4.41199 15.1879C3.54934 15.1843 2.77896 15.8463 2.75866 16.686C2.72729 17.9728 2.75312 19.2606 2.75866 20.5474C2.75866 20.5646 2.78449 20.5819 2.79925 20.6018L6.05701 20.6036ZM6.05701 28.2148V27.9219C6.05701 26.782 6.05701 25.6412 6.05701 24.5013C6.05701 23.5182 5.34291 22.79 4.3963 22.7909C3.4497 22.7918 2.74943 23.5237 2.74667 24.504C2.74298 25.6436 2.74298 26.7841 2.74667 27.9255C2.74667 28.0207 2.75958 28.1169 2.76696 28.2148H6.05701Z" fill="white" />
<path d="M30.8985 29.8354H24.311V13.5864H30.8985V29.8354ZM29.2618 20.6045C29.2618 19.2796 29.283 17.9928 29.2535 16.7051C29.2341 15.8445 28.4628 15.1761 27.5836 15.187C27.1533 15.1915 26.7419 15.3613 26.4374 15.6601C26.1329 15.9589 25.9595 16.3629 25.9542 16.7858C25.9413 18.0055 25.9542 19.2252 25.9542 20.444C25.9587 20.4976 25.9677 20.5506 25.981 20.6027L29.2618 20.6045ZM29.2618 28.2085C29.2618 26.9525 29.2618 25.7346 29.2618 24.5158C29.2618 23.5264 28.5606 22.7973 27.6186 22.7928C26.6628 22.7864 25.9505 23.5182 25.9478 24.5248C25.9478 25.6542 25.9478 26.7832 25.9478 27.9119C25.9478 28.009 25.9598 28.106 25.9671 28.2103L29.2618 28.2085Z" fill="white" />
<path d="M23.1732 21.1849V29.8353H19.8998V25.5051C20.0594 25.5051 20.2273 25.5115 20.3943 25.5051C20.7458 25.4888 20.9663 25.2957 20.9728 24.961C20.9845 24.2355 20.9845 23.5119 20.9728 22.79C20.9663 22.4454 20.7347 22.2559 20.3537 22.2514C19.8001 22.2459 19.2466 22.2514 18.693 22.2514H11.7937C11.2041 22.2514 11.0344 22.4191 11.0334 22.9959C11.0325 23.5726 11.0334 24.1748 11.0334 24.7597C11.0334 25.3446 11.2023 25.5051 11.79 25.5088H12.1166V29.8353H8.84961V21.1849H23.1732Z" fill="white" />
<path d="M0 32V30.9526H32V32H0Z" fill="white" />
<path d="M8.83862 20.0513V19.0067H23.1576V20.0513H8.83862Z" fill="white" />
<path d="M2.71794 3.7598C2.9163 2.72055 3.53814 2.13835 4.44138 2.15558C5.30956 2.17191 5.9351 2.7795 6.07257 3.75255C6.17313 3.77975 6.282 3.80514 6.3881 3.8387C6.63169 3.91349 6.84152 4.06871 6.98207 4.27808C7.12262 4.48746 7.18527 4.73812 7.15941 4.98768C7.10405 5.49279 6.67873 5.93533 6.15653 5.9444C4.9848 5.96617 3.81247 5.96617 2.63951 5.9444C2.12193 5.93352 1.69568 5.48009 1.64493 4.97679C1.62051 4.73293 1.68119 4.48815 1.81699 4.28266C1.95279 4.07716 2.15565 3.92316 2.39225 3.84595C2.49928 3.80877 2.61091 3.78791 2.71794 3.7598Z" fill="white" />
<path d="M25.9357 5.93169C26.0741 4.95592 26.7033 4.34561 27.5669 4.32747C28.471 4.30933 29.0947 4.887 29.2912 5.93259C29.3835 5.95708 29.4868 5.97794 29.5828 6.00786C29.8269 6.08035 30.0381 6.23347 30.1807 6.44133C30.3232 6.64919 30.3884 6.89905 30.3652 7.14868C30.3126 7.66831 29.8752 8.11085 29.3374 8.11992C28.1878 8.13805 27.0382 8.13805 25.8886 8.11992C25.6302 8.10797 25.3844 8.00671 25.1945 7.83399C25.0046 7.66127 24.8829 7.42819 24.8508 7.17587C24.8187 6.92354 24.8783 6.66817 25.019 6.45482C25.1598 6.24146 25.3727 6.08381 25.6201 6.00968C25.7179 5.98519 25.8185 5.96071 25.9357 5.93169Z" fill="white" />
<path d="M15.426 29.8354H13.2634V25.5233H15.426V29.8354Z" fill="white" />
<path d="M18.7539 25.5314V29.8299H16.5747V25.5314H18.7539Z" fill="white" />
<path d="M19.8435 24.4133H12.1655V23.3559H19.8435V24.4133Z" fill="white" />
<path d="M15.4557 11.4018H16.5583C16.5583 11.6829 16.5878 11.9541 16.5509 12.218C16.4918 12.6433 16.6431 12.9516 16.9781 13.2074C17.1626 13.3516 17.3305 13.5239 17.515 13.6916L16.7308 14.4434C16.3424 14.0743 15.9457 13.7061 15.5618 13.3243C15.4964 13.2458 15.4606 13.1475 15.4604 13.0459C15.4511 12.5055 15.4557 11.9704 15.4557 11.4018Z" fill="white" />
</svg>
