<svg width="31" height="30" viewBox="0 0 31 30" fill="none" xmlns="http://www.w3.org/2000/svg">
<path d="M30.0002 20.3626C29.6467 21.1787 28.9052 20.948 28.2281 20.9869C28.1963 21.2648 28.1618 21.5371 28.1348 21.8113C27.9053 24.085 27.6762 26.359 27.4474 28.6334C27.4356 28.8475 27.3404 29.0486 27.182 29.1943C27.0237 29.34 26.8144 29.4189 26.5986 29.4142C25.4663 29.4235 24.334 29.4235 23.2016 29.4142C22.991 29.4179 22.7869 29.3417 22.6309 29.2011C22.4749 29.0605 22.3788 28.866 22.3622 28.6575C22.185 26.9614 22.018 25.2654 21.8464 23.5694C21.8156 23.2619 21.7886 22.9534 21.7475 22.6431C21.7305 22.5817 21.736 22.5162 21.7632 22.4585C21.7904 22.4007 21.8374 22.3545 21.8958 22.3282C22.7679 21.8224 23.2016 21.0592 23.2016 20.0578C23.2016 18.4452 23.197 16.8335 23.2016 15.2217C23.2108 14.0373 22.9409 12.8671 22.4135 11.8047C22.3886 11.7546 22.3653 11.7037 22.3435 11.6518C22.3379 11.6272 22.3348 11.6021 22.3342 11.5768C22.9591 11.1794 23.6624 10.9775 24.3955 10.8543C22.0796 10.3467 21.3427 8.41817 21.5284 7.08988C21.7737 5.3355 23.2072 4.09521 24.943 4.10818C26.6434 4.12115 28.0527 5.37997 28.2803 7.11211C28.4547 8.44318 27.7085 10.3587 25.3376 10.8534C25.5717 10.8969 25.734 10.9256 25.8972 10.958C26.9317 11.1613 27.8771 11.6785 28.6029 12.4383C29.3286 13.1981 29.799 14.1629 29.9489 15.1995C29.963 15.2717 29.9807 15.3431 30.0021 15.4135L30.0002 20.3626Z" fill="white" />
<path d="M16.0114 0.620728C16.238 0.677231 16.4656 0.72725 16.6895 0.791164C17.623 1.05922 18.4356 1.63747 18.9913 2.42919C19.5469 3.22092 19.8121 4.17812 19.7423 5.1407C19.6725 6.10329 19.272 7.01289 18.6078 7.71738C17.9436 8.42187 17.056 8.87854 16.0935 9.011C13.8055 9.32779 11.6397 7.74755 11.3114 5.53003C10.9626 3.17079 12.5025 1.0496 14.8371 0.673526C14.8897 0.659922 14.9411 0.642269 14.991 0.620728H16.0114Z" fill="white" />
<path d="M12.2971 20.8693H10.5968C9.85993 20.8693 9.55493 20.5618 9.55493 19.8235C9.55493 18.2297 9.55493 16.6362 9.55493 15.043C9.55493 12.1548 11.4959 9.79001 14.3416 9.19626C14.4349 9.17773 14.5282 9.17032 14.6522 9.15273V9.47415C14.6522 11.2832 14.6522 13.0922 14.6522 14.9012C14.6522 15.5858 15.2902 16.0054 15.875 15.7136C16.2136 15.5441 16.3516 15.2551 16.3507 14.8855C16.3507 13.0854 16.3507 11.2856 16.3507 9.48619V9.15736C16.94 9.21629 17.5132 9.38371 18.0408 9.65107C20.2149 10.7533 21.3827 12.5151 21.4405 14.9466C21.4797 16.6047 21.4489 18.2646 21.448 19.9235C21.448 20.5266 21.1057 20.8665 20.5031 20.8684C19.9006 20.8702 19.3167 20.8684 18.7002 20.8684C18.6564 21.3509 18.6125 21.815 18.5734 22.2791C18.3986 24.3706 18.2251 26.4622 18.0529 28.5537C18.0081 29.0956 17.6798 29.4133 17.1351 29.4161C16.0407 29.4198 14.946 29.4198 13.851 29.4161C13.324 29.4161 12.9948 29.0919 12.951 28.5667C12.7433 26.0546 12.5343 23.5428 12.3242 21.0314C12.3204 20.986 12.3092 20.9415 12.2971 20.8693Z" fill="white" />
<path d="M6.61043 10.8599C7.34727 10.9775 8.04028 11.1896 8.62882 11.5546C8.40031 12.2502 8.14195 12.9042 7.97592 13.5804C7.86245 14.092 7.80646 14.6145 7.80897 15.1384C7.78845 16.7788 7.80057 18.4193 7.80151 20.0588C7.80151 21.0619 8.24268 21.8187 9.10171 22.3411C9.14615 22.3732 9.18267 22.4149 9.20852 22.463C9.23437 22.5112 9.24888 22.5645 9.25095 22.619C9.05818 24.6235 8.85734 26.6274 8.64841 28.6306C8.63634 28.8493 8.53809 29.0545 8.3749 29.2018C8.21171 29.3492 7.99669 29.4268 7.77632 29.4179C6.66266 29.4254 5.549 29.4254 4.43533 29.4179C3.927 29.4179 3.60242 29.0956 3.55112 28.5843C3.3024 26.1241 3.05367 23.6639 2.80495 21.2037C2.79935 21.1398 2.78163 21.0768 2.76391 20.9869C2.47756 20.9869 2.19682 20.9869 1.91607 20.9869C1.35271 20.9749 1.00481 20.6284 1.00014 20.0634C1.00014 18.674 0.992681 17.2846 1.00014 15.9026C1.0036 14.6811 1.45235 13.5021 2.26338 12.5838C3.07441 11.6654 4.19286 11.0698 5.41189 10.9071C5.47251 10.8988 5.53128 10.8747 5.63014 10.8488C3.25452 10.3384 2.54006 8.39503 2.72567 7.08619C2.97377 5.34478 4.39336 4.10263 6.11516 4.10819C7.83695 4.11375 9.25281 5.37534 9.4776 7.11583C9.65015 8.45153 8.89651 10.3634 6.61043 10.8599Z" fill="white" />
</svg>
